<svg width="588" height="440" viewBox="0 0 588 440" fill="none" xmlns="http://www.w3.org/2000/svg">
<path fill-rule="evenodd" clip-rule="evenodd" d="M299.696 186.103C321.152 184.4 341.621 192.377 358.77 204.811C380.871 220.836 399.604 243.753 412.284 267.902C413.633 268.939 414.962 270.002 416.281 271.074C423.338 276.81 430.233 282.869 436.344 289.612C439.756 293.376 448.706 302.529 444.82 308.302C443.996 309.528 442.642 310.232 441.286 310.717C437.483 312.075 433.519 312.764 429.769 314.353C425.14 316.314 420.339 319.061 417.373 323.248C416.53 324.439 416.31 325.844 415.176 326.369C413.973 326.926 411.706 326.709 410.392 326.837C407.75 327.096 405.107 327.355 402.465 327.612C396.257 328.22 389.768 328.287 383.695 329.783L355.757 336.665C350.043 338.073 343.476 338.848 338.057 341.162C329.971 344.615 322.256 349.67 314.519 353.837C310.778 355.851 307.036 357.866 303.294 359.88C301.467 360.865 300.217 360.878 298.075 361.042L282.623 362.228C280.13 362.419 278.934 363.421 278.607 360.932L275.015 333.571L273.117 319.102C273.004 318.242 273.037 313.979 272.33 313.465C271.887 313.142 269.286 313.837 268.805 313.896L261.791 314.753C256.74 315.37 251.689 315.987 246.637 316.604C246.227 316.654 243.956 316.628 243.701 316.962C243.403 317.355 243.971 319.604 244.022 320.088C244.558 325.169 245.094 330.25 245.63 335.33C245.692 335.919 246.409 338.651 246.032 339.135C245.769 339.471 243.866 339.511 243.479 339.574C238.606 340.368 233.734 341.161 228.861 341.955C225.372 342.524 220.811 342.495 217.512 343.804C215.618 344.556 213.744 346.478 212.107 347.679L188.343 365.127C184.738 367.773 179.88 367.099 175.491 367.432L124.858 371.281C124.9 369.708 124.943 368.135 124.985 366.561C125.207 358.228 125.43 349.895 125.652 341.562L125.944 330.663C125.962 329.973 125.686 327.954 126.138 327.445C126.739 326.768 129.423 326.475 130.256 326.228C133.051 325.403 135.845 324.578 138.64 323.753C146.838 321.332 155.035 318.91 163.232 316.49C171.334 314.097 179.435 311.704 187.537 309.312C190.309 308.493 193.081 307.674 195.853 306.856C196.493 306.667 198.73 306.415 199.175 305.875C199.736 305.194 199.485 302.29 199.574 301.427C200.014 297.217 200.641 293.025 201.405 288.862C206.913 258.831 219.786 228.327 243.656 208.292C259.434 195.049 279.227 187.727 299.696 186.103ZM303.48 246.325C301.356 243.837 297.788 239.778 294.035 240.452C290.985 240.999 289.324 244.772 288.261 247.279C283.988 257.358 282.663 268.911 281.334 279.682C280.5 286.441 279.83 293.229 279.401 300.026C294.621 298.858 309.841 297.69 325.061 296.521C324.343 291.683 323.767 286.799 322.902 281.984C322.469 279.57 321.27 277.397 320.245 275.167C315.66 265.194 310.656 254.732 303.48 246.325Z" fill="#7FBBCA"/>
<path fill-rule="evenodd" clip-rule="evenodd" d="M514.761 49.8442L515.133 49.8507C525.234 50.1188 534.141 56.6036 541.049 63.4666C544.465 66.86 547.58 70.8515 549.046 75.4961C550.739 80.8615 550.182 86.7631 548.894 92.148C546.049 104.048 542.572 116.009 538.661 127.607C536.737 133.312 533.947 138.906 532.495 144.745C531.297 149.556 536.339 153.06 536.532 158.004C536.727 162.991 533.363 167.676 528.742 169.458C526.774 170.218 524.392 169.583 522.578 170.361C520.918 171.072 520.337 173.171 520.019 174.782C519.584 176.979 519.662 179.175 519.786 181.391C519.862 182.747 519.523 184.96 520.186 186.17C520.642 187.001 521.471 187.272 522.186 187.84C523.162 188.616 523.812 189.582 524.667 190.473C526.078 191.944 527.435 192.741 527.818 194.887C528.021 194.4 528.225 193.912 528.429 193.425C529.48 195.344 530.259 196.264 529.259 198.085C532.361 197.782 534.198 203.395 535.011 205.524C536.5 209.42 537.523 213.468 539.015 217.366C541.061 222.711 543.748 227.985 545.053 233.578C546.149 238.278 547.017 243.105 547.992 247.838C548.541 250.503 549.019 253.21 550.023 255.751C550.414 256.737 551.138 257.401 551.587 258.281C552.201 259.484 551.961 260.12 551.99 261.439C552.042 263.789 553.528 265.314 553.996 267.597C554.495 270.036 554.902 272.503 555.406 274.947C556.421 279.87 558.3 284.786 558.752 289.773C559.278 295.563 560.405 301.283 560.972 307.075C561.468 312.136 560.625 317.569 561.684 322.466C562.624 326.811 561.459 330.785 561.045 335.1C560.94 336.195 562.631 342.717 559.913 341.465C560.423 343.002 561.139 343.735 561.177 345.422C561.213 347 560.805 348.622 560.472 350.151C559.829 353.107 559.401 356.33 558.141 359.099C556.716 362.232 554.545 362.607 551.594 363.682C549.595 364.409 545.997 367.006 544.423 364.228C543.484 367.08 541.651 365.109 539.596 364.95C539.61 364.95 538.421 365.389 538.198 365.419C537.475 365.516 536.621 365.177 535.903 365.117C534.11 364.969 532.352 365.207 530.599 365.57C526.559 366.405 522.651 367.56 518.552 368.142C510.544 369.279 502.697 368.741 494.678 369.239C478.985 370.212 463.032 369.396 447.326 368.974C445.641 368.929 443.824 369.164 442.16 368.906C440.367 368.627 439.976 367.78 438.579 366.932C436.256 365.524 433.679 366.894 431.27 367.408C424.195 368.919 416.807 369.031 409.677 370.492C395.189 373.46 381.841 379.318 367.964 384.26C361.948 386.402 354.886 389.871 348.399 390.022C340.537 390.191 342.394 382.465 343.838 377.498C339.296 378.701 332.162 384.199 327.545 381.009C322.042 377.207 329.044 370.886 329.373 366.417C319.539 368.454 308.383 372.921 298.4 369.29C296.48 368.592 294.808 367.115 292.746 366.875C290.603 366.625 288.337 367.381 286.17 367.367C281.233 367.336 276.438 366.68 271.503 367.287C260.499 368.639 249.652 369.379 238.559 369.671C227.391 369.964 216.223 370.624 205.051 370.597C199.38 370.583 193.604 369.912 187.944 370.212C185.722 370.331 180.939 371.941 179.378 369.688C177.811 371.563 176.479 370.31 174.468 370.518C174.841 370.479 173.421 371.299 173.207 371.378C172.15 371.77 171.162 371.65 170.058 371.639C167.118 371.609 164.372 372.982 161.446 372.849C160.707 372.816 160.148 372.601 159.52 372.348C159.371 372.288 159.407 371.649 159.169 371.596C157.738 371.276 158.107 372.151 157.199 372.592C156.192 373.08 154.702 372.29 155.275 373.792C152.542 373.672 149.953 374.591 147.467 372.974C148.642 375.566 144.536 373.413 143.462 373.371C141.679 373.299 140.117 374.189 138.338 374.394C136.205 374.639 134.061 373.652 131.974 374.255C130.339 374.726 129.779 375.861 128.077 375.281C126.631 374.788 125.728 373.718 125.026 372.547C124.058 370.932 123.934 370.211 121.599 370.183C119.868 370.161 118.127 370.533 116.379 370.53C114.377 370.526 112.176 370.314 110.347 371.264C108.378 372.287 107.221 373.845 105.036 374.646C95.2137 378.25 84.4311 377.296 74.1824 377.235C69.8585 377.209 66.6854 377.605 65.4715 372.685C64.446 368.527 64.0348 364.179 63.0563 359.987C61.8574 354.851 60.5395 350.085 57.8792 345.493C55.2987 341.04 53.1275 336.44 50.8806 331.814C46.2076 322.193 39.7029 314.008 32.4505 306.19C29.6954 303.22 26.5378 299.91 26.4095 295.633C26.3155 291.939 27.9463 288.113 30.0853 285.17C31.9951 282.544 35.1418 279.582 38.7014 280.194C40.845 280.563 42.2501 282.288 43.8499 283.582C45.5984 284.996 47.5031 285.96 49.6104 286.731C54.5246 288.529 58.6458 290.497 62.9013 293.601C67.2074 296.743 71.2327 300.26 74.9565 304.07C82.1049 311.383 89.4296 318.981 93.537 328.45C95.1558 332.181 96.1899 335.779 97.2936 339.647C98.3777 343.446 101.329 342.399 104.648 341.853C108.693 341.187 112.758 340.83 116.83 340.409C118.362 340.25 120.523 340.203 121.446 338.758C122.463 337.165 121.298 335.101 121.205 333.448C121.156 332.565 121.449 331.914 121.523 331.053C121.607 330.074 121.317 329.18 121.316 328.204C121.315 326.108 122.299 324.24 123.933 322.97C126.992 320.592 131.454 319.175 135.075 317.867C140.02 316.08 145.318 315.203 150.411 313.928C156.144 312.492 161.912 311.199 167.677 309.895C173.341 308.614 178.996 307.296 184.721 306.309C188.079 305.731 191.722 305.942 194.977 304.884C198.437 303.76 197.863 300.287 197.853 297.21C197.836 292.129 198.467 286.897 199.213 281.873C200.8 271.192 204.581 260.74 208.017 250.534C211.328 240.704 215.43 231.269 222.201 223.291C228.793 215.526 236.883 208.498 245.275 202.727C254.019 196.713 263.749 192.369 272.877 187.001C270.882 185.478 268.503 184.18 267.357 181.835C266.062 179.189 266.611 176.025 266.666 173.196C266.728 170.004 266.825 167.202 267.968 164.161C268.593 162.495 271.011 159.336 270.64 157.525C270.02 154.484 263.352 152.263 260.897 151.012C257.046 149.049 253.188 147.055 249.639 144.577C246.233 142.2 243.029 139.339 240.966 135.69C240.381 134.655 239.899 133.568 239.525 132.439C239.109 131.18 239.4 130.751 238.139 130.658C236.125 130.51 233.106 132.527 231.409 133.418C222.66 138.011 213.053 144.192 202.73 143.782C198.985 143.634 194.775 142.46 193.451 138.563C191.708 133.432 195.348 128.132 198.542 124.427C192.312 125.403 180.824 128.457 175.908 122.911C172.632 119.215 175.103 113.35 177.85 110.146C181.48 105.913 186.654 103.336 191.434 100.643C185.569 98.4117 179.076 96.9851 173.918 93.252C168.985 89.6821 169.595 84.1976 173.491 79.9867C177.657 75.4853 184.94 73.1798 190.668 71.5086C197.695 69.4587 204.675 69.6232 211.915 69.7607C224.91 70.007 236.072 74.7863 246.73 82.0119C252.365 85.8327 257.92 89.956 262.918 94.5834C267.606 98.9233 272.607 102.959 277.226 107.346C281.701 111.596 285.222 116.862 289.945 120.833C293.962 124.21 298.365 128.995 303.468 130.494C308.879 132.083 313.749 134.712 319.206 136.276C325.396 138.051 330.714 141.018 336.45 143.849C360.524 155.729 386.368 163.46 411.748 171.989C424.73 176.351 437.798 179.426 451.052 182.758C457.708 184.431 463.888 185.323 470.756 185.021C472.34 184.951 473.852 184.91 475.414 185.129C476.559 185.29 477.43 185.722 478.454 185.039C479.925 184.058 480.478 181.505 481.355 180.052C476.467 178.54 471.682 176.904 469.452 171.907C468.047 168.757 467.317 165.084 466.701 161.705C466.37 159.887 466.363 158.052 466.08 156.232C465.925 155.227 465.446 154.177 465.483 153.15C465.374 153.722 461.731 151.843 461.203 151.494C459.165 150.147 458.794 147.432 458.811 145.14C458.83 142.552 459.614 139.707 461.375 137.744C462.209 136.815 463.201 136.118 464.413 135.768C465.274 135.519 466.408 135.845 467.167 135.595C470.532 134.485 470.908 126.177 471.386 123.152C472.438 116.488 473.486 110.126 475.756 103.738C479.896 92.0918 485.223 80.7733 491.569 70.1697C497.006 61.0837 502.438 49.9738 514.393 49.8442H514.761ZM411.415 329.611C406.576 330.447 401.94 332.154 397.266 333.602C392.901 334.954 388.476 335.815 383.998 336.694C375.086 338.444 365.977 340.045 357.194 342.326C354.721 342.968 353.42 344.417 351.262 345.425C349.662 346.172 348.161 345.415 346.496 345.352C342.874 345.214 338.854 346.393 335.37 347.272C327.144 349.345 319.846 352.947 312.402 356.928C311.736 357.283 307.233 359.34 307.446 360.191C307.62 360.886 313.345 359.02 314.255 358.882C318.865 358.181 323.368 356.731 327.944 355.831C331.7 355.091 335.498 354.59 339.238 353.769C343.4 352.856 352.266 349.68 352.619 356.538C353 363.951 344.796 366.23 339.864 369.688C340.414 370.634 348.325 367.515 349.306 367.199C352.671 366.117 355.791 364.167 359.217 363.336C365.176 361.89 364.454 368.457 361.164 371.378C357.509 374.623 351.463 375.604 349.439 380.598C352.097 381.555 355.573 379.758 358.014 378.865C361.221 377.692 364.439 376.537 367.665 375.419C374.907 372.909 381.785 369.45 389.064 367.058C404.001 362.152 419.789 360.744 435.403 359.872C434.012 354.488 432.49 349.134 431.24 343.714C430.705 341.394 430.215 339.064 429.81 336.717C429.528 335.086 429.768 331.181 428.641 329.895C427.27 328.327 423.697 330.529 421.752 330.487C419.848 330.446 418.458 329.465 416.698 329.156C415.027 328.862 413.05 329.329 411.415 329.611ZM130.762 360.781C130.762 363.355 130.315 366.478 133.709 366.778C136.454 367.022 141.823 367.335 144.013 365.387C141.914 364.367 139.53 364.189 137.301 363.6C134.979 362.987 132.835 361.98 130.762 360.781ZM186.775 313.879C185.743 313.886 184.001 315.031 183.059 315.351C181.336 315.936 179.585 316.429 177.825 316.893C172.539 318.29 165.733 318.508 163.306 324.169C162.094 326.995 161.254 334.261 157.044 334.235C153.302 334.211 151.061 328.822 148.391 326.905C145.632 324.923 141.257 326.272 138.282 327.133C135.258 328.006 130.566 329.127 130.905 332.951C131.149 335.7 131.646 338.202 131.623 341.01C131.593 344.584 131.291 348.151 131.291 351.726C133.414 348.824 135.266 342.99 139.027 341.823C142.826 340.644 144.976 347.267 145.964 349.806C147.189 352.951 148.728 356.518 148.822 359.927C148.851 360.997 148.2 363.937 148.946 364.817C149.608 365.599 152.154 365.032 152.977 364.947C158.07 364.418 163.136 363.76 168.245 363.319C170.868 363.092 171.583 362.518 171.326 359.702C171.124 357.49 171.062 355.383 171.34 353.162C172.58 343.25 178.698 334.183 189.042 332.462C195.275 331.425 202.554 332.183 208.777 333.18C211.176 333.564 213.78 334.723 216.217 334.622C218.017 334.547 217.437 334.445 217.805 332.755C218.063 331.573 218.615 330.564 219.516 329.745C220.228 329.098 221.132 329.463 221.803 328.617C222.289 328.005 222.216 327.17 222.445 326.465C222.892 325.091 223.701 323.238 225.31 322.891C227.901 322.333 230.654 325.793 231.962 327.578C233.312 329.423 233.72 334.932 235.893 335.654C238.399 336.485 241.381 333.207 241.904 331.142C242.607 328.365 241.721 325.36 241.298 322.609C241.268 322.412 241.145 320.585 241.008 320.466C240.643 320.144 237.887 320.234 237.399 320.21C234.998 320.096 232.593 320.09 230.19 320.084C220.769 320.06 211.54 319.136 202.182 318.151C203.541 320.362 205.868 323.992 203.479 326.326C201.709 328.055 198.514 327.188 196.291 327.544C193.15 328.047 187.855 331.021 184.861 328.847C180.643 325.782 185.415 320.515 186.981 317.619C187.317 316.998 188.56 314.813 188.033 314.084C187.577 313.454 187.444 313.874 186.775 313.879ZM116.522 347.944C114.368 348.599 112.198 349.229 109.998 349.715C107.416 350.285 103.414 349.732 102.158 352.565C101.203 354.719 101.677 358.194 102.453 360.34C103.342 362.797 105.429 363.429 107.891 363.616C110.764 363.835 113.675 363.373 116.515 362.981C117.634 362.826 118.827 362.547 119.964 362.546C120.639 362.544 122.001 363.16 122.601 362.656C123.378 362.004 122.866 358.297 122.806 357.408C122.655 355.208 122.236 353.036 122.122 350.832C122.04 349.249 122.638 347.098 120.779 346.761C119.62 346.55 117.528 347.638 116.522 347.944ZM290.453 304.381C288.844 304.659 287.243 304.858 285.609 304.833C284.601 304.817 283.396 304.476 282.465 305.027C280.746 306.045 281.002 308.727 281.06 310.401C281.132 312.431 281.31 314.492 281.527 316.512C281.734 318.444 282.797 321.625 281.296 323.28C280.238 322.125 279.716 318.346 277.674 318.484C275.428 318.636 276.466 322.216 276.665 323.499C277.766 330.586 279.021 337.678 280.004 344.786C280.472 348.165 281.076 351.519 281.389 354.915C281.598 357.194 281.669 359.246 284.222 359.718C286.588 360.156 289.246 359.409 291.638 359.352C294.1 359.293 295.51 359.126 296.927 356.905C293.535 356.165 288.162 356.618 286.251 353.038C284.023 348.862 288.723 345.105 291.035 342.251C292.81 340.059 296.439 332.771 299.734 337.1C300.92 338.658 301.134 341.036 301.733 342.849C302.708 345.794 303.898 348.697 305.066 351.57C315.752 346.066 326.716 341.105 338.37 338.015C335.399 333.005 331.721 328.493 329.497 323.063C327.005 316.976 324.941 310.724 322.393 304.658C318.353 307.01 314.035 301.307 310.012 301.077C303.658 300.715 296.683 303.304 290.453 304.381ZM227.156 345.411C224.941 346.728 221.682 349.288 221.15 351.935C220.232 356.511 225.466 353.452 227.081 352.45C230.464 350.354 233.778 349.684 237.663 350.976C242.645 352.633 247.236 355.429 252.583 353.305C255.243 352.247 261.145 349.987 259.552 345.933C258.454 343.138 255.242 345.535 253.544 346.537C249.098 349.161 245.417 347.499 240.975 345.605C236.532 343.711 231.529 342.813 227.156 345.411ZM69.3865 321.929C67.6082 324.444 71.2235 323.901 72.8106 324.146C76.1296 324.658 79.5479 327.298 78.6332 331.035C77.7414 334.678 74.2473 336.955 73.5818 340.779C73.0099 344.063 73.5611 348.22 76.7394 350.023C78.5247 351.035 82.4265 351.452 84.2232 350.289C86.9668 348.513 83.5594 345.869 81.7443 344.989C79.3389 343.823 77.3963 343.192 78.5867 340.129C80.0377 336.395 82.856 333.53 82.6056 329.258C82.3989 325.719 80.5264 321.696 77.1149 320.225C74.6722 319.173 71.0523 319.572 69.3865 321.929ZM312.205 311.078C315.279 310.947 315.401 314.654 315.246 316.477C315.034 318.97 315.488 321.626 315.54 324.127C315.61 327.439 316.305 338.286 310.434 336.674C306.659 335.639 303.553 332.029 300.519 329.71C297.727 327.575 290.629 325.015 290.17 320.968C289.65 316.397 295.247 315.541 298.453 314.815C303.031 313.778 307.475 311.281 312.205 311.078ZM297.228 190.6C292.353 191.069 287.505 191.791 282.865 193.407C279.726 194.5 274.904 195.284 272.679 197.966C270.755 200.286 271.589 203.593 270.964 206.334C270.118 210.042 267.552 209.535 265.064 207.219C262.086 204.448 261.225 202.441 257.08 205.042C248.498 210.426 241.694 218.375 234.887 225.74C240.151 227.33 250.477 227.715 252.225 234.277C253.181 237.864 250.3 240.474 247.711 242.431C244.369 244.96 240.88 247.298 237.61 249.927C234.559 252.381 227.718 262.151 225.783 253.561C224.585 248.244 226.83 242.749 225.877 237.497C221.738 244.155 217.536 250.798 213.741 257.66C210.511 263.502 208.632 269.751 207.083 276.21C209.498 276.368 212.012 275.144 214.4 275.867C216.699 276.562 217.775 278.733 217.936 280.981C218.211 284.792 216.447 288.672 215.559 292.332C214.95 294.846 214.25 300.552 211.181 301.37C207.683 302.302 205.488 296.934 203.928 294.752C202.443 297.029 202.468 300.361 202.251 302.972C202.102 304.766 201.099 308.122 203.122 309.114C205.016 310.044 209.009 308.879 211.034 308.794C214.792 308.635 218.623 308.331 222.381 308.442C225.933 308.547 231.158 310.441 232.546 306.086C233.49 303.121 234.322 292.466 239.36 298.247C241.599 300.814 243.349 303.74 245.511 306.356C247.692 308.995 249.675 309.168 252.932 309.034C259.379 308.771 265.675 310.006 271.983 311.003C277.518 311.878 276.792 307.19 276.71 303.017C276.584 296.549 277.87 289.784 278.571 283.351C280.239 268.053 283.661 252.94 288.926 238.472C284.522 236.976 276.626 243.013 273.37 238.428C270.693 234.659 274.132 229.466 275.532 225.943C277.278 221.547 278.161 216.954 281.009 213.059C281.908 211.829 283.187 210.18 284.926 210.594C286.419 210.95 287.014 212.85 287.854 213.922C290.521 217.324 293.927 219.875 296.298 223.586C297.748 225.856 298.875 228.282 299.346 230.947C299.476 231.68 299.312 233.18 299.829 233.795C301.431 235.7 306.48 235.672 308.724 236.84C316.386 240.829 319.078 252.441 322.053 259.763C322.891 261.825 323.722 263.892 324.168 266.077C324.465 267.538 324.451 269.396 325.245 270.706C326.979 273.567 332.365 271.012 335.008 270.569C339.438 269.827 343.846 269.118 348.294 268.495C351.008 268.115 354.958 267.134 357.026 269.533C359.169 272.02 357.937 275.937 356.861 278.605C355.104 282.96 352.86 287.12 351.006 291.435C349.528 294.877 348.792 299.312 345.95 301.964C343.489 304.262 339.416 304.921 336.519 303.051C334.865 301.983 330.619 291.658 329.499 292.119C331.521 300.094 334.487 308.226 337.62 315.838C338.581 318.176 340.233 322.943 342.664 324.211C344.679 325.262 349.251 323.276 351.312 322.891C353.267 322.525 357.126 320.942 358.995 322.102C361.26 323.509 361.536 327.261 361.791 329.591C361.98 331.318 361.637 332.607 363.743 332.521C365.227 332.461 366.724 331.739 368.149 331.376C371.454 330.535 374.885 329.978 378.251 329.436C386.034 328.182 393.815 326.931 401.595 325.645C408.284 324.54 414.885 324.546 420.928 321.381C423.992 319.777 427.504 319.287 430.766 318.214C434.001 317.15 437.226 316.46 440.612 316.06C448.013 315.187 455.215 314.331 462.529 312.835C466.532 312.017 470.528 311.159 474.509 310.242C478.053 309.425 481.48 308.128 485.007 307.328C487.941 306.662 490.351 307.162 491.608 303.84C492.509 301.457 492.3 298.786 492.531 296.292C493.59 284.898 489.59 273.438 488.772 262.106C488.507 258.436 488.425 254.754 488.149 251.087C488.022 249.407 488.099 244.514 486.134 243.608C485.955 244.952 486.094 247.213 484.564 247.879C485.312 247.554 484.33 251.524 484.277 251.922C484.068 253.507 484.59 255.203 484.315 256.758C484.533 257.305 484.438 257.717 484.03 257.994C483.752 258.219 483.549 258.503 483.423 258.846C483.403 259.955 483.729 259.302 483.745 259.684C483.898 263.498 483.252 267.451 483.529 271.357C483.821 275.486 484.745 279.536 485.447 283.609C486.076 287.264 486.755 290.927 487.281 294.598C487.649 297.175 487.923 300.133 486.533 302.479C483.894 306.932 476.256 306.448 471.807 307.176C464.412 308.387 457.007 309.48 449.585 310.509C446.736 310.904 443.852 311.805 440.969 311.851C437.89 311.899 436.242 310.658 434.3 308.39C430.389 303.822 427.866 298.634 424.608 293.665C422.778 290.874 421.256 290.138 418.175 289.286C415.314 288.495 413.017 286.412 410.69 284.679C405.799 281.04 399.485 277.083 396.276 271.724C392.899 266.084 397.658 264.211 402.214 262.673C401.105 259.732 398.931 257.371 397.139 254.841C395.102 251.965 393.256 248.978 391.063 246.21C386.593 240.569 382.128 234.957 377.791 229.21C374.083 224.298 370.336 219.645 365.604 215.666C360.851 211.67 355.559 208.394 350.34 205.049C347.614 203.301 342.828 198.835 339.382 199.291C336.039 199.735 334.718 205.946 333.883 208.557C332.924 211.553 332.586 215.73 330.353 218.089C327.072 221.555 323.666 216.095 322.1 213.579C319.233 208.97 316.298 204.402 313.435 199.789C312.131 197.686 310.246 195.684 309.471 193.3C309.462 193.271 309.1 191.221 309.466 191.508L309.491 191.531L309.466 191.503C308.647 190.694 305.622 190.525 304.491 190.428L304.388 190.419C302.008 190.195 299.601 190.371 297.228 190.6ZM265.27 319.841C262.529 319.824 259.796 320.142 257.068 320.365C254.672 320.561 252.476 320.195 250.083 320.051C247.124 319.874 245.66 320.183 246.342 323.233C246.837 325.452 247.433 328.407 249.717 329.345C252.801 330.612 256.956 330.442 260.243 330.922C262.656 331.274 265.062 331.592 267.465 331.994C269.061 332.261 269.88 332.54 270.627 330.736C271.252 329.224 270.849 327.204 270.636 325.642C270.472 324.443 270.57 322.336 270.003 321.269C269.156 319.678 266.937 319.851 265.27 319.841ZM393.042 289.431C397.069 293.104 399.778 297.799 402.819 302.252C404.675 304.97 408.307 309.304 405.67 312.6C403.423 315.41 398.198 314.767 395.055 314.902C390.115 315.115 386.081 317.342 381.38 318.49C369.542 321.384 379.374 301.529 381.014 297.386C382.165 294.479 383.352 291.585 384.744 288.783C385.371 287.52 386.624 283.836 388.184 283.353C390.447 282.654 391.61 288.125 393.042 289.431ZM291.324 247.687C289.443 251.276 289.137 256.243 288.245 260.162C285.518 272.146 283.923 284.352 282.67 296.566C288.905 294.099 295.487 293.928 302.071 293.324C306.841 292.886 311.221 292.385 315.992 292.589C316.805 292.623 319.144 293.035 319.814 292.345C320.714 291.419 319.624 288.836 319.358 287.862C317.912 282.572 317.277 277.106 315.633 271.849C313.958 266.488 311.921 261.134 309.754 255.951C308.169 252.16 305.992 248.463 302.151 246.603C298.789 244.976 293.412 243.706 291.324 247.687ZM265.645 271.011C268.214 274.876 271.468 278.256 273.977 282.156C275.756 284.923 277.839 290.04 273.566 291.799C272.066 292.416 270.295 292.149 268.724 292.177C266.293 292.218 263.886 292.427 261.451 292.369C259.149 292.314 256.868 292.036 254.571 291.916C253.123 291.841 251.305 291.952 250.029 291.122C246.611 288.898 249.083 284.355 250.184 281.449C251.353 278.361 252.932 275.442 254.455 272.516C255.511 270.486 257.09 266.352 259.492 265.524C262.337 264.545 264.46 269.229 265.645 271.011ZM390.221 227.227C395.867 233.778 400.77 240.924 405.387 248.221C407.64 251.783 409.828 255.386 412.012 258.989C413.441 261.347 414.514 264.364 416.255 266.5C420.227 271.371 421.332 260.742 421.917 258.431C424.077 249.911 426.751 241.46 429.13 232.994L426.692 232.994C416.973 232.989 407.655 232.845 398.193 229.988C395.514 229.18 393.072 227.425 390.221 227.227ZM369.693 228.879C372.768 231.144 392.447 244.445 384.169 249.577C382.456 250.639 379.656 250.157 377.721 250.31C375.24 250.505 372.72 250.744 370.27 251.183C367.097 251.751 364.015 252.742 360.827 253.243C358.293 253.643 354.935 254.109 352.671 252.534C348.936 249.937 351.203 244.835 352.436 241.533C354.189 236.841 355.849 230.559 360.198 227.765C361.21 227.114 362.449 224.792 363.538 224.58C365.243 224.246 368.446 227.961 369.693 228.879ZM478.264 118.553C476.78 119.686 476.713 122.038 476.328 123.698C475.034 129.283 473.227 134.72 472.155 140.364C471.11 145.869 470.782 151.289 471.294 156.868C471.637 160.589 471.676 165.168 473.943 168.337C476.656 172.128 482.029 171.934 486.092 173.057C490.001 174.137 493.877 177.484 489.613 180.963C488.098 182.198 486.108 182.4 484.61 183.59C482.762 185.06 481.701 187.693 480.916 189.846C480.269 191.618 480.288 191.957 482.219 192.583C483.101 192.869 483.993 193.051 484.921 192.974C487.034 192.799 488.919 191.406 490.688 190.36C495.2 187.692 500.412 184.13 505.799 183.728C507.521 183.599 509.479 184.302 511.153 183.744C512.713 183.223 512.234 182.905 512.505 181.457C513.579 175.719 514.014 170.086 516.947 164.895C518.395 162.334 522.221 157.094 524.786 161.082C525.857 162.747 526.245 163.561 528.621 163.05C530.554 162.634 532.678 161.109 532.295 158.881C531.934 156.779 529.163 155.348 527.484 154.426C525.247 153.2 523.679 153.342 521.244 153.051C514.553 152.253 519.244 142.489 520.209 138.825C520.815 136.523 521.524 133.546 519.932 131.467C517.51 128.305 512.232 129.345 508.907 129.793C504.31 130.414 499.29 130.744 494.987 128.662C490.435 126.46 488.494 121.493 484.226 119.078C482.648 118.185 479.885 117.314 478.264 118.553ZM498.243 158.89C501.406 158.848 499.869 163.348 499.003 164.861C497.178 168.052 493.269 169.286 489.837 168.11C487.122 167.179 484.186 163.066 488.438 162.385C490.477 162.058 492.495 162.191 494.427 161.223C495.528 160.672 496.951 158.908 498.243 158.89ZM490.307 134.96C492.272 136.15 488.918 143.754 488.353 145.293C487.433 147.805 486.614 149.426 488.955 151.362C490.582 152.708 493.792 153.87 492.259 156.553C490.841 159.036 485.974 157.995 483.996 156.78C481.119 155.014 481.967 151.631 482.601 148.854C483.016 147.035 486.807 132.84 490.307 134.96ZM180.804 85.0346C186.865 87.6179 193.064 89.9514 199.477 91.508C205.082 92.8687 210.593 94.3359 216.37 94.0162C221.714 93.7212 222.352 98.9594 219.299 102.587C217.641 104.558 215.716 104.509 213.3 104.585C210.47 104.674 207.901 105.457 205.172 106.159C201.016 107.227 196.809 108.133 192.782 109.641C190.704 110.419 188.654 111.334 186.8 112.563C185.635 113.337 183.035 114.73 184.41 115.811C186.398 117.372 192.299 115.233 194.664 115.092C200.173 114.764 205.67 114.268 211.148 113.58C213.831 113.243 216.711 112.909 219.252 111.937C220.914 111.301 222.755 109.722 224.637 110.123C228.608 110.969 226.64 116.909 224.837 118.842C222.16 121.712 218.095 122.979 214.636 124.609C212.219 125.75 209.816 126.957 207.469 128.233C206.36 128.835 201.192 131.093 201.356 132.807C201.527 134.609 205.607 133.7 206.616 133.537C213.349 132.444 219.425 129.846 225.646 127.188C228.369 126.025 231.13 124.908 233.796 123.618C235.658 122.716 237.489 121.342 239.547 120.932C244.398 119.966 244.185 125.371 246.095 128.292C251.772 136.97 262.74 140.672 271.274 145.688C274.502 147.585 277.582 149.769 280.544 152.054C282.66 153.686 283.506 155.932 285.869 153.78C287.838 151.986 288.788 149.355 290.05 147.074C291.519 144.418 293.482 142.073 294.988 139.439C297.214 135.547 297.88 131.835 292.992 130.403C287.861 128.899 283.8 126.658 279.439 123.459C268.736 115.609 259.855 105.585 249.184 97.6743C239.297 90.3456 228.813 83.4683 216.418 81.5003C204.671 79.6343 191.782 80.0938 180.804 85.0346ZM501.455 141.406C501.204 143.567 500.671 148.176 497.662 148.348C494.008 148.557 496.462 137.481 498.532 136.234C501.846 134.238 501.668 139.575 501.455 141.406ZM467.452 140.523C462.89 140.9 461.59 145.885 466.149 147.65L467.452 140.523ZM484.365 136.148C483.78 138.411 483.988 142.041 482.168 143.778C479.603 146.225 478.487 142.634 478.505 140.586C478.524 138.561 479.53 133.495 482.247 133.228C484.568 133 482.636 135.685 484.365 136.148ZM533.594 85.8126C531.927 89.2748 533.719 92.6917 534.717 96.0948C532.67 96.7531 529.912 96.2552 528.662 98.414C527.874 99.7746 528.011 101.823 528.247 103.297C528.441 104.506 529.434 106.133 528.607 107.255C527.525 108.724 524.838 108.045 523.644 109.678C521.83 112.162 522.848 117.836 525.394 119.706C528.972 122.333 526.837 115.887 526.618 114.713C526.069 111.772 529.123 112.172 531.208 110.984C532.327 110.347 532.527 110.224 532.784 108.864C533.021 107.611 532.895 106.617 532.596 105.267C531.581 100.685 533.356 101.433 537.004 100.424C540.151 99.5523 539.899 97.0435 539.099 94.4064C538.472 92.3393 536.603 88.9482 538.628 87.1859C539.431 86.4864 540.651 86.9287 540.825 85.4689C540.942 84.4835 539.617 82.8679 538.921 82.3012C536.522 80.3476 534.569 83.788 533.594 85.8126Z" fill="#2D3D8B"/>
</svg>
