<svg width="656" height="490" viewBox="0 0 656 490" fill="none" xmlns="http://www.w3.org/2000/svg">
<path fill-rule="evenodd" clip-rule="evenodd" d="M472.987 361.137C470.093 364.47 465.82 366.944 462.542 369.991C459.099 373.192 455.362 375.989 451.933 379.151C436.805 360.737 416.082 349.446 398.13 334.166C389.619 326.921 383.349 317.095 378.76 307.011C376.408 301.841 374.67 296.52 373.31 291.012C372.697 288.532 372.098 286.059 371.698 283.545C371.213 280.5 371.087 280.24 369.024 277.863C368.137 276.841 366.416 273.852 364.677 274.181C363.213 274.459 360.536 278.896 359.611 279.993C355.163 285.264 350.85 290.697 346.166 295.764C339.001 303.519 332.477 311.15 325.825 319.369C312.215 336.184 297.535 352.012 282.721 367.835C281.622 369.008 279.06 372.449 277.482 372.911C275.562 373.473 272.443 371.129 270.51 369.818C265.845 366.655 262.168 362.739 258.179 358.819C250.396 351.168 245.126 340.428 241.58 330.209C239.458 324.093 238.078 317.752 235.888 311.656C234.975 309.116 232.906 305.993 233.956 303.78C234.269 303.121 236.26 301.368 236.962 301.234C237.792 301.075 239.177 302.209 239.465 302.131C242.22 301.38 240.691 298.508 242.33 296.963C243.259 296.086 247.983 296.214 249.394 295.732C254.552 293.97 259.179 290.609 264.055 288.603C284.467 280.204 305.128 272.034 322.75 258.318C327.32 254.762 330.356 252.089 335.809 249.791C341.32 247.467 346.859 245.395 352.482 243.368C357.443 241.58 362.431 239.903 367.556 238.621C373.098 237.235 380.959 235.477 386.496 237.263C397.369 240.769 400.88 249.692 405.21 259.104C411.069 271.839 418.152 283.89 425.831 295.612C440.604 318.165 458.571 338.402 472.987 361.137Z" fill="#7FBBCA"/>
<path fill-rule="evenodd" clip-rule="evenodd" d="M145.524 161.758C144.926 161.456 140.255 163.349 139.47 163.639C136.338 164.796 133.388 166.719 130.438 168.284C132.699 171.025 134.961 173.766 137.222 176.508C139.438 171.093 142.287 166.625 145.524 161.758ZM147.066 195.449C146.297 195.535 152.793 211.082 153.551 212.827C156.312 219.176 159.21 225.463 162.007 231.796C164.717 237.933 168.154 243.579 171.618 249.313C174.58 254.216 177.627 261.825 182.095 265.456C179.274 252.991 179.645 238.658 171.553 228.191C163.165 217.34 154.871 206.744 147.066 195.449ZM472.987 361.692C460.452 341.923 444.76 324.434 431.689 305.017C424.37 294.146 417.246 283.135 411.085 271.562C406.604 263.144 403.819 251.133 396.897 244.698C393.847 241.862 390.588 239.087 386.495 237.817C380.894 236.079 373.183 237.801 367.556 239.176C357.071 241.736 346.828 245.712 336.896 249.888C326.823 254.123 318.228 261.731 309.126 267.843C299.362 274.401 288.793 279.178 277.854 283.359C268.329 287 259.855 292.228 250.381 295.893C248.493 296.623 244.641 296.516 243.057 297.468C241.35 298.494 242.022 301.522 239.951 302.639C239.016 303.143 238.705 301.316 237.987 301.346C237.109 301.382 236.309 302.408 235.464 303.058C232.02 305.703 234.13 307.468 235.493 311.108C239.937 322.97 242.325 335.039 248.565 346.237C253.695 355.442 261.037 363.691 269.682 369.784C270.997 370.712 275.284 374.305 276.827 374.066C278.216 373.852 281.043 370.173 282.003 369.174C286.356 364.64 290.335 359.763 294.686 355.222C301.408 348.205 307.88 340.999 314.404 333.885C321.977 325.627 328.68 316.271 335.502 307.448C338.64 303.389 342.679 300.082 346.166 296.319C350.856 291.258 355.163 285.818 359.612 280.547C360.957 278.952 363.212 274.872 365.304 274.92C366.769 274.953 369.354 278.39 370.12 279.467C372.97 283.471 372.957 290.701 374.374 295.699C377.832 307.885 384.068 319.787 392.619 329.191C401.123 338.542 412.016 345.192 422.074 352.709C432.97 360.853 443.292 369.186 451.933 379.705C455.362 376.543 459.099 373.746 462.542 370.545C465.821 367.498 470.094 365.025 472.987 361.692ZM311.633 417.621C314.07 417.645 318.197 419.138 320.377 418.239C313.911 411.113 307.972 404.999 299.791 399.777C291.301 394.358 282.839 388.987 274.592 383.206C257.974 371.557 245.751 357.742 238.809 338.343C237.022 333.347 235.824 328.107 234.514 322.972C233.81 320.206 232.407 307.267 230.024 306.15C228.613 305.488 217.991 312.923 216.308 313.849C212.374 316.016 208.424 317.697 204.356 319.393C195.612 323.039 186.598 325.82 177.326 328.142C166.209 330.926 158.637 326.32 151.75 317.618C143.937 307.745 137.444 296.606 130.301 286.238C127.052 281.522 124.361 276.814 121.962 271.613C120.391 268.21 114.164 259.028 116.316 255.402C122.455 260.057 124.664 269.313 128.846 275.546C134.058 283.314 139.932 290.638 145.171 298.399C149.576 304.924 154.071 312.833 160.58 317.524C166.305 321.65 171.744 320.382 177.905 318.527C185.373 316.28 193.114 315.172 200.432 312.385C208.352 309.369 215.846 305.09 223.573 301.602C227.175 299.975 231.489 299.05 234.883 297.022C237.809 295.275 237.373 294.352 237.587 290.632C237.838 286.292 238.127 281.948 238.32 277.604C238.45 274.685 236.865 270.727 237.94 268.548C229.168 270.063 220.593 272.092 211.882 273.887C207.113 274.869 202.514 276.084 197.696 276.856C195.859 277.15 193.348 277.142 191.704 277.939C190.392 277.563 189.723 277.802 189.697 278.654C189.635 279.116 189.535 279.573 189.399 280.021C186.709 281.24 185.144 278.626 182.811 276.118C179.932 273.024 177.777 269.539 175.665 265.903C170.942 257.773 165.498 250.127 161.128 241.769C156.674 233.248 153.056 224.125 149.28 215.284C145.815 207.174 143.597 198.402 139.768 190.484C138.06 186.949 135.895 184.026 133.366 181.04C131.279 178.576 128.069 173.261 124.953 172.129C124.129 171.83 121.972 172.333 121.036 172.266C119.17 172.134 117.508 171.452 115.599 171.601C111.466 171.923 106.959 174.526 103.656 176.815C105.791 178.71 111.131 181.013 107.295 184.426C103.573 187.74 101.517 181.796 100.097 179.192C93.4089 184.661 94.3756 192.203 93.603 199.932C93.1994 203.966 92.1379 207.94 91.4531 211.914C90.9598 214.775 91.3057 217.733 91.1648 220.653C90.8054 228.074 90.0565 235.177 90.0917 242.494C90.1315 250.315 90.6664 257.868 91.2948 265.632C92.3525 278.704 94.776 291.78 96.8542 304.748C98.0233 312.037 99.6236 319.119 101.177 326.29C102.94 334.43 106.202 342.139 108.031 350.257C109.894 347.898 111.296 347.886 114.31 348.199C116.628 348.439 118.186 347.89 118.05 351.095C117.962 353.173 116.121 354.761 114.084 355.124C111.427 355.597 110.524 354.277 109.155 352.273C108.835 356.067 111.398 360.035 112.411 363.742C113.37 367.254 114.006 370.697 115.617 374.058C117.19 377.338 118.537 380.573 120.128 383.821C120.861 385.315 121.546 386.833 122.288 388.323C122.662 389.078 123.104 390.118 123.663 390.754C124.975 392.245 124.766 391.523 126.302 392.372C129.647 394.223 128.391 393.762 128.469 397.583C128.545 401.354 130.486 404.123 133.599 406.242C140.203 410.739 146.717 411.989 154.225 414.261C161.221 416.378 168.589 418.195 175.997 418.153C185.07 418.103 194.022 416.918 203.094 416.798C213.103 416.666 223.208 416.72 233.197 417.065C237.312 417.206 241.133 417.389 245.106 418.435C249.719 419.651 254.181 419.169 258.936 418.985C269.08 418.592 279.573 417.81 289.584 417.74C296.793 417.689 304.398 417.188 311.633 417.621ZM574.666 421.537C576.47 422.485 580.512 422.096 582.325 421.833C585.518 421.369 585.861 420.108 587.887 417.272C591.374 412.388 594.206 407.711 596.258 402.053C600.185 391.226 601.788 380.148 603.512 368.822C605.428 356.236 601.929 343.19 600.678 330.69C600.39 327.822 599.997 324.981 599.542 322.134C599.269 320.433 599.198 314.644 598.074 313.171C595.914 310.341 585.869 312.623 581.919 312.88C570.896 313.597 559.799 313.765 548.781 313.889C542.905 313.956 536.997 314.201 531.181 314.246C528.509 314.267 525.897 314.135 523.216 313.876C522.32 313.79 521.444 313.584 520.54 313.534C517.448 313.364 517.68 312.917 516.881 315.645C515.48 320.424 516.558 326.503 516.19 331.463C515.698 338.091 515.432 344.813 515.554 351.455C515.667 357.592 515.456 363.716 515.686 369.867C515.783 372.415 516.062 374.492 516.736 376.924C517.499 379.675 518.339 386.101 520.239 388.004C520.455 388.221 522.07 387.716 522.498 388.256C523.159 389.087 523.038 390.846 523.491 391.383C524.959 393.122 527.992 393.26 530.193 394.042C536.231 396.186 541.77 398.514 547.46 401.406C552.545 403.989 560.743 406.188 563.8 411.284C565.202 413.621 565.391 416.702 566.68 419.112C568.147 421.858 565.211 420.423 568.806 421.537C570.426 422.038 573.006 421.537 574.666 421.537ZM38.6201 390.479C38.1627 396.82 34.5758 402.861 33.3272 409.095C32.743 412.015 31.752 414.885 31.0652 417.787C30.4066 420.571 28.0274 423.869 28.2682 426.624C37.0499 423.508 45.945 422.724 55.1232 421.884C63.8223 421.087 73.012 420.77 81.6381 420.766C90.4281 420.761 99.8267 419.907 108.877 419.774C118.343 419.635 127.951 419.391 137.279 418.414C132.401 414.816 126.298 411.437 122.696 406.431C118.781 400.989 116.748 394.171 113.302 388.429C106.389 376.906 101.993 362.607 98.3693 349.661C91.0527 323.527 82.8764 297.874 80.9058 270.766C77.1556 272.679 74.1786 280.1 72.301 283.795C69.9044 288.513 68.6494 293.628 67.0914 298.642C63.8831 308.971 61.6627 319.681 57.7344 329.912C50.2263 349.468 45.4005 370.541 38.6201 390.479ZM515.317 238.16C516.941 249.848 520.346 261.688 520.477 273.518C520.506 276.12 520.063 279.011 520.608 281.577C521.189 284.316 523.081 286.738 524.173 289.342C525.907 293.475 530.297 301.947 526.063 305.449C525.977 302.125 522.924 297.905 521.385 294.999C519.067 290.62 516.021 286.616 513.508 282.346C508.247 273.408 502.352 264.661 495.572 256.782C488.969 249.106 481.358 242.298 474.355 234.99C472.251 232.794 455.374 211.658 454.703 211.953C459.938 232.06 468.838 249.554 481.017 266.389C486.988 274.642 494.154 280.073 501.424 287.064C507.477 292.887 518.886 299.113 516.793 308.653C526.256 307.747 535.656 306.299 545.205 306.299C543.634 294.263 542.432 282.418 539.629 270.579C536.446 257.137 534.29 243.292 531.597 229.73C528.849 215.885 524.187 202.482 521.287 188.663C518.51 175.43 516.124 162.221 514.088 148.841C512.406 156.255 513.027 164.398 512.43 171.963C511.82 179.691 511.879 187.277 512.082 195.051C512.458 209.49 514.003 223.755 515.317 238.16ZM556.321 169.319C556.374 163.138 557.576 157.041 557.947 150.875C558.061 148.984 559.953 136.077 558.189 135.403C556.738 138.554 556.399 142.586 555.082 145.891C553.765 149.194 552.004 152.34 550.741 155.665C548.004 162.869 547.06 171.02 546.765 178.679C546.098 196.003 545.754 213.287 546.923 230.611C547.424 238.036 547.808 245.474 547.671 252.914C547.52 261.101 546.262 268.206 547.79 276.326C549.303 284.366 550.254 292.373 550.758 300.531C551.112 306.257 551.254 305.851 556.739 305.449C560.699 305.158 564.698 305.469 568.663 305.288C566.809 282.973 566.506 260.611 563.544 238.381C562.033 227.041 561.993 215.536 560.116 204.237C559.183 198.624 557.618 193.125 556.719 187.506C555.753 181.472 556.228 175.398 556.321 169.319ZM155.22 155.275C165.78 156.186 177.012 159.331 187.835 157.254C186.051 156.535 181.382 155.542 183.483 152.702C185.62 149.813 189.22 153.477 191.351 153.098C192.665 152.865 195.568 147.395 196.378 146.263C198.216 143.689 198.437 143.24 201.742 142.581C204.944 141.943 205.67 142.634 206.076 139.463C206.541 135.818 205.275 131.719 205.4 127.991C205.67 119.965 208.27 112.927 210.689 105.376C200.409 107.604 190.357 110.245 179.846 111.681C175.353 112.294 168.362 113.71 164.28 110.668C163.218 109.877 163.388 108.809 162.52 107.892C161.063 106.354 158.361 104.763 156.295 104.324C143.58 101.629 142.34 119.68 148.712 126.435C150.307 128.128 152.528 128.963 154.162 130.514C156.343 132.583 156.522 134.762 156.84 137.919C157.437 143.84 156.626 149.784 154.09 155.2L155.22 155.275ZM309.512 240.496C313.265 241.205 317.182 241.043 320.945 241.649C322.282 241.864 326.291 242.614 327.466 241.836C329.261 240.647 329.899 236.287 330.748 234.257C332.241 230.686 334.353 227.571 335.777 223.935C341.593 209.083 347.018 194.172 354.053 179.828C351.357 179.13 349.286 179.102 346.569 178.742C343.738 178.366 341.171 176.699 338.47 175.982C335.903 175.301 333.214 175.475 330.671 174.683C329.27 174.247 328.067 173.278 326.686 172.94C324.484 172.4 321.915 172.085 320.605 173.525C319.263 175.001 318.792 179.049 318.062 180.956C316.117 186.037 313.858 190.94 312.228 196.137C310.758 200.825 309.362 205.463 308.068 210.193C306.701 215.187 304.006 219.303 302.365 224.073C301.116 227.704 299.938 231.416 299.752 235.288C299.57 239.065 299.018 239.306 302.811 239.909C304.726 240.214 307.71 241.347 309.512 240.496ZM556.466 417.302C557.444 417.755 558.366 417.695 559.23 417.12C550.755 413.555 542.511 408.61 533.669 406.164C525.375 403.87 517.313 401.13 509.323 398.304C502.83 396.009 496.992 394.222 491.122 390.182C487.559 387.729 484.394 384.972 481.945 381.388C479.22 377.398 478.613 371.719 475.661 368.126C471.676 372.484 466.995 375.785 462.281 379.248C460.65 380.446 456.737 383.058 456.179 384.912C455.475 387.252 457.361 389.49 458.294 391.858C460.683 397.922 461.85 403.982 463.146 410.286C463.666 412.813 464.788 416.611 466.871 417.67C468.769 418.632 474.264 417.933 476.626 417.754C488.945 416.824 501.046 415.872 513.439 416.719C527.464 417.677 542.478 418.338 556.466 417.302ZM581.072 304.938C583.311 304.946 585.498 304.667 587.729 304.667C586.441 298.679 589.451 290.931 590.519 284.954C591.713 278.268 592.622 271.355 593.418 264.615C595.096 250.42 595.857 236.397 595.879 222.098C595.899 208.261 598.428 195.617 601.971 182.315C605.775 168.03 612.004 155.183 617.155 141.407C611.505 144.381 608.378 151.341 605.409 156.662C601.656 163.39 599.157 170.84 597.624 178.393C594.668 192.963 591.425 207.578 588.014 222.124C584.461 237.27 582.373 252.555 578.304 267.577C576.319 274.903 573.621 283.916 573.471 291.47C573.409 294.595 572.463 301.14 573.885 303.854C575.215 306.394 578.156 305.197 581.072 304.938ZM243.109 286.146C242.992 287.702 242.88 289.181 242.603 290.718C245.704 290.688 249.632 287.483 252.292 286.045C255.532 284.292 258.776 282.359 261.945 280.597C268.063 277.195 275.009 274.954 281.541 272.159C289.046 268.949 295.943 265.07 303.119 261.205C305.626 259.855 323.642 252.077 323.339 249.952C319.384 249.821 315.429 249.69 311.473 249.559C308.082 249.447 302.831 250.21 299.583 249.166C297.805 248.594 295.808 246.488 295.137 244.839C294.472 243.207 295.966 235.7 295.098 235.222C290.671 239.723 287.887 245.706 283.93 250.562C279.556 255.929 273.904 259.063 267.676 261.915C260.797 265.065 253.678 267.504 246.648 270.203C243.684 271.342 243.742 271.993 243.484 275.23C243.195 278.848 243.227 282.518 243.109 286.146ZM600.544 422.274C608.001 423.071 615.642 422.617 623.156 423.238C625.891 423.464 629.681 423.801 626.93 427.456C625.198 429.758 619.649 429.019 617.132 429.179C610.374 429.607 603.219 429.377 596.446 429.277C595.02 429.257 593.444 428.834 592.002 428.929C590.339 429.039 588.346 430.23 586.83 430.221C585.895 430.216 585.56 429.234 584.754 429.144C582.998 428.947 581.243 428.804 579.472 428.804C552.701 428.81 526.297 428.274 499.591 428.245C486.822 428.232 473.847 428.013 461.083 427.415C458.402 427.29 443.138 427.836 443.56 423.029C443.778 420.554 448.76 420.205 450.578 419.942C451.925 419.747 453.323 419.778 454.673 419.706C458.259 419.514 459.83 420.374 459.073 416.466C456.204 401.643 451.062 389.393 440.077 378.736C431.094 370.021 420.278 362.116 410.103 354.839C397.749 346.002 387.727 336.709 380.393 323.187C376.11 315.291 372.524 307.218 370.324 298.487C369.532 295.346 369.513 291.774 368.543 288.746C367.796 286.415 366.095 284.783 365.093 282.368C352.802 302.814 336.511 319.92 321.575 338.355C314.437 347.163 306.296 355.528 297.768 363.19C295.238 365.464 292.876 367.838 290.514 370.284C288.539 372.333 285.402 374.153 283.734 376.425C282.134 378.604 282.528 378.5 284.963 380.231C288.183 382.519 291.732 384.419 295.002 386.65C300.23 390.216 305.936 393.228 310.61 397.52C315.665 402.161 320.081 407.537 324.5 412.77C327.445 416.258 331.309 420.733 332.049 425.143C332.295 426.603 333.226 430.211 331.997 431.28C330.946 432.193 331.052 431.846 329.748 431.289C328.038 430.56 327.536 428.885 325.448 428.087C320.106 426.045 313.641 426.746 308.082 426.721C302.522 426.696 296.915 427.318 291.357 427.295C278.665 427.244 266.243 428.267 253.555 428.817C240.079 429.4 226.437 428 213.006 428.198C203.054 428.345 192.838 427.604 182.611 428.155C177.351 428.438 172.185 427.782 167.056 427.709C160.341 427.613 153.445 428.522 146.672 428.652C135.556 428.866 124.576 428.864 113.392 429.13C89.3352 429.704 65.4085 430.296 41.3376 430.676C38.1268 430.726 34.6117 430.618 31.4387 430.977C28.0709 431.36 29.8096 432.073 27.4988 433.281C21.0298 436.66 22.5237 424.132 22.6788 421.668C23.5103 408.464 26.8762 395.513 30.9211 382.977C34.7584 371.088 37.8738 358.644 41.1237 346.497C44.681 333.203 49.316 320.452 53.5249 307.289C57.8376 293.8 61.3488 279.785 69.1817 267.828C70.9659 265.105 72.8096 262.174 75.6796 260.457C78.8968 258.533 79.0352 259.657 79.0326 256.134C79.0307 252.817 79.2357 248.384 78.4497 245.218C77.7392 242.358 77.8488 244.054 76.2491 242C74.9474 240.329 73.5854 239.187 72.6514 237.158C66.9139 242.951 53.7805 239.894 48.2372 235.722C41.4523 230.615 36.2844 222 34.3907 213.795C32.8698 207.206 34.736 194.647 42.0583 191.479C45.6279 189.934 58.7389 188.766 59.2636 183.732C59.5339 181.134 54.9195 177.48 53.8548 175.245C51.8817 171.106 49.9867 165.6 49.4383 161.062C48.3672 152.205 52.4044 142.301 58.8357 136.318C70.6334 125.343 91.3916 119.711 106.567 126.674C103.36 114.473 101.424 103.948 103.039 91.2563C104.431 80.3225 110.908 74.2052 119.821 68.759C135.031 59.4643 155.714 55.7957 173.105 58.4984C177.057 59.1128 180.85 60.4303 184.509 61.4786C189.825 63.0015 196.189 62.4943 201.208 64.9686C204.848 66.762 207.611 70.3349 210.807 72.7205C214.539 75.5055 217.64 79.6622 220.232 83.5062C225.777 91.7265 223.61 106.983 218.969 115.234C217.975 117.004 216.745 118.494 215.099 119.702C213.385 120.959 210.771 121.35 209.888 122.98C207.625 127.156 209.808 136.196 210.11 140.709C210.461 145.95 207.801 149.887 201.834 150.304C198.382 150.547 198.272 148.552 196.619 152.656C195.548 155.316 194.575 158.214 193.029 160.653C189.842 165.678 184.005 165.188 178.688 165.052C172.533 164.893 166.47 163.925 160.311 163.314C161.938 168.504 166.39 172.532 169.17 177.156C172.93 183.41 175.192 188.594 175.804 195.88C176.272 201.478 175.26 205.899 171.414 210.065C169.822 211.79 168.411 211.875 168.806 213.864C169.047 215.078 171.154 217.08 171.9 218.048C173.872 220.611 176.162 222.962 177.898 225.699C184.579 236.227 186.552 252.277 186.569 264.534C186.569 265.096 186.87 266.291 186.621 266.872C186.437 267.302 185.035 268.661 185.014 268.778C184.74 270.354 186.283 273.055 188.704 273.323C191.246 273.603 195.903 271.49 198.268 270.795C202.053 269.684 205.911 268.863 209.687 267.722C215.787 265.879 221.858 264.409 228.059 262.964C230.861 262.312 233.678 261.769 236.489 261.159C239.691 260.465 241.179 259.123 242.831 262.367C244.249 265.151 243.368 265.656 246.802 264.253C250.212 262.859 253.544 261.131 256.873 259.558C262.745 256.784 269.738 254.311 274.804 250.215C283.253 243.383 286.382 232.502 294.468 225.252C296.72 223.233 298.064 223.198 299.487 220.401C301.011 217.408 301.797 213.57 302.598 210.351C304.002 204.713 305 199.056 306.273 193.423C307.859 186.406 311.285 180.052 313.786 173.359C314.76 170.751 315.265 167.437 316.836 165.093C317.253 164.472 318.049 164.121 318.373 163.607C319.491 161.842 319.48 161.357 319.769 159.233C321.124 149.309 327.072 154.529 333.572 156.805C336.311 157.764 349.315 163.983 344.349 168.119C350.269 169.829 359.749 168.9 359.67 177.348C359.629 181.677 357.029 186.308 355.634 190.36C354.394 193.958 353.196 197.57 351.938 201.162C349.18 209.03 345.834 216.664 343.142 224.557C341.916 228.154 340.903 231.835 339.196 235.23C337.689 238.225 334.042 241.526 333.441 244.801C349.216 238.099 363.808 228.408 381.465 229.026C389.196 229.296 396.212 232.533 400.482 239.303C405.835 247.788 409.357 257.289 414.589 265.853C433.622 297.007 456.324 325.31 477.218 355.174C478.823 357.469 480.887 359.639 481.444 362.475C481.807 364.325 481.102 366.176 481.538 367.954C482.442 371.648 487.009 376.26 490.106 378.383C496.042 382.452 505.691 388.192 513.099 387.684C508.45 376.557 508.512 364.365 508.728 352.496C508.934 341.221 510.157 330.037 511.61 318.879C511.938 316.355 512.225 314.014 512.953 311.567C513.789 308.76 514.937 309.026 512.433 306.503C508.579 302.617 503.994 299.42 500.109 295.486C491.706 286.979 483.093 280.311 476.48 270.152C470.19 260.489 463.554 250.546 458.898 239.965C454.105 229.072 452.189 217.439 449.81 205.903C448.844 201.222 445.323 195.996 446.031 191.107C446.925 184.929 449.801 189.428 450.972 192.753C454.546 202.902 462.913 211.985 469.843 220.147C477.331 228.965 486.489 236.342 494.304 244.903C502.815 254.227 508.645 264.943 516.213 274.896C516.213 262.544 511.979 249.966 510.246 237.747C508.722 226.991 508.244 216.202 507.28 205.401C505.092 180.864 506.983 155.604 510.053 131.242C511.513 119.672 510.685 108.375 510.729 96.7656C510.743 93.0708 509.208 84.5552 511.165 81.2764C514.913 74.9963 517.1 88.7284 517.289 90.7759C518.423 102.972 516.39 115.033 517.428 127.177C518.514 139.859 520.868 152.185 522.872 164.72C525.043 178.293 528.578 191.559 531.962 204.871C535.514 218.848 538.502 233.117 542.452 246.982C543.518 242.624 542.023 237.27 541.728 232.831C541.306 226.479 540.483 220.126 540.412 213.757C540.298 203.607 540.219 193.268 540.795 183.165C541.363 173.207 541.192 162.772 544.258 153.178C545.714 148.625 547.848 144.182 549.937 139.893C552.513 134.603 553.424 129.475 554.851 123.85C556.073 119.032 557.862 114.341 558.676 109.427C559.182 106.371 560.595 97.3494 564.108 104.185C566.148 108.152 565.266 114.033 565.323 118.295C565.396 123.759 564.557 129.072 564.428 134.513C564.177 145.188 563.997 155.851 563.198 166.508C562.359 177.69 563.091 187.71 565.227 198.728C567.565 210.788 568.249 222.874 569.461 235.081C570.085 241.384 571.138 247.652 571.647 253.964C571.916 257.306 570.536 266.891 572.941 269.272C573.174 263.482 574.839 257.688 576.102 252.046C577.598 245.363 578.202 238.337 579.304 231.558C581.09 220.575 584.554 210.087 586.846 199.227C591.571 176.841 595.497 148.069 615.297 133.417C617.888 131.499 620.735 130.084 623.536 128.506C625.121 127.613 627.477 125.302 629.291 124.899C631.271 124.459 632.097 124.801 632.9 127.089C634.019 130.278 631.972 131.768 630.061 134.085C623.448 142.101 620.623 152.377 616.539 161.778C607.189 183.305 603.052 206.011 603.004 229.281C602.979 241.463 602.136 253.212 600.831 265.32C599.428 278.35 597.579 292.131 593.604 304.667C597.591 305.557 601.917 304.23 602.999 308.845C603.264 309.979 602.784 311.319 603.078 312.795C603.364 314.229 604.051 315.656 604.458 317.067C605.298 319.984 605.743 322.863 606.152 325.859C607.732 337.438 610.446 348.451 610.735 360.191C611.001 371.043 608.867 382.038 606.902 392.682C604.922 403.402 599.243 412.54 594.772 422.235C596.696 422.235 598.62 422.254 600.544 422.274Z" fill="#2D3D8B"/>
<path fill-rule="evenodd" clip-rule="evenodd" d="M347.497 397.631C345.377 398.228 335.14 399.355 335.142 402.554C335.143 404.472 345.366 404.435 347.175 404.643C347.283 402.306 347.39 399.969 347.497 397.631ZM370.093 419.706C375.991 420.823 383.999 419.252 387.77 414.073C389.532 411.653 390.368 407.972 390.942 405.083C391.49 402.331 393.181 395.463 392.03 392.883C390.617 389.714 377.064 393.026 373.117 393.389C366.231 394.022 359.11 394.097 352.22 393.65C352.22 400.735 351.856 407.641 356.04 413.74C359.06 418.141 364.729 419.179 370.093 419.706ZM368.907 428.458C362.497 426.122 355.768 427.64 351.594 420.787C350.536 419.049 349.644 417.179 349.003 415.248C348.69 414.402 348.446 413.535 348.273 412.648C348.6 410.738 347.897 410.199 346.166 411.032C342.769 410.374 339.043 412.696 335.465 412.012C326.786 410.352 328.362 397.97 334.187 393.683C335.337 392.836 336.487 392.601 337.804 392.182C340.707 391.261 342.278 392.29 344.934 392.028C347.08 391.817 347.67 389.576 349.976 388.589C351.486 387.943 353.582 387.993 355.17 387.928C363.477 387.588 371.811 387.591 380.172 387.052C384.072 386.8 388.282 387.415 392.102 386.752C393.89 386.441 393.634 385.255 395.327 386.295C397.081 387.372 396.324 391.355 396.235 392.943C395.723 402.126 395.174 411.974 390.235 420.002C385.716 427.348 376.824 428.099 368.907 428.458Z" fill="#2D3D8B"/>
<path fill-rule="evenodd" clip-rule="evenodd" d="M30.4084 430.988C32.4705 430.966 34.5321 430.944 36.5872 430.923C34.5224 430.945 32.4654 430.966 30.4084 430.988Z" fill="#2D3D8B"/>
<path fill-rule="evenodd" clip-rule="evenodd" d="M603.017 235.194C603.013 233.222 603.009 231.249 603.004 229.28C603.008 231.254 603.013 233.224 603.017 235.194Z" fill="#2D3D8B"/>
<path fill-rule="evenodd" clip-rule="evenodd" d="M78.4559 243.296C78.4495 245.218 78.4431 247.139 78.4367 249.056C78.4424 247.134 78.4489 245.214 78.4559 243.296Z" fill="#2D3D8B"/>
<path fill-rule="evenodd" clip-rule="evenodd" d="M249.867 428.809C251.508 428.812 253.149 428.814 254.782 428.818C253.138 428.816 251.504 428.813 249.867 428.809Z" fill="#2D3D8B"/>
<path fill-rule="evenodd" clip-rule="evenodd" d="M150.252 428.418C151.893 428.423 153.533 428.428 155.166 428.434C153.523 428.43 151.888 428.423 150.252 428.418Z" fill="#2D3D8B"/>
<path fill-rule="evenodd" clip-rule="evenodd" d="M508.945 348.607C508.873 349.904 508.8 351.2 508.728 352.495C508.801 351.196 508.873 349.902 508.945 348.607Z" fill="#2D3D8B"/>
<path fill-rule="evenodd" clip-rule="evenodd" d="M600.545 422.274C599.277 422.261 598.009 422.248 596.741 422.235C598.015 421.704 599.282 421.728 600.545 422.274Z" fill="#2D3D8B"/>
<path fill-rule="evenodd" clip-rule="evenodd" d="M487.983 428.017C488.893 428.003 489.803 427.989 490.704 427.973C489.792 427.987 488.887 428.002 487.983 428.017Z" fill="#2D3D8B"/>
<path fill-rule="evenodd" clip-rule="evenodd" d="M602.523 251.201C602.546 250.22 602.568 249.24 602.591 248.263C602.568 249.244 602.546 250.223 602.523 251.201Z" fill="#2D3D8B"/>
<path fill-rule="evenodd" clip-rule="evenodd" d="M517.429 127.176C517.354 126.165 517.279 125.154 517.203 124.145C517.279 125.157 517.354 126.167 517.429 127.176Z" fill="#2D3D8B"/>
<path fill-rule="evenodd" clip-rule="evenodd" d="M602.973 239.056C602.985 238.042 602.997 237.029 603.009 236.019C602.997 237.034 602.985 238.045 602.973 239.056Z" fill="#2D3D8B"/>
<path fill-rule="evenodd" clip-rule="evenodd" d="M316.815 426.759C317.624 426.771 318.434 426.783 319.236 426.793C318.425 426.78 317.62 426.77 316.815 426.759Z" fill="#2D3D8B"/>
<path fill-rule="evenodd" clip-rule="evenodd" d="M525.214 428.412C526.005 428.428 526.796 428.443 527.579 428.46C526.786 428.445 526 428.428 525.214 428.412Z" fill="#2D3D8B"/>
<path fill-rule="evenodd" clip-rule="evenodd" d="M610.644 357.139C610.587 356.25 610.53 355.361 610.474 354.473C610.531 355.363 610.588 356.251 610.644 357.139Z" fill="#2D3D8B"/>
<path fill-rule="evenodd" clip-rule="evenodd" d="M596.446 429.276C597.089 429.273 597.733 429.269 598.369 429.267C597.724 429.272 597.084 429.275 596.446 429.276Z" fill="#2D3D8B"/>
<path fill-rule="evenodd" clip-rule="evenodd" d="M508.732 428.453C509.37 428.437 510.007 428.421 510.638 428.407C509.998 428.423 509.365 428.438 508.732 428.453Z" fill="#2D3D8B"/>
<path fill-rule="evenodd" clip-rule="evenodd" d="M365.432 427.968C366.134 427.964 366.836 427.96 367.531 427.955C366.827 427.959 366.13 427.964 365.432 427.968Z" fill="#2D3D8B"/>
<path fill-rule="evenodd" clip-rule="evenodd" d="M203.605 427.965C204.272 427.97 204.939 427.975 205.599 427.981C204.93 427.977 204.267 427.971 203.605 427.965Z" fill="#2D3D8B"/>
<path fill-rule="evenodd" clip-rule="evenodd" d="M164.238 428.073C164.918 428.035 165.597 427.997 166.271 427.96C165.589 427.998 164.914 428.035 164.238 428.073Z" fill="#2D3D8B"/>
<path fill-rule="evenodd" clip-rule="evenodd" d="M352.713 169.919C351.701 169.832 350.688 169.745 349.676 169.657C350.69 169.728 351.761 169.129 352.713 169.919Z" fill="#2D3D8B"/>
<path fill-rule="evenodd" clip-rule="evenodd" d="M610.74 422.657C609.741 422.557 608.743 422.456 607.745 422.354C608.744 422.456 609.741 422.557 610.74 422.657Z" fill="#2D3D8B"/>
<path fill-rule="evenodd" clip-rule="evenodd" d="M541.122 176.038C541.055 176.909 540.987 177.781 540.92 178.649C540.988 177.777 541.055 176.907 541.122 176.038Z" fill="#2D3D8B"/>
<path fill-rule="evenodd" clip-rule="evenodd" d="M603.223 212.349C603.291 211.524 603.36 210.698 603.428 209.876C603.36 210.703 603.291 211.526 603.223 212.349Z" fill="#2D3D8B"/>
<path fill-rule="evenodd" clip-rule="evenodd" d="M540.725 189.548C540.653 190.417 540.58 191.286 540.509 192.153C540.581 191.283 540.653 190.415 540.725 189.548Z" fill="#2D3D8B"/>
<path fill-rule="evenodd" clip-rule="evenodd" d="M602.801 245.678C602.794 244.838 602.788 243.998 602.782 243.16C603.327 243.998 603.306 244.836 602.801 245.678Z" fill="#2D3D8B"/>
<path fill-rule="evenodd" clip-rule="evenodd" d="M508.96 366.348C508.952 367.19 508.945 368.033 508.936 368.872C508.376 368.022 508.488 367.183 508.96 366.348Z" fill="#2D3D8B"/>
<path fill-rule="evenodd" clip-rule="evenodd" d="M572.575 268.908C572.478 268.056 572.38 267.203 572.282 266.353C572.38 267.207 572.478 268.058 572.575 268.908Z" fill="#2D3D8B"/>
<path fill-rule="evenodd" clip-rule="evenodd" d="M45.8108 190.668C45.1491 191.541 44.2477 190.943 43.461 191.049C44.2452 190.922 45.028 190.795 45.8108 190.668Z" fill="#2D3D8B"/>
<path fill-rule="evenodd" clip-rule="evenodd" d="M373.037 387.656C372.201 387.657 371.365 387.657 370.529 387.659C371.366 387.657 372.201 387.656 373.037 387.656Z" fill="#2D3D8B"/>
<path fill-rule="evenodd" clip-rule="evenodd" d="M506.605 194.246C506.684 194.955 506.761 195.663 506.84 196.368C506.761 195.659 506.684 194.953 506.605 194.246Z" fill="#2D3D8B"/>
<path fill-rule="evenodd" clip-rule="evenodd" d="M93.4361 123.911C92.5956 123.928 91.7551 123.944 90.9146 123.961C91.7461 123.472 92.584 123.331 93.4361 123.911Z" fill="#2D3D8B"/>
<path fill-rule="evenodd" clip-rule="evenodd" d="M540.704 201.798C540.65 202.541 540.595 203.283 540.541 204.022C540.596 203.28 540.65 202.539 540.704 201.798Z" fill="#2D3D8B"/>
<path fill-rule="evenodd" clip-rule="evenodd" d="M517.654 110.636C517.72 109.959 517.785 109.282 517.849 108.609C517.784 109.288 517.72 109.962 517.654 110.636Z" fill="#2D3D8B"/>
<path fill-rule="evenodd" clip-rule="evenodd" d="M511.05 108.516C510.984 109.25 510.918 109.985 510.852 110.717C510.919 109.981 510.984 109.248 511.05 108.516Z" fill="#2D3D8B"/>
<path fill-rule="evenodd" clip-rule="evenodd" d="M145.962 59.4573C145.106 59.561 144.251 59.6647 143.397 59.7677C144.252 59.664 145.106 59.561 145.962 59.4573Z" fill="#2D3D8B"/>
<path fill-rule="evenodd" clip-rule="evenodd" d="M84.1902 124.495C83.3125 124.584 82.4349 124.674 81.5578 124.763C82.4355 124.674 83.3131 124.584 84.1902 124.495Z" fill="#2D3D8B"/>
<path fill-rule="evenodd" clip-rule="evenodd" d="M565.129 126.647C565.183 125.964 565.236 125.28 565.289 124.601C565.236 125.285 565.182 125.966 565.129 126.647Z" fill="#2D3D8B"/>
<path fill-rule="evenodd" clip-rule="evenodd" d="M55.384 239.421C55.8894 239.429 56.3942 239.436 56.892 239.444C56.3846 239.436 55.8843 239.429 55.384 239.421Z" fill="#2D3D8B"/>
<path fill-rule="evenodd" clip-rule="evenodd" d="M511.076 323.758C511.025 324.515 510.974 325.271 510.924 326.026C510.975 325.269 511.026 324.514 511.076 323.758Z" fill="#2D3D8B"/>
<path fill-rule="evenodd" clip-rule="evenodd" d="M562.636 176.502C562.616 175.773 562.596 175.044 562.575 174.317C562.597 175.047 562.617 175.774 562.636 176.502Z" fill="#2D3D8B"/>
<path fill-rule="evenodd" clip-rule="evenodd" d="M167.491 57.733C166.711 57.733 165.932 57.7336 165.153 57.7336C165.933 57.1986 166.712 57.212 167.491 57.733Z" fill="#2D3D8B"/>
<path fill-rule="evenodd" clip-rule="evenodd" d="M375.637 229.376C374.783 229.397 373.929 229.419 373.076 229.441C373.915 228.848 374.77 228.833 375.637 229.376Z" fill="#2D3D8B"/>
<path fill-rule="evenodd" clip-rule="evenodd" d="M450.263 426.73C450.769 426.74 451.276 426.751 451.775 426.763C451.267 426.753 450.765 426.741 450.263 426.73Z" fill="#2D3D8B"/>
<path fill-rule="evenodd" clip-rule="evenodd" d="M469.326 427.616C469.831 427.598 470.337 427.58 470.835 427.563C470.328 427.581 469.827 427.598 469.326 427.616Z" fill="#2D3D8B"/>
<path fill-rule="evenodd" clip-rule="evenodd" d="M170.99 427.966C171.517 427.979 172.044 427.993 172.565 428.005C172.035 427.992 171.513 427.979 170.99 427.966Z" fill="#2D3D8B"/>
<path fill-rule="evenodd" clip-rule="evenodd" d="M610.206 348.701C610.131 347.98 610.056 347.259 609.98 346.541C610.056 347.263 610.131 347.982 610.206 348.701Z" fill="#2D3D8B"/>
<path fill-rule="evenodd" clip-rule="evenodd" d="M541.349 227.16C541.41 227.847 541.469 228.534 541.528 229.217C541.469 228.529 541.409 227.844 541.349 227.16Z" fill="#2D3D8B"/>
<path fill-rule="evenodd" clip-rule="evenodd" d="M567.848 215.362C567.766 214.634 567.684 213.905 567.602 213.179C567.684 213.908 567.766 214.635 567.848 215.362Z" fill="#2D3D8B"/>
<path fill-rule="evenodd" clip-rule="evenodd" d="M175.267 428.4C175.799 428.392 176.331 428.384 176.857 428.377C176.323 428.386 175.795 428.393 175.267 428.4Z" fill="#2D3D8B"/>
<path fill-rule="evenodd" clip-rule="evenodd" d="M368.907 428.458C369.424 428.435 369.941 428.412 370.452 428.389C369.934 428.412 369.42 428.435 368.907 428.458Z" fill="#2D3D8B"/>
<path fill-rule="evenodd" clip-rule="evenodd" d="M563.523 162.158C563.499 161.42 563.476 160.682 563.453 159.945C563.477 160.684 563.5 161.421 563.523 162.158Z" fill="#2D3D8B"/>
<path fill-rule="evenodd" clip-rule="evenodd" d="M124.848 428.883C125.367 428.879 125.885 428.874 126.397 428.871C125.876 428.876 125.362 428.88 124.848 428.883Z" fill="#2D3D8B"/>
<path fill-rule="evenodd" clip-rule="evenodd" d="M563.306 428.875C563.839 428.881 564.372 428.886 564.899 428.892C564.363 428.887 563.834 428.881 563.306 428.875Z" fill="#2D3D8B"/>
<path fill-rule="evenodd" clip-rule="evenodd" d="M574.821 428.812C575.336 428.849 575.851 428.886 576.359 428.921C575.842 428.885 575.332 428.849 574.821 428.812Z" fill="#2D3D8B"/>
<path fill-rule="evenodd" clip-rule="evenodd" d="M579.472 428.803C579.996 428.819 580.521 428.835 581.038 428.846C580.512 428.83 579.992 428.817 579.472 428.803Z" fill="#2D3D8B"/>
<path fill-rule="evenodd" clip-rule="evenodd" d="M603.352 218.288C603.317 217.562 603.283 216.836 603.249 216.111C603.284 216.839 603.317 217.564 603.352 218.288Z" fill="#2D3D8B"/>
<path fill-rule="evenodd" clip-rule="evenodd" d="M251.435 419.287C253.03 419.204 254.625 419.121 256.22 419.038C254.625 419.121 253.03 419.203 251.435 419.287Z" fill="#2D3D8B"/>
<path fill-rule="evenodd" clip-rule="evenodd" d="M155.22 155.274C156.604 155.395 157.989 155.515 159.372 155.634C157.988 155.514 156.604 155.394 155.22 155.274Z" fill="#2D3D8B"/>
<path fill-rule="evenodd" clip-rule="evenodd" d="M546.096 215.218C546.139 216.533 546.183 217.849 546.226 219.161C546.182 217.844 546.139 216.531 546.096 215.218Z" fill="#2D3D8B"/>
<path fill-rule="evenodd" clip-rule="evenodd" d="M574.666 421.535C576.111 421.623 577.556 421.71 579.001 421.798C577.547 421.864 576.071 422.278 574.666 421.535Z" fill="#2D3D8B"/>
<path fill-rule="evenodd" clip-rule="evenodd" d="M566.114 265.918C566.125 264.663 566.136 263.408 566.146 262.156C566.135 263.412 566.125 264.665 566.114 265.918Z" fill="#2D3D8B"/>
<path fill-rule="evenodd" clip-rule="evenodd" d="M562.415 305.348C563.683 305.365 564.952 305.382 566.219 305.399C564.951 305.382 563.683 305.365 562.415 305.348Z" fill="#2D3D8B"/>
<path fill-rule="evenodd" clip-rule="evenodd" d="M243.202 283.285C243.17 284.241 243.138 285.198 243.108 286.15C243.14 285.192 243.171 284.239 243.202 283.285Z" fill="#2D3D8B"/>
<path fill-rule="evenodd" clip-rule="evenodd" d="M583.519 242.787C583.468 243.739 583.416 244.69 583.365 245.637C583.417 244.684 583.469 243.736 583.519 242.787Z" fill="#2D3D8B"/>
<path fill-rule="evenodd" clip-rule="evenodd" d="M556.466 417.301C557.388 417.238 558.311 417.176 559.232 417.117C558.538 417.672 557.84 417.718 556.466 417.301Z" fill="#2D3D8B"/>
<path fill-rule="evenodd" clip-rule="evenodd" d="M550.292 292.887C550.356 293.913 550.419 294.939 550.482 295.962C550.419 294.935 550.356 293.911 550.292 292.887Z" fill="#2D3D8B"/>
<path fill-rule="evenodd" clip-rule="evenodd" d="M205.37 130.955C205.38 129.964 205.39 128.973 205.4 127.986C205.39 128.978 205.381 129.967 205.37 130.955Z" fill="#2D3D8B"/>
<path fill-rule="evenodd" clip-rule="evenodd" d="M551.409 305.556L554.847 305.481C553.713 306.029 552.567 306.048 551.409 305.556Z" fill="#2D3D8B"/>
<path fill-rule="evenodd" clip-rule="evenodd" d="M583.129 312.868C582.318 312.875 581.508 312.881 580.703 312.889C581.516 312.883 582.323 312.875 583.129 312.868Z" fill="#2D3D8B"/>
<path fill-rule="evenodd" clip-rule="evenodd" d="M286.218 417.695C287.34 417.709 288.463 417.724 289.585 417.738C288.454 418.303 287.331 418.383 286.218 417.695Z" fill="#2D3D8B"/>
<path fill-rule="evenodd" clip-rule="evenodd" d="M74.7923 420.989C75.9313 420.888 77.071 420.786 78.21 420.684C77.071 420.786 75.9313 420.888 74.7923 420.989Z" fill="#2D3D8B"/>
<path fill-rule="evenodd" clip-rule="evenodd" d="M546.491 223.667C546.547 224.697 546.603 225.727 546.659 226.753C546.603 225.722 546.547 224.695 546.491 223.667Z" fill="#2D3D8B"/>
<path fill-rule="evenodd" clip-rule="evenodd" d="M182.91 157.693C183.87 157.22 184.838 157.141 185.815 157.642C184.846 157.659 183.878 157.677 182.91 157.693Z" fill="#2D3D8B"/>
<path fill-rule="evenodd" clip-rule="evenodd" d="M515.079 235.558C515.159 236.427 515.238 237.296 515.318 238.161C515.238 237.292 515.159 236.425 515.079 235.558Z" fill="#2D3D8B"/>
<path fill-rule="evenodd" clip-rule="evenodd" d="M596.2 215.29C595.706 214.44 595.723 213.595 596.225 212.757C596.216 213.602 596.209 214.446 596.2 215.29Z" fill="#2D3D8B"/>
<path fill-rule="evenodd" clip-rule="evenodd" d="M546.648 185.788C546.648 186.647 546.649 187.507 546.649 188.364C546.648 187.503 546.648 186.645 546.648 185.788Z" fill="#2D3D8B"/>
<path fill-rule="evenodd" clip-rule="evenodd" d="M581.072 304.939C582.06 304.636 583.049 304.208 584.033 304.949C583.046 304.946 582.059 304.942 581.072 304.939Z" fill="#2D3D8B"/>
<path fill-rule="evenodd" clip-rule="evenodd" d="M261.653 418.898C262.648 418.805 263.642 418.713 264.636 418.62C263.642 418.713 262.648 418.805 261.653 418.898Z" fill="#2D3D8B"/>
<path fill-rule="evenodd" clip-rule="evenodd" d="M125.299 418.9C126.21 418.5 127.119 418.29 128.017 418.931C127.11 418.92 126.205 418.91 125.299 418.9Z" fill="#2D3D8B"/>
<path fill-rule="evenodd" clip-rule="evenodd" d="M311.633 417.621C312.608 417.196 313.58 416.962 314.541 417.651C313.571 417.641 312.603 417.631 311.633 417.621Z" fill="#2D3D8B"/>
<path fill-rule="evenodd" clip-rule="evenodd" d="M94.7893 292.104C94.8624 292.98 94.9362 293.856 95.0087 294.73C94.9349 293.853 94.8618 292.979 94.7893 292.104Z" fill="#2D3D8B"/>
<path fill-rule="evenodd" clip-rule="evenodd" d="M320.946 241.648C321.904 241.3 322.859 241.119 323.8 241.7C322.848 241.682 321.897 241.666 320.946 241.648Z" fill="#2D3D8B"/>
<path fill-rule="evenodd" clip-rule="evenodd" d="M546.476 267.723C546.529 268.579 546.583 269.436 546.635 270.29C546.582 269.433 546.529 268.578 546.476 267.723Z" fill="#2D3D8B"/>
<path fill-rule="evenodd" clip-rule="evenodd" d="M94.1703 190.464C94.0907 191.154 94.0112 191.844 93.9322 192.53C94.0118 191.839 94.0907 191.152 94.1703 190.464Z" fill="#2D3D8B"/>
<path fill-rule="evenodd" clip-rule="evenodd" d="M38.6204 390.478C38.5709 391.15 38.5222 391.821 38.4734 392.488C38.5241 391.816 38.5722 391.147 38.6204 390.478Z" fill="#2D3D8B"/>
<path fill-rule="evenodd" clip-rule="evenodd" d="M566.539 272.254C566.485 271.56 566.431 270.866 566.377 270.175C566.431 270.871 566.485 271.563 566.539 272.254Z" fill="#2D3D8B"/>
<path fill-rule="evenodd" clip-rule="evenodd" d="M496.743 416.323C497.597 416.329 498.451 416.335 499.305 416.341C498.451 416.335 497.597 416.329 496.743 416.323Z" fill="#2D3D8B"/>
<path fill-rule="evenodd" clip-rule="evenodd" d="M242.878 289.192C243.038 289.697 243.197 290.203 243.357 290.709C242.291 290.966 242.132 290.46 242.878 289.192Z" fill="#2D3D8B"/>
<path fill-rule="evenodd" clip-rule="evenodd" d="M306.91 240.505C307.777 240.501 308.645 240.498 309.512 240.494C308.646 240.905 307.779 241.187 306.91 240.505Z" fill="#2D3D8B"/>
<path fill-rule="evenodd" clip-rule="evenodd" d="M95.2754 296.252C95.3049 297.017 95.3344 297.784 95.3627 298.547C95.3325 297.781 95.3036 297.016 95.2754 296.252Z" fill="#2D3D8B"/>
<path fill-rule="evenodd" clip-rule="evenodd" d="M104.452 419.737C105.289 419.736 106.126 419.735 106.963 419.735C106.125 419.735 105.289 419.736 104.452 419.737Z" fill="#2D3D8B"/>
<path fill-rule="evenodd" clip-rule="evenodd" d="M517.185 304.325C517.216 305.03 517.247 305.735 517.279 306.436C517.249 305.729 517.217 305.027 517.185 304.325Z" fill="#2D3D8B"/>
<path fill-rule="evenodd" clip-rule="evenodd" d="M86.677 420.597C87.5002 420.051 88.3253 420.098 89.1518 420.588C88.3266 420.591 87.5015 420.595 86.677 420.597Z" fill="#2D3D8B"/>
<path fill-rule="evenodd" clip-rule="evenodd" d="M108.354 180.615C108.399 181.335 108.444 182.055 108.49 182.77C108.445 182.049 108.4 181.332 108.354 180.615Z" fill="#2D3D8B"/>
<path fill-rule="evenodd" clip-rule="evenodd" d="M82.3941 420.67C83.2499 420.674 84.1058 420.677 84.961 420.681C84.1026 421.265 83.2474 421.292 82.3941 420.67Z" fill="#2D3D8B"/>
<path fill-rule="evenodd" clip-rule="evenodd" d="M556.321 169.317C556.328 168.586 556.334 167.856 556.341 167.126C556.334 167.858 556.327 168.588 556.321 169.317Z" fill="#2D3D8B"/>
<path fill-rule="evenodd" clip-rule="evenodd" d="M163.394 156.531C164.212 156.638 165.031 156.745 165.849 156.851C165.031 156.744 164.212 156.638 163.394 156.531Z" fill="#2D3D8B"/>
<path fill-rule="evenodd" clip-rule="evenodd" d="M91.147 219.631C91.1579 220.313 91.1688 220.997 91.1816 221.676C91.1707 220.992 91.1592 220.312 91.147 219.631Z" fill="#2D3D8B"/>
<path fill-rule="evenodd" clip-rule="evenodd" d="M561.833 219.533C561.788 218.838 561.743 218.142 561.698 217.45C561.743 218.147 561.788 218.84 561.833 219.533Z" fill="#2D3D8B"/>
<path fill-rule="evenodd" clip-rule="evenodd" d="M370.88 419.855C371.89 419.947 372.9 420.038 373.91 420.129C372.9 420.037 371.89 419.947 370.88 419.855Z" fill="#2D3D8B"/>
<path fill-rule="evenodd" clip-rule="evenodd" d="M367.505 393.809C366.958 393.818 366.413 393.826 365.872 393.838C366.42 393.831 366.962 393.82 367.505 393.809Z" fill="#2D3D8B"/>
<path fill-rule="evenodd" clip-rule="evenodd" d="M367.551 419.457C368.398 419.54 369.246 419.624 370.093 419.707C369.246 419.623 368.398 419.54 367.551 419.457Z" fill="#2D3D8B"/>
<path fill-rule="evenodd" clip-rule="evenodd" d="M215.068 362.629C216.171 368.833 206.49 374.901 205.722 366.081C205.442 362.856 207.607 360.589 210.032 358.617C213.473 355.819 215.396 358.498 215.068 362.629Z" fill="#2D3D8B"/>
<path fill-rule="evenodd" clip-rule="evenodd" d="M108.358 286.936C110.639 287.865 128.063 293.52 119.012 296.364C116.616 297.117 112.995 297.23 110.918 295.903C108.42 294.307 105.899 289.596 108.358 286.936Z" fill="#2D3D8B"/>
<path fill-rule="evenodd" clip-rule="evenodd" d="M112.646 202.919C118.56 202.235 124.009 211.909 116.718 211.595C111.41 211.366 104.272 202.919 112.646 202.919Z" fill="#2D3D8B"/>
<path fill-rule="evenodd" clip-rule="evenodd" d="M133.803 226.639C138.741 230.931 129.588 240.535 125.953 236.818C124.097 234.919 125.809 230.829 127.341 229.24C128.913 227.61 131.71 227.303 133.803 226.639Z" fill="#2D3D8B"/>
<path fill-rule="evenodd" clip-rule="evenodd" d="M148.505 337.89C145.59 338.351 132.768 342.524 135.442 334.945C136.462 332.055 139.307 332.912 141.907 333.045C146.098 333.258 148.505 333.058 148.505 337.89Z" fill="#2D3D8B"/>
<path fill-rule="evenodd" clip-rule="evenodd" d="M140.06 357.412C144.424 359.737 138.044 372.752 134.427 369.983C129.407 366.141 136.272 358.581 140.06 357.412Z" fill="#2D3D8B"/>
<path fill-rule="evenodd" clip-rule="evenodd" d="M159.095 346.95C161.218 346.087 171.222 355.671 167.414 358.337C165.462 359.704 161.763 357.361 160.586 355.949C158.38 353.3 158.18 350.032 159.095 346.95Z" fill="#2D3D8B"/>
<path fill-rule="evenodd" clip-rule="evenodd" d="M101.373 268.61C103.542 268.965 107.287 269.077 107.428 272.113C107.551 274.781 104.192 275.646 101.827 275.855C99.3738 276.072 96.1259 275.382 96.0791 272.31C96.0298 268.996 101.296 269.195 101.373 268.61Z" fill="#2D3D8B"/>
<path fill-rule="evenodd" clip-rule="evenodd" d="M154.864 400.714C157.174 402.111 167.95 407.14 163.331 410.772C161.602 412.132 156.363 409.324 155.183 407.897C153.776 406.193 152.4 402.203 154.864 400.714Z" fill="#2D3D8B"/>
<path fill-rule="evenodd" clip-rule="evenodd" d="M184.818 364.223C184.485 358.672 193.888 356.463 191.938 364.342C191.389 366.563 190.857 369.935 188.099 370.064C184.84 370.217 184.722 366.376 184.818 364.223Z" fill="#2D3D8B"/>
<path fill-rule="evenodd" clip-rule="evenodd" d="M155.771 267.697C155.837 271.908 147.735 275.621 147.672 268.947C147.617 262.982 156.074 261.237 155.771 267.697Z" fill="#2D3D8B"/>
<path fill-rule="evenodd" clip-rule="evenodd" d="M150.422 245.766C152.418 246.406 155.071 246.736 155.246 249.262C155.433 251.935 152.939 253.125 150.696 252.975C148.856 252.852 146.133 251.496 145.799 249.508C145.309 246.589 148.169 246.399 150.422 245.766Z" fill="#2D3D8B"/>
<path fill-rule="evenodd" clip-rule="evenodd" d="M113.302 322.86C113.268 319.385 120.26 315.209 121.548 319.241C121.96 320.531 118.664 326.316 117.568 326.749C114.668 327.896 114.263 325.224 113.302 322.86Z" fill="#2D3D8B"/>
<path fill-rule="evenodd" clip-rule="evenodd" d="M170.596 380.692C168.234 382.798 161.146 388.714 161.676 380.772C162.015 375.698 171.22 375.963 170.596 380.692Z" fill="#2D3D8B"/>
<path fill-rule="evenodd" clip-rule="evenodd" d="M286.065 403.391C286.839 400.051 297.927 405.845 294.227 410.063C292.985 411.478 289.738 410.197 288.489 409.358C286.019 407.697 285.965 406.164 286.065 403.391Z" fill="#2D3D8B"/>
<path fill-rule="evenodd" clip-rule="evenodd" d="M224.286 331.908C224.719 330.42 225.199 327.787 226.625 326.837C229.206 325.119 231.452 327.711 231.453 330.444C231.454 335.542 225.627 337.15 224.286 331.908Z" fill="#2D3D8B"/>
<path fill-rule="evenodd" clip-rule="evenodd" d="M196.805 391.511C199.684 392.168 206.094 399.138 202.377 401.981C198.799 404.717 194.04 393.593 196.805 391.511Z" fill="#2D3D8B"/>
<path fill-rule="evenodd" clip-rule="evenodd" d="M199.546 338.754C203.247 339.049 208.335 345.019 202.582 345.967C198.081 346.71 192.847 340.217 199.546 338.754Z" fill="#2D3D8B"/>
<path fill-rule="evenodd" clip-rule="evenodd" d="M233.057 366.226C233.985 363.112 243.165 366.449 242.649 369.877C242.375 371.7 238.622 372.128 236.649 371.647C233.744 370.936 232.99 369.039 233.057 366.226Z" fill="#2D3D8B"/>
<path fill-rule="evenodd" clip-rule="evenodd" d="M124.844 192.298C124.911 188.272 132.678 186.631 133.247 190.688C133.762 194.353 124.747 198.254 124.844 192.298Z" fill="#2D3D8B"/>
<path fill-rule="evenodd" clip-rule="evenodd" d="M230.49 407.709C231.05 405.685 231.292 403.248 233.831 402.982C236.738 402.676 236.652 404.896 236.31 407.197C235.38 413.457 231.829 413.769 230.49 407.709Z" fill="#2D3D8B"/>
<path fill-rule="evenodd" clip-rule="evenodd" d="M107.826 240.197C103.777 241.107 96.3605 233.34 100.894 231.673C104.088 230.497 107.826 237.854 107.826 240.197Z" fill="#2D3D8B"/>
<path fill-rule="evenodd" clip-rule="evenodd" d="M159.475 300.531C157.414 301.497 156.939 302.084 155.356 300.498C153.978 299.116 154.039 295.268 155.222 293.831C159.754 288.329 159.647 298.304 159.475 300.531Z" fill="#2D3D8B"/>
<path fill-rule="evenodd" clip-rule="evenodd" d="M176.289 289.371C178.438 289.643 184.824 295.677 181.499 298.074C177.424 301.012 175.118 291.81 176.289 289.371Z" fill="#2D3D8B"/>
<path fill-rule="evenodd" clip-rule="evenodd" d="M222.79 290.96C221.228 296.951 217.328 292.92 217.549 288.386C217.904 281.124 221.945 287.449 222.79 290.96Z" fill="#2D3D8B"/>
<path fill-rule="evenodd" clip-rule="evenodd" d="M246.501 387.19C249.144 388.279 252.732 398.342 248.957 398.882C244.716 399.487 246.128 389.285 246.501 387.19Z" fill="#2D3D8B"/>
<path fill-rule="evenodd" clip-rule="evenodd" d="M213.493 381.537C216.517 380.52 217.625 386.874 215.867 388.055C212 390.651 212.815 383.036 213.493 381.537Z" fill="#2D3D8B"/>
<path fill-rule="evenodd" clip-rule="evenodd" d="M184.819 364.223C184.78 365.067 184.742 365.91 184.702 366.748C184.74 365.904 184.779 365.063 184.819 364.223Z" fill="#2D3D8B"/>
<path fill-rule="evenodd" clip-rule="evenodd" d="M286.065 403.391C286.033 404.256 286.002 405.12 285.969 405.981C285.999 405.115 286.032 404.253 286.065 403.391Z" fill="#2D3D8B"/>
<path fill-rule="evenodd" clip-rule="evenodd" d="M233.057 366.226C233.04 366.96 233.022 367.693 233.003 368.423C233.02 367.687 233.039 366.957 233.057 366.226Z" fill="#2D3D8B"/>
<path fill-rule="evenodd" clip-rule="evenodd" d="M567.589 353.599C573.86 353.398 580.855 351.048 587.016 351.796C588.713 352.002 592.617 352.427 589.9 354.933C588.6 356.131 582.377 355.512 580.494 355.909C568.981 358.337 555.913 359.902 544.108 359.7C538.582 359.606 533.015 359.165 527.491 358.874C521.972 358.583 521.429 356.349 527.64 355.638C534.09 354.901 540.709 355.175 547.192 355.167C554.007 355.158 560.788 354.052 567.589 353.599Z" fill="#2D3D8B"/>
<path fill-rule="evenodd" clip-rule="evenodd" d="M581.355 338.553C580.752 340.264 580.222 344.192 577.909 344.45C574.67 344.81 574.134 339.272 574.253 337.246C574.398 334.801 575.281 330.739 578.333 331.587C580.91 332.301 581.168 336.596 581.355 338.553Z" fill="#2D3D8B"/>
<path fill-rule="evenodd" clip-rule="evenodd" d="M561.746 337.3C562.22 335.468 562.452 331.336 565.054 331.196C567.963 331.039 568.794 335.344 568.774 337.407C568.755 339.365 568.028 343.063 565.712 343.516C562.572 344.129 562.292 339.394 561.746 337.3Z" fill="#2D3D8B"/>
<path fill-rule="evenodd" clip-rule="evenodd" d="M529.09 340.587C528.148 342.79 527.524 345.823 524.608 344.322C522.353 343.16 522.039 338.477 522.464 336.332C522.905 334.111 523.838 331.562 526.401 332.561C529.357 333.714 529.059 338.162 529.09 340.587Z" fill="#2D3D8B"/>
<path fill-rule="evenodd" clip-rule="evenodd" d="M553.82 338.553C551.04 346.945 545.97 341.267 547.895 335.002C549.908 328.453 553.564 334.814 553.82 338.553Z" fill="#2D3D8B"/>
<path fill-rule="evenodd" clip-rule="evenodd" d="M540.276 338.968C539.504 340.446 538.683 343.634 536.602 343.298C534.051 342.886 533.969 337.997 534.249 336.176C534.493 334.582 535.212 331.926 537.347 331.96C540.433 332.01 540.226 337.056 540.276 338.968Z" fill="#2D3D8B"/>
<path fill-rule="evenodd" clip-rule="evenodd" d="M595.724 340.579C593.654 345.203 590.808 341.22 591.719 337.936C593.07 333.066 595.606 337.381 595.724 340.579Z" fill="#2D3D8B"/>
<path fill-rule="evenodd" clip-rule="evenodd" d="M545.047 355.174C542.788 355.165 540.527 355.157 538.268 355.149C540.529 354.723 542.79 354.557 545.047 355.174Z" fill="#2D3D8B"/>
<path fill-rule="evenodd" clip-rule="evenodd" d="M589.956 351.778C587.996 351.791 586.036 351.803 584.077 351.816C586.034 351.23 587.993 351.217 589.956 351.778Z" fill="#2D3D8B"/>
<path fill-rule="evenodd" clip-rule="evenodd" d="M567.589 353.599C566.02 353.704 564.452 353.809 562.884 353.914C564.453 353.809 566.021 353.704 567.589 353.599Z" fill="#2D3D8B"/>
<path fill-rule="evenodd" clip-rule="evenodd" d="M529.09 340.587C529.076 339.465 529.06 338.344 529.047 337.225C529.628 338.34 529.587 339.46 529.09 340.587Z" fill="#2D3D8B"/>
<path fill-rule="evenodd" clip-rule="evenodd" d="M541.386 359.676C542.296 359.685 543.206 359.692 544.108 359.701C543.195 359.692 542.291 359.685 541.386 359.676Z" fill="#2D3D8B"/>
<path fill-rule="evenodd" clip-rule="evenodd" d="M526.11 358.874C527.031 358.874 527.953 358.874 528.868 358.874C527.943 358.874 527.027 358.874 526.11 358.874Z" fill="#2D3D8B"/>
<path fill-rule="evenodd" clip-rule="evenodd" d="M533.664 355.27C532.383 355.375 531.102 355.48 529.821 355.585C531.103 355.48 532.383 355.375 533.664 355.27Z" fill="#2D3D8B"/>
<path fill-rule="evenodd" clip-rule="evenodd" d="M550.987 355.16C549.722 355.163 548.457 355.165 547.192 355.168C548.456 354.635 549.721 354.62 550.987 355.16Z" fill="#2D3D8B"/>
<path fill-rule="evenodd" clip-rule="evenodd" d="M540.277 338.968C540.245 337.8 540.214 336.631 540.185 335.463C540.216 336.633 540.246 337.801 540.277 338.968Z" fill="#2D3D8B"/>
<path fill-rule="evenodd" clip-rule="evenodd" d="M522.464 336.332C522.457 337.472 522.45 338.613 522.441 339.748C522.448 338.607 522.456 337.47 522.464 336.332Z" fill="#2D3D8B"/>
<path fill-rule="evenodd" clip-rule="evenodd" d="M574.777 353.174C573.659 353.276 572.541 353.376 571.424 353.477C572.542 353.376 573.66 353.276 574.777 353.174Z" fill="#2D3D8B"/>
<path fill-rule="evenodd" clip-rule="evenodd" d="M595.724 340.579C595.687 339.583 595.651 338.587 595.615 337.593C595.652 338.589 595.687 339.584 595.724 340.579Z" fill="#2D3D8B"/>
<path fill-rule="evenodd" clip-rule="evenodd" d="M548.145 359.71C548.923 359.695 549.701 359.68 550.472 359.667C549.691 359.682 548.918 359.696 548.145 359.71Z" fill="#2D3D8B"/>
<path fill-rule="evenodd" clip-rule="evenodd" d="M581.356 338.553C581.287 337.837 581.218 337.121 581.15 336.408C581.219 337.125 581.288 337.839 581.356 338.553Z" fill="#2D3D8B"/>
<path fill-rule="evenodd" clip-rule="evenodd" d="M553.82 338.553C553.77 337.818 553.719 337.083 553.669 336.35C553.72 337.085 553.77 337.819 553.82 338.553Z" fill="#2D3D8B"/>
<path fill-rule="evenodd" clip-rule="evenodd" d="M152.381 122.564C149.319 121.764 148.746 117.479 149.238 114.847C149.795 113.579 150.353 112.311 150.911 111.043C150.693 110.574 150.475 110.105 150.257 109.636C150.537 107.024 149.822 105.889 152.836 106.947C158.435 108.913 159.33 122.362 152.381 122.564Z" fill="#2D3D8B"/>
<path fill-rule="evenodd" clip-rule="evenodd" d="M197.7 114.279C200.222 114.081 204.803 117.007 202.292 119.837C200.737 121.59 195.611 120.761 193.52 121.127C190.747 121.613 187.855 122.277 189.355 118.14C190.533 114.891 194.741 114.194 197.7 114.279Z" fill="#2D3D8B"/>
<path fill-rule="evenodd" clip-rule="evenodd" d="M195.046 133.738C192.484 131.692 193.628 122.372 197.526 124.049C201.537 125.775 197.184 132.393 195.046 133.738Z" fill="#2D3D8B"/>
<path fill-rule="evenodd" clip-rule="evenodd" d="M149.238 114.847C149.238 115.828 149.237 116.809 149.236 117.785C148.7 116.803 148.717 115.825 149.238 114.847Z" fill="#2D3D8B"/>
<path fill-rule="evenodd" clip-rule="evenodd" d="M152.381 122.564C152.903 122.549 153.426 122.534 153.942 122.521C153.417 122.537 152.899 122.551 152.381 122.564Z" fill="#2D3D8B"/>
<path fill-rule="evenodd" clip-rule="evenodd" d="M468.71 390.958C468.471 395.197 463.9 392.063 464.224 389.227C464.813 384.081 467.735 389.167 468.71 390.958Z" fill="#2D3D8B"/>
</svg>
