<svg width="656" height="490" viewBox="0 0 656 490" fill="none" xmlns="http://www.w3.org/2000/svg">
<path fill-rule="evenodd" clip-rule="evenodd" d="M509.181 71.8828C509.413 73.8778 511.896 72.3542 512.128 73.4357C512.274 74.1152 509.718 75.8015 509.167 76.266C510.948 77.3366 513.221 74.87 514.556 73.8364C515.244 74.5809 515.477 74.972 514.845 75.8238C513.73 77.3276 513.781 75.3351 512.455 76.3814C513.008 77.3066 513.492 76.7764 514.193 76.5275C513.888 78.3076 514.572 77.1809 515.108 78.3083C515.543 79.2251 515.489 79.9027 515.619 80.9267C514.99 82.3686 514.361 83.8112 513.732 85.2531C512.975 86.9879 513.2 87.5455 511.349 86.9656C511.557 86.6057 512.942 84.8461 512.83 84.4135C512.702 83.919 510.808 83.2351 510.307 82.8197C509.427 82.0892 509.437 81.4626 508.875 80.6779C509.098 79.948 508.925 79.6066 508.354 79.6558L507.723 81.3472C507.776 82.5473 508.792 82.435 509.391 83.5815C510.31 85.3361 509.796 84.3006 509.045 85.7125C508.308 87.0995 508.226 88.8701 507.014 89.5674C507.666 89.8526 508.316 90.1378 508.967 90.4224C507.448 92.0863 510.609 91.276 511.131 91.1146C510.597 92.2471 510.062 93.3796 509.528 94.5121C507.925 93.6176 507.135 91.9217 506.068 90.5213L503.631 95.0397C504.439 94.9651 505.248 94.8911 506.055 94.8164C505.942 95.0289 504.907 96.4861 504.996 96.8102C505.357 98.1316 508.108 97.3864 507.804 99.1148C507.764 99.3361 505.299 101.816 504.876 102.055C506.115 102.61 506.675 102.38 506.231 103.838L504.506 102.797C504.016 103.675 503.448 104.532 503.136 105.492C503.196 106.121 503.084 106.716 502.798 107.279C502.459 107.782 502.077 108.252 501.653 108.687C501.316 109.571 501.208 114.394 501.614 115.181C502.518 114.015 504.54 116.073 501.128 116.073C499.633 116.073 499.734 115.763 499.162 117.072C498.713 118.102 498.47 119.001 499.744 119.1C498.786 120.982 498.991 122.431 498.905 124.437C498.834 126.061 498.378 127.676 498.039 129.27C498.342 128.835 498.646 128.401 498.949 127.967C499.766 129.705 499.143 131.168 498.755 133.028C497.907 131.911 497.803 133.904 497.078 133.698C495.598 133.277 496.706 132.967 496.105 131.999C495.583 131.161 495.638 130.92 494.674 130.408C493.396 129.728 491.156 129.703 489.711 129.463C487.28 129.058 484.846 128.957 482.387 128.85C473.182 128.452 464.009 128.35 454.806 128.855C446.338 129.319 437.666 130.503 429.363 132.107C420.523 133.815 411.877 135.389 403.316 138.278C401.662 138.836 400.006 140 398.352 140.409C396.783 140.798 395.211 140.793 393.575 141.359C389.658 142.716 385.606 143.744 381.659 145.039C377.406 146.434 372.803 147.598 368.755 149.529C366.997 150.368 365.401 151.506 363.643 152.356C361.988 153.156 359.204 153.887 358.33 155.736C357.989 156.457 358.047 156.979 358.259 157.727C358.683 159.226 359.019 159.064 360.173 158.962C361.778 158.821 363.856 157.575 365.415 157.085C369.683 155.744 374.002 154.67 378.342 153.595C386.136 151.665 393.961 148.248 401.653 146.911C406.214 146.119 410.536 143.964 415.122 143.15C416.129 142.972 419.042 141.539 419.867 142.034C420.086 142.165 420.622 143.737 420.811 144.113C421.488 145.463 422.265 146.767 423.175 147.976C425.916 151.621 429.594 154.557 432.876 157.699C436.625 161.288 439.883 165.247 443.343 169.099C443.643 168.752 443.943 168.404 444.243 168.057C443.927 170.49 445.754 172.244 447.247 173.896C449.02 175.858 450.446 177.703 451.843 179.941C452.99 181.775 454.458 183.382 455.754 185.054C457.028 186.698 457.876 188.683 459.049 190.456C461.74 194.527 464.389 198.677 467.104 202.693C468.382 204.583 469.391 206.711 470.403 208.863C471.206 210.571 473.621 214.063 473.621 215.72C473.448 216.532 475.212 221.414 473.326 219.113C473.025 219.578 472.724 220.042 472.422 220.507C472.938 220.291 473.453 220.075 473.97 219.86C472.404 221.274 475.328 221.456 475.393 222.246C475.132 222.497 474.872 222.748 474.611 222.999C474.166 223.914 473.586 224.032 472.875 223.355C472.09 223.402 471.933 222.965 471.058 223.256C471.893 224.557 472.97 223.735 473.393 225.533C473.766 227.117 472.585 227.457 471.339 228.394L471.261 228.452L471.234 228.546C470.962 229.356 470.191 229.011 469.333 228.835C467.279 228.413 465.01 227.604 463.011 226.982C458.688 225.638 454.333 224.505 449.864 223.586C439.668 221.487 429.553 221.586 419.264 220.923C419.535 219.798 419.537 219.897 419.216 219.2C419.628 220.094 417.142 218.927 419.015 220.901C414.234 221.68 409.07 221.094 404.222 221.354C404.448 220.852 404.966 220.276 404.481 219.913C402.186 223.223 394.515 221.804 390.723 222.278C388.497 222.556 386.297 223.09 384.078 223.442L383.144 223.588C382.364 223.712 381.586 223.847 380.824 224.053C379.844 224.316 378.21 225.399 377.281 225.147C378.641 222.412 377.072 224.78 376.858 224.811C376.212 224.906 375.1 225.123 374.172 225.123C375.23 220.886 377.045 216.982 377.776 212.618C378.232 209.897 379.484 205.516 376.787 203.587C375.31 202.531 372.888 202.302 371.177 201.943C369.301 201.549 366.024 201.565 364.393 200.508C363.118 199.682 362.849 198.922 361.18 198.291C359.255 197.562 358.367 196.838 356.422 197.427C357.213 196.439 358.321 195.718 356.768 194.708C356.132 194.295 354.884 194.851 354.661 193.948C353.508 194.76 353.782 195.416 353.473 196.529C353.501 197 353.626 197.449 353.847 197.875C353.237 198.12 352.627 198.365 352.017 198.61C352.404 197.571 351.266 198.19 351.039 197.679C350.701 196.916 350.902 195.75 350.902 194.921C349.644 195.317 348.329 195.807 347.779 197.113C346.239 196.197 346.851 196.135 347.64 194.761C346.347 194.456 346.074 195.12 345.877 196.188C345.195 195.977 344.512 195.767 343.83 195.557C345.368 195.546 345.737 194.348 345.774 193.047C345.175 193.241 344.577 193.435 343.979 193.629C343.856 194.259 343.733 194.889 343.61 195.518C342.668 196.315 340.217 194.877 339.422 194.465C336.649 193.031 335.635 192.617 336.026 189.359C336.352 186.628 337.076 183.884 337.237 181.139C337.415 178.09 337.058 174.829 336.79 171.79C336.271 165.908 335.435 160.111 335.142 154.205C334.984 151.008 334.807 147.809 334.681 144.609C334.581 142.066 333.701 139.268 336.882 139.042C336.493 137.811 337.658 136.387 338.86 135.712C339.28 134.757 339.74 134.672 340.239 135.457C340.673 135.593 341.076 135.529 341.449 135.264C343.2 134.868 345.301 132.389 346.873 131.496C348.415 130.62 351.776 129.346 352.877 127.871C353.942 126.444 352.331 126.605 352.657 125.297C353.101 123.509 354.719 126.076 354.967 126.434C355.507 125.892 357.572 124.876 357.548 124.089C357.042 123.999 356.537 123.909 356.031 123.819C356.583 123.501 357.81 122.55 358.453 122.424C359.545 122.21 359.135 121.934 360.011 123.136C360.315 122.665 361.056 121.118 361.52 120.804C361.741 120.654 363.056 120.555 363.332 120.458C364.764 119.953 364.619 118.842 365.671 118.314C366.182 118.058 366.81 118.451 367.238 118.265C367.923 117.966 367.925 116.947 368.546 116.578C369.083 116.258 370.446 116.524 371.087 116.291C372.15 115.904 372.104 115.543 372.897 114.836C374.009 113.845 375.033 113.989 376.273 113.238C377.557 112.46 377.36 110.707 378.525 110.373C380.082 109.927 380.48 111.397 381.327 109.945C381.517 109.618 380.654 109.131 381.195 108.608C381.863 107.963 382.14 108.732 382.446 109.233L383.503 107.244C385.197 108.17 384.485 106.976 385.778 106.341C386.352 106.059 386.825 106.616 387.453 106.275C387.916 106.025 387.996 105.48 388.328 105.143C388.966 104.494 389.319 103.603 390.308 103.294C389.951 103.405 392.88 103.321 392.619 103.196C392.334 102.779 392.049 102.362 391.763 101.944C393.297 101.944 394.636 102.096 396.119 101.637C396.644 101.475 397.465 101.225 397.902 100.892C399.102 99.9761 398.832 100.199 398.832 98.5176C400.488 99.569 402.596 99.2015 404.231 97.9823C405.084 97.3455 405.631 96.5837 406.567 96.0082C406.968 95.8009 407.377 95.6069 407.792 95.427C408.311 94.8911 408.831 94.886 409.353 95.4123C410.089 95.2152 410.081 95.0793 410.652 94.7226C410.816 94.3998 410.99 94.0827 411.177 93.772C411.79 93.7082 412.393 93.5978 412.99 93.4408C415.303 92.82 416.7 91.2799 418.848 92.6446C419.122 92.0863 419.397 91.5274 419.671 90.9685C420.585 92.3926 421.21 91.0323 422.423 90.4555C422.931 90.2137 423.592 90.1538 424.051 89.933L424.827 90.1161C425.047 89.4398 425.266 88.7635 425.484 88.0872C425.926 88.2588 427.678 89.1974 428.205 89.1476C428.96 89.0768 429.862 87.8026 430.593 87.5621C431.708 87.1953 431.309 87.6801 432.404 87.6878C433.247 87.6935 433.644 87.8129 434.372 87.1072C431.912 86.4698 435.016 86.1693 436.052 85.9537C437.668 85.6181 438.5 85.9766 439.622 84.7038H438.457C439.606 83.6606 439.219 84.0288 440.43 84.1308C440.811 84.1621 442.469 85.07 442.472 83.859C444.036 84.7784 444.053 84.7803 445.666 84.3656C446.38 84.1819 446.988 83.5841 447.772 83.57C448.538 83.5566 449.087 83.9018 449.77 83.8278C450.179 83.7844 451.61 83.2491 452.093 83.0736C452.86 82.7948 453.366 82.1995 454.099 81.9692C454.907 81.7147 455.934 82.0171 456.782 81.8314C459.304 81.2776 460.785 79.7719 463.515 80.5873C463.807 78.1494 466.853 78.6917 468.493 78.9431C469.634 79.1185 470.215 79.5792 471.397 79.0216C472.359 78.5679 472.907 77.8482 473.978 77.4858C474.799 77.2077 475.906 77.0054 476.764 76.8281C477.294 76.6609 477.836 76.6073 478.389 76.6679C478.945 76.7457 479.411 76.987 479.787 77.3908L479.856 77.4705C479.942 77.2693 481.234 76.3145 481.085 76.4325C482.05 75.6624 482.502 75.9565 483.095 74.4572L481.028 74.022C482.092 73.9506 482.892 73.8281 483.838 74.2409C484.493 74.5261 485.592 76.0375 486.248 76.0388C487.433 76.0401 487.848 74.3742 487.73 73.5072C488.725 75.8174 489.574 76.2022 491.807 75.0212C492.07 74.8821 492.333 74.7436 492.595 74.6045C493.127 74.0488 493.655 74.059 494.181 74.6358L495.117 75.1443C495.493 74.521 495.867 73.8983 496.244 73.2749C497.041 74.3698 497.798 74.4234 499.098 74.1675C499.994 73.9908 501.834 72.3708 502.495 72.3715C502.878 72.3715 503.367 73.303 504.006 73.4848C505.063 73.7872 506.707 73.0267 507.084 72.0174C507.284 72.4385 507.484 72.8602 507.684 73.2819C508.183 72.8162 508.685 72.3517 509.181 71.8828ZM471.227 228.445L471.225 228.48L471.261 228.452L471.262 228.451L471.227 228.445ZM469.929 226.247V228.209L470.595 228.33L471.227 228.445L471.234 228.337C471.262 227.394 470.777 226.695 469.929 226.247ZM411.067 218.441C410.859 219.077 410.652 219.713 410.444 220.348C411.144 220.405 411.843 220.462 412.543 220.519C412.051 219.826 411.559 219.134 411.067 218.441ZM328.915 168.169C330.445 168.614 330.424 168.56 330.731 169.971C332.478 178.004 327.073 187.217 331.041 194.853C319.44 194.759 307.815 194.99 296.282 196.346C296.282 191.972 296.426 187.607 296.094 183.24C295.944 181.257 295.72 179.282 295.517 177.305C295.26 174.796 295.342 174.942 297.401 174.51C298.482 174.283 298.869 173.599 299.903 173.183C300.679 172.869 301.027 173.255 301.792 173.362C303.16 173.555 303.177 173.326 304.431 173.059C307.122 172.487 309.407 172.691 311.534 170.687C312.636 170.592 312.279 171.61 313.047 171.51C313.606 171.438 313.961 170.398 314.531 170.149C316.304 169.376 319.254 169.564 321.194 169.323C323.175 169.076 324.928 168.185 326.825 167.921C327.606 167.812 328.175 167.953 328.915 168.169ZM351.294 191.352C350.92 192.741 349.277 190.933 349.252 192.022L349.253 192.122L349.257 192.097C349.343 191.911 351.004 194.103 350.906 194.031C351.799 194.701 352.319 194.638 353.33 193.868C351.52 193.8 351.719 192.686 351.294 191.352ZM356.338 193.315C356.999 193.677 357.201 192.75 357.544 192.184C356.805 191.817 356.697 192.671 356.338 193.315ZM354.293 187.272C354.551 188.174 354.532 188.866 354.532 189.797C356.06 189.582 356.541 189.471 356.569 187.849L355.752 188.362C355.323 187.515 355.229 187.449 354.293 187.272ZM342.467 188.782C342.813 188.56 343.159 188.337 343.505 188.115C342.995 187.382 342.087 188.253 342.467 188.782ZM346.332 175.303C346.773 175.072 347.216 174.841 347.657 174.61C346.511 173.153 346.427 173.642 346.332 175.303ZM344.735 163.74H342.997C343.338 164.854 344.735 165.094 344.735 163.74ZM514.953 98.9284C515.35 99.1594 515.747 99.3903 516.143 99.6206C515.112 100.558 513.845 101.503 514.849 102.601C515.646 103.474 519.371 103.89 520.486 104.207C520.099 104.651 519.302 105.865 518.774 106.171C518.355 106.412 517.974 105.455 517.131 106.409C518.529 107.132 518.154 106.584 517.791 108.118C517.576 109.024 516.809 109.996 516.378 110.808C515.325 112.784 514.249 114.747 513.145 116.695C510.882 120.69 508.498 124.618 505.994 128.468C505.572 126.294 506.779 123.857 507.406 121.759C508.194 119.119 508.983 116.48 509.776 113.842C511.307 108.758 512.681 103.728 514.953 98.9284ZM454.193 105.562C453.061 105.85 452.32 106.037 451.15 106.335C452.85 106.874 452.85 106.874 454.193 105.562ZM504.295 95.7626C502.852 96.4363 502.698 96.9257 503.865 97.75C504.004 97.1088 504.106 96.6386 504.295 95.7626ZM504.12 79.8191C503.924 80.6747 502.711 79.8516 502.442 80.4769C501.827 81.9073 503.783 81.7134 504.488 81.6272C504.366 81.0243 504.242 80.422 504.12 79.8191ZM512.298 78.7332C511.911 80.5624 511.911 80.5624 513.7 80.8374C513.23 80.133 512.837 79.5422 512.298 78.7332ZM479.856 77.4705L479.853 77.49C479.855 77.5011 479.866 77.5065 479.887 77.505L479.856 77.4705Z" fill="#7FBBCA"/>
<path fill-rule="evenodd" clip-rule="evenodd" d="M253.695 269.063C253.424 270.456 252.746 271.112 253.456 272.391C254.06 273.478 255.789 274.189 256.95 273.914L253.695 269.063ZM222.24 219.523L216.513 221.481C218.078 223.013 219.57 224.624 221.296 225.984L222.24 219.523ZM316.706 224.538C313.975 223.165 310.915 223.01 307.921 222.834C308.375 225.286 308.832 227.738 309.288 230.19C311.76 228.306 314.234 226.422 316.706 224.538ZM251.118 414.346C250.573 413.383 246.856 405.945 246.083 406.327C245.673 406.529 245.641 410.671 245.581 411.259C245.368 413.355 245.154 415.449 244.941 417.545C247.14 416.77 249.489 416.128 251.118 414.346ZM225.143 354.21C225.705 355.854 226.268 357.498 226.83 359.142C227.097 359.924 227.254 361.077 227.728 361.766C228.342 362.661 227.879 363.187 228.699 362.208C229.581 361.156 229.844 358.35 230.227 357.061C230.808 355.103 231.389 353.146 231.97 351.189C229.231 351.166 227.571 353.415 225.143 354.21ZM167.596 257.397C164.229 259.692 160.82 261.97 157.891 264.823C160.468 264.663 164.057 266.431 166.484 265.601C167.605 265.839 167.975 265.415 167.596 264.326V262.065V257.397ZM217.524 273.636V287.039C220.668 284.367 223.977 281.885 227.002 279.075C223.843 277.262 220.684 275.449 217.524 273.636ZM329.915 308.364C328.923 314.331 328.868 320.471 328.596 326.509C328.548 327.581 328.134 329.195 328.85 330.133C329.568 331.074 331.615 331.596 332.655 332.098C335.581 333.513 338.488 334.969 341.406 336.401C337.576 327.055 333.746 317.71 329.915 308.364ZM404.214 271.669C411.433 268.13 418.653 264.59 425.873 261.05C418.794 258.06 411.715 255.072 404.637 252.083C404.496 258.612 404.354 265.141 404.214 271.669ZM329.9 288.335C331.219 288.43 331.428 283.417 331.646 282.091C332.062 279.574 332.488 277.06 332.925 274.547C333.799 269.523 334.718 264.507 335.685 259.5C337.619 249.489 339.753 239.514 342.117 229.595C339.576 229.138 337.242 228.81 334.761 228.072C332.757 227.476 330.37 227.8 328.581 226.561C328.349 231.209 329.512 236.151 329.943 240.799C330.442 246.177 330.71 251.526 330.665 256.929C330.578 267.398 330.18 277.87 329.9 288.335ZM163.725 430.179C164.976 429.847 163.272 412.74 163.196 410.272C162.979 403.13 162.936 395.982 163.064 388.837C156.324 393.053 149.426 396.937 142.305 400.439C144.135 402.806 145.85 405.36 147.875 407.563C149.962 409.833 152.356 411.693 154.289 414.137C158.182 419.059 160.849 424.647 163.725 430.179ZM325.937 328.978C326.25 323.832 326.541 318.697 327.062 313.567C327.284 311.384 329.399 299.783 326.012 300.055C324.085 300.21 320.706 303.022 318.939 304.008C316.605 305.31 314.269 306.607 311.924 307.889C307.296 310.418 302.638 312.891 297.994 315.39C307.309 319.92 316.623 324.449 325.937 328.978ZM305.827 221.982C301.969 221.695 298.24 221.409 294.434 220.693C292.382 220.306 290.33 220.36 288.267 220.099C286.79 219.912 283.902 218.702 282.525 219.098C280.795 219.595 280.167 228.241 279.929 230.411C279.546 233.906 279.288 238.147 280.853 241.43C283.87 247.759 291.998 242.819 295.952 240.164C299.342 237.887 303.182 235.582 306.188 232.819C308.851 230.371 306.461 225.146 305.827 221.982ZM325.834 290.809C328.741 289.636 328.695 288.164 328.821 285.13C328.975 281.445 329.064 277.755 329.17 274.068C329.358 267.498 329.536 260.925 329.477 254.35C329.42 247.929 329.105 241.517 328.368 235.135C328.107 232.878 328.367 229.024 327.174 227.099C326.086 225.343 322.709 225.325 320.866 225.433C318.788 225.555 317.105 227.523 315.572 228.768C313.873 230.146 310.384 232.087 310.106 234.143C309.794 236.439 311.058 239.714 311.548 241.941C313.34 250.067 315.52 258.114 317.816 266.111C320.199 274.408 322.613 282.788 325.834 290.809ZM251.985 271.357C252.173 269.531 252.854 268.006 251.933 266.267C251.141 264.771 249.853 263.269 248.885 261.853C246.116 257.798 243.009 253.913 239.992 250.039C237.229 246.491 234.397 242.981 231.501 239.54C229.888 237.624 228.225 235.749 226.572 233.867C225.361 232.49 224.213 230.554 222.501 229.833C221.239 237.743 220.196 245.687 219.382 253.655C218.99 257.507 218.651 261.364 218.366 265.225C218.285 266.315 217.438 269.996 217.98 271.011C218.55 272.077 222.033 273.504 223.099 274.157C226.08 275.984 228.396 278.737 231.231 275.734C233.183 273.665 234.754 270.749 236.936 268.944C238.072 268.004 239.143 268.048 240.417 267.49C241.899 266.842 241.946 266.217 243.717 267.099C246.702 268.585 248.514 270.781 251.985 271.357ZM102.59 312.053C102.59 317.529 102.215 322.031 105.937 326.464C109.189 330.338 112.568 331.234 117.142 332.763C119.836 333.663 120.024 332.833 122.207 331.314C124.281 329.87 126.54 328.712 128.585 327.223C132.995 324.014 137.401 320.704 141.686 317.328C143.126 316.193 142.914 316.58 142.695 315.218C142.495 313.977 141.602 312.397 141.114 311.217C140.231 309.082 139.191 307.015 138.15 304.952C136.969 302.612 135.94 300.07 134.472 297.888C133.863 296.983 133.141 296.164 132.43 295.338C130.934 293.599 130.987 293.664 129.198 295.085C125.42 298.085 121.906 301.334 117.655 303.68C112.625 306.456 107.607 309.251 102.59 312.053ZM216.483 269.634C217.029 261.772 217.644 253.954 218.589 246.128C219.075 242.11 219.64 238.103 220.189 234.093C220.413 232.46 221.276 229.72 220.795 228.133C220.323 226.572 218.236 225.086 217.091 223.957C216.783 223.653 215.837 222.379 215.43 222.322C214.995 222.261 213.355 223.459 212.883 223.729C211.211 224.685 209.569 225.69 207.951 226.737C204.904 228.709 201.951 230.825 199.062 233.021C193.003 237.624 187.225 242.578 181.294 247.342C186.728 252.092 193.416 255.78 199.49 259.627C203.082 261.901 206.693 264.151 210.35 266.32C212.204 267.418 214.355 269.098 216.483 269.634ZM142.209 410.217C137.821 413.11 133.631 416.165 128.669 418.021C123.73 419.87 118.848 420.582 113.742 421.68C111.168 422.235 108.748 422.841 106.12 423.229C104.648 423.446 102.368 423.362 101.026 423.982C99.8302 423.728 99.4042 424.135 99.749 425.202C99.7618 425.534 99.7746 425.866 99.7874 426.197C100.126 430.812 103.1 436.366 105.693 440.117C107.208 442.308 109.137 444.347 111.054 446.188C113.219 448.267 114.467 449.733 117.484 448.862C122.57 447.394 127.059 444.438 132.214 443.134C136.292 442.103 139.679 439.942 143.655 438.824C148.56 437.444 153.413 435.872 158.385 434.72C156.164 430.444 154.178 425.992 151.335 422.075C148.418 418.056 145.203 414.193 142.209 410.217ZM169.118 266.332C178.293 268.153 188.238 269.84 196.45 274.564C199.655 276.408 203.717 279.258 204.656 283.071C205.778 287.63 201.367 290.453 197.682 291.876C193.258 293.584 188.443 294.238 183.755 294.777C181.274 295.062 178.781 295.217 176.288 295.358C174.271 295.473 170.849 295.031 169.005 295.829C167.85 295.599 167.449 296.066 167.804 297.23C167.782 297.648 167.761 298.067 167.74 298.485L167.548 302.243C167.421 304.745 167.294 307.248 167.166 309.75C166.889 315.202 166.611 320.653 166.334 326.105C171.14 323.135 175.013 318.882 179.711 315.714C181.944 314.208 184.161 312.698 186.385 311.197C187.318 310.568 187.887 309.685 188.805 309.099C190.023 308.321 191.102 307.853 192.244 306.835C196.907 302.675 202.093 299.079 207.039 295.26C209.285 293.525 211.745 291.93 213.882 290.069C216.121 288.119 215.812 286.514 215.757 283.711C215.699 280.743 216.791 277.059 216.284 274.197C216.71 273.226 216.383 272.622 215.305 272.385C214.585 271.925 213.865 271.466 213.145 271.007C211.709 270.09 210.273 269.174 208.837 268.259C203.124 264.615 197.412 260.97 191.699 257.327C188.845 255.506 185.992 253.686 183.137 251.866C182.34 251.358 179.741 249.061 178.846 249.129C177.934 249.198 176.352 250.974 175.668 251.539C174.619 252.406 173.6 253.317 172.467 254.076C171.902 254.466 171.312 254.815 170.698 255.122C169.716 255.216 169.375 255.754 169.674 256.735C168.812 259.493 169.286 263.434 169.118 266.332ZM296.356 396.39C294.278 386.701 291.599 375.229 283.495 368.639C275.276 361.955 263.259 364.538 256.83 372.387C253.61 376.318 251.614 380.966 250.131 385.783C248.608 390.726 246.365 397.167 246.776 402.395C246.955 404.687 248.924 407.15 250.05 409.149C251.211 411.215 251.981 414.176 254.718 413.461C258.961 412.351 263.276 409.804 267.246 407.981C271.262 406.137 275.491 404.62 279.655 402.838C282.42 401.656 285.29 400.756 288.047 399.557C290.662 398.421 294.113 398.146 296.356 396.39ZM419.129 338.685C424.924 340.754 427.937 337.442 432.014 333.714C435.877 330.182 440.063 326.785 443.62 322.946C447.289 318.988 450.19 314.31 453.01 309.738C455.862 305.117 459.717 300.126 461.473 294.98C462.366 292.362 462.747 289.462 463.31 286.756C463.445 286.105 464.354 283.681 464.066 283.133C463.668 282.379 461.137 282.299 460.443 282.19C454.913 281.318 449.053 281.274 443.506 282.054C432.774 283.562 423.799 289.565 420.407 300.062C416.431 312.367 418.341 326.043 419.129 338.685ZM381.553 231.956C381.463 234.086 386.583 234.678 387.91 235.175C390.977 236.322 394.026 237.534 397.004 238.892C403.136 241.688 409.676 243.509 415.548 246.889C428.207 254.176 441.949 259.313 454.737 266.283C456.729 267.369 460.623 269.986 462.899 269.764C464.109 269.647 463.207 270.618 463.992 268.7C464.274 268.01 464.368 267.112 464.526 266.373C465 264.157 465.367 261.92 465.899 259.717C466.775 256.09 467.669 252.725 468.038 248.997C468.195 247.417 468.366 245.839 468.385 244.25C468.404 242.64 468.776 238.605 468.047 237.211C467.564 236.287 467.467 236.604 466.259 236.343C465.567 236.194 464.841 235.883 464.174 235.675C462.607 235.189 461.04 234.722 459.397 234.579C457.774 234.438 456.738 233.945 455.217 233.659C453.62 233.359 451.98 233.723 450.353 233.305C448.597 232.852 447.759 232.439 445.925 232.612C444.146 232.779 443.634 232.386 441.892 231.903C440.438 231.5 438.706 231.782 437.191 231.659C435.357 231.51 433.529 231.281 431.693 231.137C423.442 230.485 415.092 231.451 406.821 231.375C402.323 231.333 397.923 231.995 393.431 231.791C389.506 231.612 385.449 231.654 381.553 231.956ZM403.019 275.334C399.006 276.859 395.283 279.336 391.562 281.469C387.27 283.928 383.163 286.542 379.191 289.491C372.513 294.451 364.721 300.398 362.963 309.053C361.16 317.936 368.894 325.213 376.144 328.848C384.413 332.992 394.033 335.135 403.091 336.718C402.123 316.27 402.35 295.788 403.019 275.334ZM282.933 323.474C280.497 324.145 278.436 325.583 276.176 326.646C274.153 327.599 272.195 328.317 270.305 329.544C267.225 331.543 263.654 333.254 260.434 334.8C252.466 338.623 244.731 343.372 236.842 347.61C234.752 348.733 234.067 349.443 233.359 351.755C232.59 354.266 231.865 356.795 231.124 359.315C230.433 361.665 229.331 364.179 229.621 366.66C229.874 368.818 230.994 370.854 231.837 372.823C233.962 377.778 236.266 382.654 238.646 387.491C240.782 391.833 242.731 396.44 245.473 400.432C247.603 389.347 249.515 376.926 257.775 368.48C266.029 360.039 279.197 359.92 287.151 368.633C290.929 372.771 293.229 377.984 295.036 383.222C295.986 385.973 296.623 388.777 297.234 391.619C297.887 394.655 297.726 396.266 301.084 395.346C303.751 394.615 306.579 394.032 309.193 393.199C310.549 392.767 311.872 392.281 311.933 391.213C312.011 389.863 310.19 387.1 309.652 385.831C306.874 379.277 304.095 372.724 301.316 366.171C298.299 359.055 295.281 351.939 292.262 344.824C290.756 341.273 289.25 337.723 287.743 334.173C286.369 330.937 285.225 326.132 282.933 323.474ZM403.245 268.137C403.29 264.901 403.344 261.666 403.386 258.43C403.412 256.502 404.273 252.773 402.59 251.396C401.546 250.542 398.449 249.887 397.129 249.303C394.523 248.151 391.702 247.636 389.082 246.492C378.817 242.007 368.136 238.272 357.568 234.658C355.289 233.878 352.96 233.24 350.666 232.473C349.428 232.059 344.841 229.625 343.695 230.262C342.691 230.819 341.935 237.454 341.613 238.832C340.853 242.093 340.126 245.363 339.427 248.639C336.714 261.356 334.439 274.162 332.323 286.99C337.944 284.861 343.332 281.172 348.643 278.32C354.161 275.358 359.659 272.402 365.214 269.508C366.781 268.691 372.297 264.936 373.588 266.41C375.659 268.775 370.725 271.549 369.43 272.562C364.42 276.481 359.127 279.898 353.769 283.316C348.217 286.86 342.44 289.99 336.859 293.469C334.845 294.724 331.629 296.253 330.838 298.374C329.819 301.102 330.554 304.418 331.482 307.024C333.759 313.429 336.253 319.755 338.89 326.021C340.09 328.869 341.32 331.705 342.573 334.53C344.065 337.895 346.023 338.607 349.275 340.155C363.126 346.752 377.514 353.013 390.818 360.647C388.592 363.207 383.165 359.004 380.967 357.939C376.898 355.968 372.824 354.003 368.758 352.026C361.182 348.342 353.645 344.586 346.027 340.991C350.909 352.068 356.671 362.74 363.06 373.022C361.447 373.566 361.841 373.595 360.828 372.627C359.975 371.813 359.403 370.216 358.825 369.193C357.631 367.079 356.453 364.957 355.249 362.848C352.753 358.472 350.167 354.162 347.887 349.667C346.173 346.287 344.845 340.377 341.322 338.673C336.932 336.548 332.483 334.481 328.093 332.326C328.093 349.167 329.307 365.633 331.088 382.37C331.178 383.214 331.989 385.705 330.353 385.461C329.616 385.351 329.367 380.733 329.238 379.769C328.643 375.348 328.138 370.916 327.726 366.475C326.904 357.614 326.456 348.717 326.399 339.818C325.345 348.47 324.292 357.122 323.238 365.774L321.741 378.073C321.479 380.227 321.216 382.38 320.954 384.533C320.834 385.523 320.91 386.816 320.561 387.76C320.013 389.245 320.197 389.131 318.478 389.808C320.122 378.541 321.64 367.255 322.982 355.949C323.638 350.432 324.252 344.91 324.818 339.384C324.97 337.898 325.12 336.411 325.265 334.924C325.339 334.166 325.995 331.729 325.631 331.099C325.271 330.475 322.883 329.824 322.195 329.506C320.69 328.809 319.185 328.113 317.681 327.413C312.799 325.137 307.921 322.842 303.092 320.456C300.98 319.411 298.765 317.798 296.468 317.241C294.181 316.686 292.518 318.274 290.563 319.283C289.041 320.068 285.455 321.114 284.439 322.448C283.493 323.69 286.431 328.659 287.203 330.49C289.38 335.658 291.557 340.827 293.735 345.995C298.149 356.474 302.564 366.953 306.979 377.432C308.058 379.993 309.137 382.555 310.216 385.117C310.908 386.758 312.063 391.436 313.74 391.619C314.483 391.7 315.702 390.894 316.42 390.663C317.491 390.318 318.48 390.323 319.554 390.141C321.523 389.808 323.568 388.795 325.501 388.084C330.471 386.257 335.623 385.077 340.633 383.37C345.666 381.656 350.617 379.73 355.63 378.015C360.183 376.458 364.777 374.684 369.151 372.656C373.77 370.514 378.508 368.626 383.009 366.251C391.207 361.926 399.316 357.886 406.559 352.582C408.262 351.335 410.076 350.082 411.761 348.747C413.238 347.575 416.057 346.128 417.062 344.587C417.445 343.999 417.775 342.847 417.327 342.15C416.847 341.401 414.719 341.469 413.725 341.336C410.59 340.916 407.456 340.495 404.321 340.075C404.562 342.132 404.805 344.186 404.979 346.25C405.102 347.707 405.965 351.557 404.801 352.698C403.2 351.181 403.715 346.644 403.571 344.623C403.495 343.542 403.77 341.428 403.286 340.47C402.754 339.42 401.285 339.434 399.954 339.146C394.31 337.928 388.716 336.906 383.254 334.976C374.027 331.717 362.997 326.213 360.936 315.596C358.787 304.528 368.229 294.939 376.178 288.766C380.938 285.07 386.002 281.871 391.239 278.9C393.687 277.512 396.133 276.124 398.596 274.766C399.492 274.272 402.434 273.254 402.907 272.39C403.39 271.507 403.143 269.143 403.245 268.137ZM205.83 438.109C205.383 438.327 204.934 438.545 204.487 438.763C209.467 424.609 214.401 410.518 218.564 396.098C220.574 389.137 222.61 382.184 224.688 375.244C225.586 372.25 227.79 368.127 227.177 365.026C226.515 361.669 224.926 358.099 223.696 354.907C215.826 359.841 207.792 364.522 199.79 369.233C192.618 373.457 185.324 377.214 178.101 381.394C174.399 383.535 170.581 384.981 166.718 386.731C163.579 388.153 164.798 392.5 164.843 395.403C165.002 405.655 164.994 415.943 165.618 426.18C165.845 429.909 165.552 434.191 167.932 437.295C170.976 441.264 173.8 445.309 176.576 449.487C177.616 451.052 181.986 459.526 183.615 459.34C184.679 459.219 185.658 455.788 186.19 454.975C187.337 453.221 189.014 451.712 190.54 450.3C197.131 444.2 204.445 439.904 212.047 435.446C219.769 430.917 227.673 426.702 235.541 422.408C237.319 421.437 239.233 420.737 240.999 419.746C241.697 419.354 243.081 418.732 243.52 418.032C244.177 416.984 243.955 414.082 244.092 412.83C244.372 410.271 244.875 407.613 244.902 405.036C244.928 402.49 243.394 400.302 242.281 398.082C237.398 388.335 232.654 378.563 228.405 368.52C225.055 380.182 221.538 391.789 218.252 403.468C216.536 409.566 214.468 415.565 212.455 421.569C211.427 424.636 210.392 427.701 209.366 430.768C208.566 433.157 208.151 436.655 205.83 438.109ZM275.965 218.332C273.376 218.36 271.03 217.981 268.498 217.441C267.569 217.244 266.753 217.161 265.811 217.078C264.743 216.984 263.774 216.407 262.838 216.294C262.13 216.209 260.895 216.505 260.22 216.731C258.654 217.255 258.704 216.99 258.638 218.804C258.536 221.605 258.459 224.407 258.305 227.206C257.698 238.224 256.525 249.135 254.917 260.047C254.592 262.252 253.681 265.145 254.182 267.335C254.633 269.31 256.344 271.419 257.474 273.076C259.798 276.482 265.271 278.165 269.121 279.131C273.181 280.15 277.396 280.525 281.253 281.434C282.322 281.686 283.549 281.242 284.688 281.494C285.742 281.728 286.56 282.305 287.534 282.722C289.919 283.743 292.584 283.932 295.047 284.72C299.932 286.284 305.162 286.19 310.051 287.692C311.301 288.075 312.38 289.043 313.583 289.374C314.683 289.676 315.815 289.32 316.966 289.489C319.404 289.847 321.677 290.679 322.24 293.289C323.731 292.112 323.938 292.422 323.68 290.601C323.515 289.433 322.863 288.012 322.506 286.886C321.597 284.016 320.682 281.148 319.773 278.279C317.975 272.6 316.188 266.916 314.53 261.195C313.047 256.077 311.699 250.921 310.52 245.725C309.921 243.083 309.42 240.429 308.906 237.773C308.757 237.003 308.905 235.778 308.129 235.265C307.424 234.799 305.78 236.469 305.036 237.006C299.84 240.76 287.923 251.864 281.426 245.314C277.928 241.787 278.132 235.586 278.512 231.029C278.745 228.229 279.238 225.464 279.79 222.71C279.927 222.023 280.77 219.816 280.461 219.326C280.128 218.8 276.66 218.486 275.965 218.332ZM458.539 279.617C459.923 279.771 461.305 279.926 462.688 280.081C462.561 278.966 462.675 277.29 462.252 276.252C461.667 274.817 460.235 274.657 458.659 274.063C456.167 273.123 453.626 272.306 451.161 271.294C445.812 269.098 440.488 266.871 435.136 264.676C432.79 263.713 430.034 262.138 427.487 262.924C424.74 263.773 422.029 265.5 419.462 266.766C416.554 268.199 413.648 269.635 410.743 271.071C409.38 271.745 408.017 272.418 406.655 273.092C404.514 274.149 404.229 274.257 404.06 276.673C403.2 289.033 403.264 301.872 403.639 314.248C403.831 320.564 403.616 326.914 404.07 333.219C404.105 333.704 404.068 336.441 404.373 336.814C404.802 337.34 407.819 337.517 408.54 337.649C411.35 338.161 414.181 338.332 417.021 338.585C416.352 324.209 413.895 307.214 421.296 294.065C428.731 280.854 444.623 277.992 458.539 279.617ZM329.29 138.187C330.123 136.293 331.559 134.694 332.785 133.033C333.449 132.134 334.596 131.06 335.021 130.01C335.626 128.514 335.622 128.834 334.719 127.525C333.865 126.287 333.882 126.194 332.562 125.972C331.45 125.786 330.266 126.102 329.131 125.9C327.983 125.694 324.827 124.729 325.551 122.907C325.519 122.987 327.345 122.089 327.487 121.934C327.946 121.435 328.091 120.373 328.317 119.771C329.046 117.84 329.302 116.59 328.49 114.534C327.276 111.465 322.477 110.556 319.49 111.589C317.996 112.105 317.145 113.198 316.474 114.573C316.047 115.446 315.948 116.707 315.397 117.467C314.565 118.611 314.514 118.484 312.79 118.282C310.595 118.024 308.795 117.184 306.716 116.597C304.45 115.958 302.977 117.258 300.998 118.306C297.425 120.2 293.974 120.857 289.971 121.158C285.514 121.493 281.383 120.421 276.97 120.145C278.115 125.405 281.076 129.676 283.443 134.439C283.859 135.277 284.531 136.133 284.547 137.103C284.564 138.016 283.238 139.258 283.387 140.013C283.707 141.625 287.262 142.915 288.61 143.369C292.42 144.65 296.759 147.16 300.953 146.152C303.252 145.599 304.489 141.978 306.653 141.712C309.556 141.353 307.385 145.082 306.845 146.364C310.966 146.989 316.188 146.459 320.131 145.066C322.108 144.368 323.783 143.326 325.586 142.293C327.833 141.007 328.3 140.653 329.29 138.187ZM257.189 216.478C249.844 216.6 242.391 215.545 235.029 216.514C233.323 216.738 231.64 217.099 229.964 217.484C228.76 217.76 224.934 217.993 224.131 218.887C223.399 219.701 223.394 223.452 223.243 224.509C222.907 226.864 222.997 227.677 224.502 229.497C229.454 235.487 234.612 241.298 239.492 247.354C244.179 253.171 248.027 259.671 252.765 265.407C255.295 258.06 255.447 249.243 256.142 241.54C256.512 237.432 256.849 233.321 257.166 229.21C257.467 225.294 258.492 220.212 257.189 216.478ZM162.115 293.906C162.965 293.906 164.319 294.172 165.145 293.906C166.281 294.267 166.66 293.842 166.285 292.632C166.302 292.209 166.32 291.786 166.339 291.362C166.457 288.633 166.588 285.905 166.714 283.176C166.831 280.681 166.944 278.186 167.043 275.691C167.11 273.987 167.973 269.764 167.283 268.226C166.819 267.192 165.721 267.427 164.385 267.275C163.114 267.132 161.839 266.999 160.575 266.803C158.97 266.553 157.192 265.98 155.56 266.339C153.92 266.699 152.727 268.209 151.44 269.17C149.404 270.689 147.323 272.152 145.269 273.648C141.536 276.367 137.84 279.136 134.138 281.897C132.61 283.036 132.316 282.641 133.061 284.279C133.522 285.291 134.571 286.436 135.209 287.351C136.48 289.172 137.746 291.932 139.377 293.409C141.749 295.559 148.332 294.194 151.484 294.179C155.077 294.161 158.542 294.216 162.115 293.906ZM171.417 293.728C174.534 293.424 177.682 293.555 180.779 293.138C184.147 292.683 187.49 292.01 190.85 291.505C194.201 291.003 204.394 288.971 203.388 283.983C202.325 278.71 194.522 275.552 190.204 273.779C183.46 271.011 176.42 269.529 169.327 267.964C168.437 272.69 168.565 277.764 168.402 282.554C168.314 285.155 168.237 287.76 168.238 290.363C168.238 290.99 168.022 292.29 168.279 292.873C168.882 294.244 169.583 293.728 171.417 293.728ZM161.168 295.993H141.277C144.221 302.071 147.003 308.262 150.177 314.225C153.338 320.165 157.407 325.762 160.993 331.463C161.901 330.478 163.35 329.408 163.968 328.235C164.651 326.937 164.632 325.028 164.744 323.525C165.035 319.626 165.167 315.692 165.266 311.783C165.352 308.36 165.503 304.96 165.766 301.545C165.824 300.796 166.652 296.906 166.178 296.267C165.755 295.698 162.038 295.999 161.168 295.993ZM243.088 176.659C246.444 176.659 249.803 176.616 253.158 176.673C256.203 176.724 260.17 176.195 262.959 177.759C268.642 180.944 257.283 189.124 254.979 191.183C258.704 192.529 264.516 189.857 268.163 188.633C272.671 187.12 277.268 186.103 281.867 184.918C283.016 184.622 287.948 184.042 288.571 183.164C289.189 182.293 287.804 177.039 287.665 175.931C287.536 174.889 287.645 173.264 287.21 172.284C287.477 171.107 287.062 170.694 285.966 171.048C285.588 171.047 285.21 171.045 284.832 171.043C282.034 171.066 279.233 171.195 276.437 171.288C266.827 171.607 257.45 172.032 247.921 173.528C243.492 174.224 239.023 175.079 234.616 175.933C230.907 176.652 231.531 177.254 234.995 177.263C237.705 177.27 240.392 176.869 243.088 176.659ZM518.773 106.171C519.344 105.517 519.916 104.862 520.486 104.207C519.095 103.811 517.704 103.414 516.312 103.018C514.833 102.597 514.036 102.693 514.695 101.045C515.519 98.9795 519.282 98.7428 521.091 98.665C527.32 98.3964 533.862 100.373 539.779 102.114C542.666 102.964 544.929 104.279 547.372 106.028C548.439 106.791 549.67 107.509 550.603 108.426C551.573 109.379 551.977 110.6 552.925 111.556C554.48 113.123 556.47 113.903 557.232 116.165C558.107 118.761 557.063 121.733 555.767 123.997C554.453 126.294 552.502 128.032 550.917 130.119C549.658 131.776 547.031 136.301 551.137 135.777C553.308 135.499 556.124 131.806 557.686 130.335C559.926 128.225 562.129 126.067 564.501 124.102C566.604 122.359 569.027 120.573 571.84 120.266C574.804 119.944 576.285 121.836 577.73 124.137C579.092 126.308 579.311 128.427 580.269 130.648C580.732 131.72 581.32 132.317 581.592 133.484C582.01 135.28 582.053 137.24 582.266 139.071C582.602 141.946 582.917 144.208 582.358 147.025C581.835 149.662 581.693 152.463 581.252 155.146C580.753 158.184 580.338 161.236 579.846 164.276C579.429 166.851 577.845 170.518 579.399 172.913C583.134 178.667 587.614 170.196 588.794 167.031C590.867 161.47 591.923 155.391 593.753 149.716C594.733 146.681 595.588 143.617 596.15 140.475C596.615 137.876 596.386 134.711 597.814 132.396C598.923 130.598 600.897 129.233 603.064 129.781C605.775 130.468 606.816 134.377 607.614 136.753C609.719 143.02 608.945 148.663 608.087 155.055C607.691 158.014 607.312 160.977 606.631 163.887C606.171 165.85 604.267 169.824 607.098 170.891C611.112 172.406 615.366 160.92 616.51 158.327C619.505 151.534 620.652 144.797 621.886 137.519C622.17 135.845 622.387 134.136 622.811 132.491C623.18 131.059 624.283 129.612 624.382 128.18C624.481 126.747 623.53 125.748 624.505 124.341C625.316 123.17 626.781 123.099 628.105 123.089C631.215 123.065 634.191 124.427 637.084 125.415C639.777 126.335 643.76 128.352 646.662 127.703C637.554 118.479 628.469 109.359 617.605 102.176C612.561 98.8398 607.512 95.6337 602.06 92.9132C596.537 90.1576 590.208 88.2965 584.293 86.6293C581.076 85.7221 577.877 84.6942 574.7 83.6536C571.872 82.7272 569.026 82.5517 566.257 81.5009C560.241 79.2187 553.518 78.3344 547.289 76.7164C544.539 76.0025 541.758 75.39 539.001 74.7283C536.103 74.0329 532.032 72.8251 529.08 72.9425C526.559 73.0427 525.708 75.9246 524.495 77.9293C522.734 80.8393 521.233 83.8629 519.848 86.9668C517.012 93.3266 514.017 99.897 511.988 106.541C510.875 110.19 509.774 113.842 508.68 117.496C507.733 120.659 505.364 125.222 505.994 128.468C510.659 121.297 515.003 113.85 518.773 106.171ZM301.583 170.92C299.109 171.032 296.633 171.143 294.158 171.256C296.626 179.346 296.282 187.96 296.282 196.346C307.814 194.99 319.44 194.759 331.041 194.853C328.91 190.752 329.736 185.431 330.343 181.04C330.699 178.469 330.897 175.993 330.845 173.4C330.797 170.967 331.5 168.921 328.915 168.169C326.865 167.572 325.569 168.567 323.616 169.02C321.277 169.563 318.729 169.629 316.348 169.924C311.391 170.539 306.611 170.899 301.583 170.92ZM235.129 186.675C242.561 184.618 250.459 185.376 257.928 183.813C256.229 182.267 253.028 183.183 250.772 183.312C248.207 183.457 245.644 183.564 243.079 183.688C240.577 183.81 233.638 183.621 232.736 186.796C233.533 186.756 234.331 186.715 235.129 186.675ZM507.079 72.0352C497.353 72.8864 487.168 72.7543 477.512 74.447C466.454 76.3853 454.928 77.6013 444.206 81.0173C433.689 84.3688 422.963 86.7148 412.595 90.6501C402.517 94.4757 392.809 98.5456 383.318 103.663C378.672 106.167 374.152 108.822 369.723 111.698C365.4 114.506 360.662 116.808 356.473 119.784C352.744 122.434 349.527 124.864 346.275 128.11C342.799 131.581 339.417 135.146 335.938 138.611C333.034 141.502 334.872 148.57 335.056 152.417C335.311 157.751 335.752 163.009 336.408 168.308C337.031 173.357 337.674 178.784 336.849 183.823C336.503 185.941 335.308 189.6 335.879 191.715C336.335 193.408 339.363 194.649 340.908 195.201C342.798 195.876 344.727 195.592 346.666 196.451C348.832 197.411 350.657 198.608 352.957 199.112C355.791 199.734 358.978 200.258 361.891 200.277C364.585 200.294 367.287 201.164 369.973 201.7C374.342 202.573 378.607 202.845 378.335 208.1C378.021 214.164 375.609 219.367 374.172 225.123C376.115 225.123 377.469 225.247 379.247 224.56C381.324 223.759 383.539 223.545 385.721 223.2C390.541 222.435 395.241 222.19 400.094 221.702C408.982 220.807 418.025 220.914 426.921 221.009C431.425 221.056 436.311 221.403 440.753 222.102C445.31 222.82 450.03 223.269 454.446 224.645C458.171 225.806 462.018 226.597 465.819 227.623C467.532 228.085 469.583 228.46 471.201 228.977C473.546 229.727 474.8 231.325 477.507 231.289C476.745 226.286 474.956 221.646 473.876 216.685C472.749 211.505 470.5 206.921 468.018 202.034C466.911 199.854 466.091 197.54 465.023 195.342C463.836 192.896 462.167 190.87 460.734 188.584C457.801 183.906 454.67 179.407 451.789 174.697C449.274 170.584 446.401 166.642 443.647 162.672C440.62 158.307 436.414 155.013 432.978 151.009C431.528 149.317 430.147 147.746 428.523 146.194C427.026 144.765 424.904 141.601 422.613 141.453C421.297 141.368 419.016 142.107 417.759 142.503C415.435 143.237 412.969 143.716 410.568 144.362C407.941 145.069 405.359 145.99 402.728 146.663C401.675 146.931 400.424 146.804 399.426 147.108C398.382 147.427 397.548 148.129 396.407 148.452C390.774 150.045 385.175 151.855 379.5 153.306C373.658 154.8 367.726 156.072 362.064 158.188C360.985 158.592 359.783 159.547 358.954 158.92C358.335 158.451 357.936 157.129 358.099 156.357C358.642 153.787 362.764 152.858 364.748 151.827C370.065 149.062 375.348 147.112 381.063 145.234C383.879 144.31 386.683 143.324 389.538 142.526C391.924 141.859 394.407 140.731 396.847 140.39C399.016 140.086 400.557 139.234 402.711 138.479C405.884 137.367 409.147 136.454 412.371 135.504C417.882 133.879 423.724 133.197 429.362 132.107C442.426 129.584 455.989 128.321 469.319 128.477C476.039 128.556 483.069 128.36 489.711 129.463C491.313 129.728 494.679 129.677 495.783 131.111C496.376 131.88 496.055 133.026 496.207 133.859C496.465 135.267 497.234 135.923 497.901 137.205C499.32 130.266 500.949 123.474 502.779 116.637C504.435 110.449 505.967 104.148 508.179 98.0467C510.52 91.5912 513.357 84.7465 516.855 78.8385C517.576 77.6224 519.371 75.6905 519.525 74.3302C519.685 72.9266 517.713 71.8394 516.358 71.6831C513.319 71.3328 510.064 71.9325 507.079 72.0352ZM572.413 171.187C573.402 161.561 576.295 151.492 574.679 141.828C573.995 137.737 573.461 133.832 571.41 130.139C570.372 128.272 569.957 126.9 567.976 128.001C565.971 129.116 564.126 131.869 562.464 133.465C559.41 136.398 556.211 139.418 552.553 141.596C549.672 143.311 543.949 144.937 541.783 141.227C539.72 137.691 542.472 132.756 544.448 129.839C546.71 126.502 550.993 123.411 548.589 119.293C547.555 117.52 546.066 117.056 544.501 115.893C543.147 114.886 542.012 113.582 540.658 112.557C536.733 109.587 532.428 108.315 527.896 106.618C525.803 105.834 525.528 105.096 524.319 106.888C523.007 108.835 522.288 111.563 521.338 113.716C519.437 118.028 517.409 122.114 514.958 126.135C512.485 130.193 510.292 134.432 507.954 138.57C507.072 140.131 506.243 141.718 505.2 143.183C504.632 143.981 503.929 144.692 503.468 145.565C502.785 146.855 503.089 148.032 502.664 149.317C500.831 154.861 498.157 147.121 497.646 145.312C497.065 143.254 495.664 141.649 494.755 139.729C494.005 138.144 493.493 135.788 491.682 135.041C490.198 134.43 488.285 135.269 486.771 135.351C483.988 135.501 481.185 135.277 478.391 135.45C475.778 135.612 473.17 135.862 470.558 136.022C467.943 136.182 465.331 135.741 462.751 136.015C458.12 136.508 453.386 136.429 448.766 137.111C443.344 137.912 437.978 138.765 432.54 139.431C433.804 141.814 436.422 142.848 438.493 144.548C440.344 146.068 441.809 147.822 443.673 149.268C445.565 150.735 446.689 152.906 448.254 154.669C449.788 156.396 451.208 157.845 452.552 159.777C459.037 169.109 465.727 178.096 471.077 188.182C473.784 193.287 476.37 198.748 478.22 204.225C480.204 210.099 481.178 216.399 482.357 222.473C482.944 225.5 483.252 228.056 482.608 231.1C482.439 231.825 482.263 232.549 482.081 233.27C481.517 234.134 481.725 234.694 482.708 234.951C483.282 235.786 484.067 236.1 484.116 237.242C484.155 238.11 483.671 239.115 482.921 239.604C481.475 240.549 481.475 239.273 479.984 239.556C479.425 239.858 478.866 240.159 478.308 240.46C478.013 240.012 477.709 239.569 477.397 239.133C476.447 238.231 475.691 238.314 474.448 238.094C475.08 245.347 474.073 251.822 472.472 258.896C471.702 262.298 470.383 265.628 469.717 269.036C468.975 272.843 470.598 274.577 473.11 277.116C472.472 277.448 471.356 277.808 470.83 278.304C469.993 279.095 470.207 279.192 470.207 280.429C470.209 282.694 469.773 284.926 469.416 287.154C468.756 291.278 468.153 295.547 466.729 299.496C464.143 306.669 459.962 314.119 455.703 320.437C453.32 323.973 450.931 327.99 447.944 331.041C444.945 334.102 441.974 337.192 438.982 340.262C433.096 346.307 426.662 350.483 419.61 355.008C416.817 356.801 413.875 358.765 411.473 360.997C409.032 363.264 405.786 364.852 402.868 366.499C401.567 367.234 400.641 368.29 399.235 368.893C397.915 369.459 396.992 369.644 395.885 370.387C393.138 372.229 390.17 373.804 387.145 375.194C383.456 376.889 379.825 378.86 376.036 380.306C374.309 380.966 372.685 381.684 371.013 382.455C369.203 383.289 367.251 383.836 365.395 384.725C363.826 385.476 362.238 385.912 360.641 386.526C359.338 387.027 358.314 387.839 356.984 388.363C354.223 389.451 351.709 390.037 349.027 391.319C345.462 393.024 341.237 393.818 337.482 395.045C333.29 396.415 328.941 397.777 324.638 398.749C322.808 399.162 321.248 399.702 319.48 400.328C318.328 400.736 317.007 400.959 315.731 401.346C312.205 402.419 308.68 403.453 305.135 404.364C298.209 406.146 291.132 408.286 284.415 410.704C280.893 411.973 277.321 413.499 273.942 415.114C270.122 416.938 266.007 417.992 262.173 419.799C254.768 423.288 247.387 426.88 240.067 430.544C236.224 432.468 232.434 434.45 228.681 436.543C227.319 437.302 225.83 437.615 224.477 438.36C222.707 439.334 221.255 440.764 219.443 441.729C212.458 445.45 205.329 448.956 198.913 453.664C195.555 456.128 191.947 458.651 189.046 461.651C188.088 462.641 186.429 464.173 186.256 465.609C186 467.734 186.24 465.779 186.977 467.089C187.999 467.213 188.23 467.605 187.673 468.263C187.415 468.572 187.086 468.73 186.685 468.736C185.395 468.996 182.981 467.633 181.944 467.063C180.147 466.075 179.194 464.826 178.04 463.168C175.534 459.571 173.088 455.941 170.507 452.395C168.186 449.205 165.913 445.693 163.272 442.764C161.481 440.779 161.347 441.646 159.355 442.766C157.873 443.598 156.151 443.954 154.616 444.738C148.763 447.728 142.33 449.936 136.327 452.02C134.96 452.495 134.232 453.248 133.031 453.903C131.5 454.738 129.562 455.146 127.926 455.74C123.418 457.374 118.933 459.071 114.457 460.792C111.001 462.121 107.681 463.168 104.976 465.619C103.899 466.596 102.596 467.295 101.484 468.282C100.19 469.43 98.439 471.298 96.8091 471.947L95.8163 472.721C95.1447 472.255 94.4724 471.79 93.7988 471.326C93.131 470.865 92.4625 470.405 91.796 469.943C90.1219 468.782 88.4601 467.605 86.7963 466.43C83.0229 463.762 79.2251 461.121 75.7152 458.109C69.4804 452.762 63.0107 447.701 56.4912 442.693C49.6486 437.436 42.9775 431.935 35.9001 426.994C29.4855 422.516 22.4869 418.734 16.2673 414.007C13.1368 411.628 10.0139 409.234 6.81745 406.929C6.64346 406.804 4.04255 405.212 4.01646 405.036C3.97219 404.71 4.82807 403.861 5.08074 403.588C6.27693 402.291 7.60233 401.136 8.79404 399.825C14.3483 393.716 21.6003 393.929 29.2655 393.64C32.7414 393.51 36.511 395.109 39.8124 396.197C43.8493 397.528 47.7437 399.482 51.6431 401.168C59.6793 404.645 67.9733 407.616 76.0907 410.836C79.2827 412.102 82.4625 412.719 85.7076 413.59C89 414.473 92.3915 413.631 95.9129 413.694C97.7404 413.727 99.4682 413.833 101.309 413.73C102.401 413.669 103.66 413.462 104.739 413.48C105.614 413.496 106.521 413.856 107.326 413.764C110.849 413.366 114.57 412.808 118.203 412.351C121.81 411.897 125.532 411.672 129.092 410.962C130.884 410.605 132.653 410.099 134.378 409.493C135.874 408.967 138.596 408.369 139.824 407.303C140.923 406.349 140.442 406.336 139.83 404.78C139.587 404.165 139.336 403.233 138.977 402.64C138.005 401.038 137.066 400.535 137.632 398.531C138.628 394.999 142.022 392.744 144.928 391.004C151.475 387.087 157.462 382.062 164.355 378.738C178.559 371.891 191.503 362.996 205.354 355.477C220.58 347.211 234.983 337.512 250.42 329.595C264.79 322.227 279.093 314.815 293.582 307.678C300.657 304.194 308.658 301.006 315.077 296.439C311.521 295.998 307.954 295.43 304.385 295.115C302.73 294.969 301.054 295.104 299.409 294.842C297.568 294.548 295.827 293.806 293.99 293.497C290.831 292.965 287.99 291.884 284.828 291.486C281.438 291.059 278.117 290.065 274.711 289.787C267.586 289.204 261.155 286.583 254.908 283.28C253.362 282.462 252.092 282.93 250.611 282.373C249.794 282.068 248.928 280.845 248.011 280.189C245.486 278.381 243.319 276.246 240.919 274.271C235.875 285.562 225.97 293.242 216.517 300.817C211.729 304.653 206.533 307.905 201.695 311.668C197.946 314.587 194.54 317.199 190.537 319.519C186.693 321.746 183.082 324.753 179.418 327.429C176.934 329.242 174.023 330.61 171.381 332.185C169.223 333.471 165.01 335.39 164.421 337.723C163.939 339.629 164.879 341.898 161.962 341.022C159.35 340.238 157.457 337.345 155.936 335.308C152.002 330.037 148.332 324.587 144.68 319.122C142.718 322.941 139.334 325.691 136.206 328.523C134.305 330.244 132.333 331.84 130.28 333.376C129.285 334.121 128.278 334.851 127.28 335.595C126.888 335.888 125.997 336.339 125.743 336.753C125.148 337.72 125.509 337.282 125.602 338.451C125.747 340.283 126.359 341.724 125.32 343.479C124.344 345.127 122.216 345.831 120.724 346.957C117.175 349.636 113.443 352.483 109.506 354.575C108.612 355.05 107.767 355.461 106.935 356.043C105.546 357.012 105.8 357.363 104.399 356.434C102.21 354.98 100.318 352.567 98.3424 350.813C94.2024 347.14 90.0164 343.512 85.7766 339.954C77.697 333.172 69.3787 326.727 61.3994 319.824C53.8167 313.264 45.6878 307.617 37.8595 301.38C35.7121 299.67 33.5909 297.924 31.4717 296.178C29.5847 294.625 26.5225 292.912 25.1268 290.924C23.0997 288.037 31.029 284.09 33.4214 283.503C37.5467 282.49 42.8809 283.07 47.0125 283.9C51.3495 284.771 55.7658 287.684 59.8156 289.498C64.3803 291.543 69.0294 293.311 73.628 295.242C75.6788 296.102 77.853 296.79 79.7567 297.949C81.7768 299.18 83.58 300.583 85.728 301.616C88.2036 302.804 90.7757 303.912 93.3792 304.792C94.5587 305.19 95.8285 305.59 97.0681 305.751C98.8234 305.978 98.5854 305.172 100.043 304.721C101.282 304.339 101.577 305.35 102.691 305.631C103.74 305.897 104.524 305.628 105.432 305.065C107.458 303.812 109.26 302.083 111.286 300.777C113.165 299.566 115.237 298.434 116.999 297.062C117.785 296.451 118.365 295.613 119.139 294.992C120.38 293.997 120.872 294.392 122.32 293.707C123.504 293.146 124.578 292.102 125.704 291.41C126.404 290.981 128.099 290.439 128.55 289.744C129.735 287.92 127.713 286.653 125.902 287.191C125.631 285.615 124.238 281.875 124.84 280.398C125.372 279.092 126.769 279.336 127.944 278.644C132.36 276.044 135.619 271.319 139.751 268.263C143.646 265.382 147.082 261.943 150.941 259.01C154.246 256.497 157.858 254.043 160.868 251.333C164.426 248.128 168.982 245.636 172.851 242.775C176.847 239.821 180.561 236.534 184.515 233.546C188.319 230.672 192.056 227.67 195.965 224.933C199.478 222.474 203.16 220.228 206.6 217.734C208.485 216.369 210.545 215.169 212.697 214.273C214.836 213.381 216.707 212.335 218.795 211.375C222.946 209.467 228.351 208.148 232.865 207.601C237.827 207 242.81 206.461 247.82 206.457C250.489 206.455 253.081 206.961 255.734 207.122C258.171 207.269 260.806 207.884 263.226 207.803C264.322 207.767 265.274 207.304 266.336 207.453C267.222 207.578 267.992 208.111 268.943 208.204C271.06 208.412 273.188 208.205 275.328 208.478C280.245 209.104 285.169 209.998 290.096 210.495C295.346 211.026 300.55 211.126 305.773 212.019C310.876 212.891 316.011 213.795 321.085 214.804C331.868 216.948 342.764 219.041 353.376 222.224C355.856 222.968 358.352 223.676 360.736 224.696C361.894 225.19 363.005 225.79 364.212 226.16C365.941 226.69 366.281 226.891 367.172 225.444C368.704 222.955 369.549 219.662 370.661 216.953C371.761 214.273 373.096 211.572 373.734 208.773C371.88 208.48 369.54 209.049 367.627 209.114C365.288 209.194 362.974 209.144 360.637 209.13C355.927 209.102 352.245 207.714 347.788 206.258C344.032 205.029 339.031 204.325 336.166 201.513C334.63 200.005 334.118 199.74 331.809 200.01C329.48 200.283 327.179 200.752 324.827 200.83C315.962 201.123 307.138 202.666 298.233 202.971C295.824 203.053 289.799 204.192 290.193 200.117C290.275 199.271 290.925 198.538 291.052 197.667C291.188 196.733 290.953 195.786 290.807 194.873C290.458 192.715 290.094 190.558 289.747 188.399C281.627 190.998 273.405 193.104 265.13 195.163C261.699 196.017 256.186 197.98 252.64 196.904C249.212 195.863 251.198 191.046 252.265 188.74C245.455 190.29 238.191 192.826 231.246 193.408C229.133 193.585 227.076 194.052 226.584 191.504C226.193 189.474 227.663 186.991 228.413 185.208C223.083 184.733 217.564 184.779 218.567 177.965C219.486 171.713 224.693 170.468 230.237 169.326C237.08 167.915 244.068 167.445 250.955 166.303C256.948 165.31 263.486 164.202 269.606 164.704C272.846 164.969 276.105 165.029 279.343 165.329C280.871 165.47 282.341 165.706 283.82 166.122C285.184 166.504 287.092 167.692 288.491 167.713C290.602 167.746 293.146 164.899 295.416 164.241C298.228 163.426 301.258 163.278 304.164 163.078C307.457 162.853 310.755 162.727 314.046 162.461C314.796 162.401 317.632 162.586 318.224 162.147C319.086 161.509 318.512 158.233 318.452 156.888C318.396 155.643 318.636 153.311 317.772 152.823C316.959 152.365 314.591 152.994 313.792 153.121C310.477 153.651 307.328 153.59 304.026 153.456C302.501 153.394 301.037 153.799 299.526 153.599C297.906 153.385 296.275 152.842 294.661 152.539C291.165 151.884 287.98 151.069 284.968 149.115C282.324 147.401 279.194 146.24 277.717 143.238C276.634 141.039 276.194 136.796 279.377 136.171C277.209 133.053 275.714 129.55 274.565 125.947C274.356 125.294 274.218 124.31 273.907 123.74C272.807 121.726 273.827 123.513 272.258 122.707C270.706 121.911 269.588 121.282 268.376 119.898C266.444 117.691 265.63 114.975 265.386 112.099C265.054 108.194 264.435 103.79 265.007 99.9046C265.997 93.1742 270.928 88.1172 275.94 84.0466C278.66 81.8365 282.242 81.0135 285.432 79.6724C288.512 78.3772 291.953 77.0195 295.198 76.7158C298.127 76.4414 300.983 75.4876 303.915 75.1028C307.945 74.5733 311.979 74.7711 316.029 74.6103C317.893 74.5363 319.753 74.2741 321.608 74.0744C322.656 73.9614 324.428 74.082 325.388 73.6679C326.958 72.9891 326.11 74.4144 326.671 72.3383C327.738 68.389 328.609 64.6852 330.225 60.8475C331.731 57.2721 333.56 53.8536 335.977 50.7968C338.244 47.9295 341.184 45.8324 343.855 43.383C345.834 41.5685 348.079 39.9294 350.336 38.462C351.627 37.623 353.065 37.1693 354.326 36.4286C355.892 35.5098 357.273 34.8131 359.035 34.2504C362.815 33.0432 366.567 31.7615 370.582 31.8246C374.911 31.8923 379.251 30.8874 383.465 32.1615C391.29 34.5279 395.124 42.9868 394.993 50.7547C397.669 50.0886 400.008 48.8062 402.844 48.6964C405.455 48.5956 408.557 48.8215 411.122 49.3051C416.1 50.2436 421.22 53.0037 424.188 57.1866C427.019 61.1761 427.443 66.473 425.703 70.9991C424.87 73.1658 423.549 75.0933 422.142 76.9238C421.111 78.2662 418.809 79.7521 418.7 81.5507C437.968 75.7415 457.314 71.6467 477.246 68.9964C487.349 67.6533 497.47 68.3258 507.583 67.5583C511.904 67.2303 516.599 67.689 521.065 67.7063C522.951 67.7139 524.418 67.4523 525.785 66.235C527.17 65.0036 528.276 63.4953 529.889 65.2729C530.301 65.7265 530.387 66.8239 530.941 67.1652C531.613 67.5787 533.566 67.2948 534.369 67.3439C537.178 67.5149 539.919 67.9902 542.676 68.5376C547.736 69.5425 552.763 70.5582 557.763 71.8336C567.283 74.2626 576.676 76.6118 586.058 79.495C595.632 82.4369 605.306 86.0666 614.133 90.8288C618.409 93.1352 622.679 96.0146 626.61 98.8679C628.437 100.195 630.076 101.63 631.664 103.231C633.364 104.941 635.442 106.095 637.125 107.819C640.786 111.567 644.432 115.543 647.753 119.604C649.487 121.724 651.077 123.961 652.621 126.22C653.705 127.806 656.561 130.709 655.903 132.757C655.552 133.851 654.328 134.616 653.207 134.348C652.832 134.258 652.52 133.773 652.201 133.727C651.118 133.574 652.103 133.194 650.839 133.705C648.328 134.721 647.527 136.76 644.336 136.296C638.913 135.507 633.811 132.952 628.879 130.725C627.47 136.097 627.271 141.666 626.037 147.103C624.835 152.407 622.829 157.465 620.408 162.33C618.284 166.598 615.558 171.147 611.798 174.198C608.93 176.525 601.851 179.417 599.744 174.461C598.849 172.356 600.18 169.086 600.557 166.92C601.063 164.013 601.62 161.098 601.925 158.162C602.172 155.776 602.296 153.377 602.527 150.988C602.726 148.934 603.276 144.523 602.117 142.709C601.419 141.615 601.359 142.688 600.952 143.78C600.46 145.104 600.051 146.417 599.69 147.78C598.924 150.678 598.233 153.595 597.509 156.502C596.214 161.697 594.788 166.778 592.09 171.449C589.694 175.597 586.321 180.147 581.196 180.827C578.797 181.144 575.669 180.05 573.837 178.438C571.782 176.629 572.396 173.646 572.413 171.187Z" fill="#2D3D8B"/>
<path fill-rule="evenodd" clip-rule="evenodd" d="M455.387 383.316C458.203 382.762 460.574 380.52 462.874 378.835C465.808 376.687 468.591 374.346 471.439 372.09C476.807 367.837 481.677 363.173 486.308 358.101C495.446 348.094 502.325 335.213 505.452 322.053C507.034 315.394 508.991 307.591 508.093 300.71C507.781 298.319 507.305 297.881 504.955 297.609C503.894 297.486 501.2 297.182 500.244 297.598C497.767 298.678 496.431 303.271 495.696 305.579C493.526 312.394 492.25 319.453 490.289 326.324C488.367 333.059 485.27 339.893 482.207 346.191C475.392 360.204 465.92 371.928 455.387 383.316ZM511.258 305.948C509.573 325.03 504.261 343.211 492.351 358.579C486.69 365.883 480.033 372.239 472.816 378.012C465.365 383.973 457.756 389.587 449.301 394.032C447.052 395.216 444.799 396.395 442.521 397.524C441.258 398.149 438.071 400.454 436.614 400.09C435.447 399.797 435.143 398.897 434.961 397.725C434.552 395.096 436.265 393.783 437.996 392.095C444.953 385.312 451.931 378.504 458.435 371.288C471.281 357.037 480.93 339.972 486.294 321.559C487.946 315.889 489.42 310.157 491.204 304.528C492.29 301.098 493.83 294.994 497.441 293.284C499.376 292.367 501.632 293.259 503.668 292.71C505.577 292.194 506.842 291.143 508.47 292.906C511.325 296 511.453 302.07 511.258 305.948Z" fill="#2D3D8B"/>
<path fill-rule="evenodd" clip-rule="evenodd" d="M2.37328 416.052C0.947447 416.556 0.887957 417.056 0.234852 415.593C-0.0939392 414.855 -0.00502479 413.845 0.0723755 413.079C0.25788 411.244 1.22634 409.549 2.0221 407.922C9.51138 414.084 17.2879 419.637 25.3183 425.081C33.9065 430.903 42.1065 437.377 50.2291 443.826C57.5028 449.602 64.8641 455.207 72.0617 461.055C75.5332 463.876 79.4908 466.062 82.7909 468.968C85.4577 471.318 89.8804 472.37 92.1538 475.134C88.5512 477.281 83.7415 479.01 79.7493 477.152C75.3451 475.103 71.967 472.432 68.0478 469.654C66.0283 468.223 63.9283 466.924 61.8768 465.54C60.0736 464.322 58.8 462.544 56.9744 461.402C53.1376 459.001 49.2017 456.356 45.5614 453.614C41.8218 450.799 37.6883 448.559 34.0805 445.566C30.382 442.498 26.242 440.465 22.3803 437.672C14.1963 431.753 6.98979 425.096 2.37328 416.052Z" fill="#2D3D8B"/>
<path fill-rule="evenodd" clip-rule="evenodd" d="M223.177 101.747C223.075 102.292 222.974 102.837 222.872 103.382C222.934 103.396 227.831 93.9601 228.642 92.8206C231.394 88.9574 234.975 85.743 238.427 82.5166C245.74 75.6821 254.299 70.1657 261.465 63.2094C263.823 60.9208 268.047 57.4532 267.115 53.5836C266.188 49.7376 258.363 50.5192 255.684 51.6319C251.483 53.3769 248.071 57.0263 244.941 60.2062C241.526 63.6752 238.084 67.1052 235.19 71.0309C232.07 75.2642 229.107 79.849 227.195 84.7617C225.053 90.2653 224.216 95.9609 223.177 101.747ZM224.785 118.632C221.462 119.654 225.628 120.344 224.326 122.115C222.899 124.057 220.499 118.073 220.14 116.944C218.024 110.268 218.97 102.158 220.126 95.3803C220.709 91.9612 221.086 88.4859 221.873 85.1037C222.64 81.8058 224.312 78.6718 225.856 75.6719C228.947 69.6694 233.041 64.0771 237.687 59.1828C242.347 54.2726 247.541 49.3599 253.691 46.3369C258.772 43.8404 266.825 45.5726 269.203 51.0258C271.633 56.5982 268.347 62.6684 264.46 66.5864C259.39 71.6964 253.866 76.7718 248.171 81.178C245.244 83.443 242.791 86.182 239.948 88.5452C236.922 91.0609 234.303 93.5913 232.066 96.8446C229.899 99.997 227.668 103.147 226.26 106.726C224.717 110.644 224.785 114.486 224.785 118.632Z" fill="#2D3D8B"/>
<path fill-rule="evenodd" clip-rule="evenodd" d="M91.8636 358.938C84.2272 354.034 76.5652 349.728 69.9152 343.473C63.3496 337.298 57.613 330.334 50.3054 324.976C46.6593 322.302 42.8961 319.793 39.3146 317.032C35.9154 314.412 32.0082 312.167 28.9359 309.179C24.8407 305.194 17.1736 297.79 22.4055 291.848C28.8994 299.552 37.8094 305.624 45.9326 311.472C54.4978 317.638 62.3594 324.832 70.4839 331.55C78.3102 338.022 86.1104 344.553 93.7475 351.196C95.7528 352.941 97.6872 354.774 99.7162 356.491C99.9644 356.701 102.068 358.03 102.068 358.384C102.068 359.232 100.438 359.762 99.857 359.998C98.9403 360.37 96.4609 361.297 95.4215 360.984C94.8765 360.819 94.8669 360.376 94.4741 360.113C94.2483 359.688 93.9848 359.288 93.6854 358.912C93.0777 358.922 92.4707 358.93 91.8636 358.938Z" fill="#2D3D8B"/>
<path fill-rule="evenodd" clip-rule="evenodd" d="M541.414 273.426C535.97 273.286 527.684 273.27 527.989 280.685C528.14 284.356 530.136 287.052 531.775 290.192C533.497 293.492 534.773 296.901 535.278 300.6C537.322 315.573 531.839 330.2 526.879 344.041C537.53 335.467 545.222 323.536 549.261 310.458C551.219 304.117 551.981 295.965 551.349 289.362C551.032 286.057 549.81 283.095 548.339 280.151C547.6 278.672 546.861 276.983 545.683 275.786C544.503 274.587 542.867 274.188 541.414 273.426ZM522.425 352.617C518.908 346.849 524.445 338.355 526.255 332.731C528.42 326.006 530.417 319.004 531.342 311.99C532.311 304.644 531.059 298.931 527.646 292.442C524.592 286.641 522.78 278.914 526.174 272.776C527.541 270.305 529.559 270.002 531.959 269.016C534.904 267.807 535.715 265.761 539.329 266.085C545.778 266.663 548.761 272.763 551.16 277.96C556.753 290.076 555.233 305.712 550.463 317.879C547.717 324.879 544.586 332.148 539.925 338.109C537.639 341.032 534.952 343.565 532.165 346.004C529.149 348.641 526.447 351.819 522.425 352.617Z" fill="#2D3D8B"/>
<path fill-rule="evenodd" clip-rule="evenodd" d="M154.18 142.261C145.679 143.966 137.921 147.787 136.559 157.317C135.322 165.977 141.236 173.99 148.499 178.044C156.354 182.429 166.197 183.158 174.024 178.298C182.263 173.181 184.132 162.926 179.117 154.882C173.522 145.904 164.147 143.254 154.18 142.261ZM159.644 138.107C169.767 139.586 179.165 146.772 182.575 156.45C186.09 166.427 182.86 177.396 173.553 182.863C154.743 193.911 129.604 175.499 134.143 154.335C135.296 148.962 138.569 144.801 143.016 141.655C147.926 138.181 153.863 138.086 159.644 138.107Z" fill="#2D3D8B"/>
<path fill-rule="evenodd" clip-rule="evenodd" d="M519.576 36.7914C507.378 31.2904 495.179 25.7894 482.981 20.2884C482.481 25.8034 481.981 31.3178 481.48 36.8329C481.344 38.3252 480.79 40.3554 481.026 41.828C481.279 43.3994 480.74 43.2316 482.794 43.0083C485.42 42.7218 488.056 42.0749 490.655 41.6123C495.329 40.7803 500.299 40.543 504.873 39.3193C507.208 38.6946 509.443 38.6162 511.813 38.2385C514.415 37.8237 516.947 37.0556 519.576 36.7914ZM478.313 47.4528C478.313 41.2403 479.005 35.1115 479.575 28.9278C480.088 23.3643 480.286 18.0611 482.106 12.7604C483.807 15.8414 488.517 17.0728 491.431 18.6582C495.447 20.8428 499.724 22.4513 503.835 24.4413C507.872 26.3955 511.761 28.6394 515.804 30.5892C517.853 31.5782 519.934 32.5007 521.98 33.4973C523.26 34.1213 526.297 35.1256 527.094 36.2842C529.512 39.801 521.234 40.141 519.636 40.4511C514.845 41.3833 509.997 41.9084 505.214 42.8667C500.755 43.7612 496.288 44.5912 491.813 45.4022C487.383 46.2048 482.82 47.4528 478.313 47.4528Z" fill="#2D3D8B"/>
<path fill-rule="evenodd" clip-rule="evenodd" d="M102.198 201.247C107 200.749 111.783 200.032 116.581 199.558C121.124 199.11 125.142 198.633 129.292 196.556C123.624 194.852 117.943 193.237 112.227 191.697C109.392 190.934 106.563 190.125 103.715 189.412C101.512 188.859 99.5917 188.542 98.7448 186.143C97.759 183.351 100.5 183.774 102.209 184.484C104.565 185.462 107.132 186.07 109.574 186.883C115.026 188.699 120.51 190.368 126.013 192.019C127.723 192.532 137.634 194.429 134.063 197.727C132.535 199.139 129.125 199.914 127.256 200.928C124.859 202.228 122.25 202.747 119.584 203.264C114.027 204.342 108.261 204.756 102.635 205.692C99.7625 206.17 96.8904 206.647 94.0182 207.125C92.3353 207.405 91.6873 207.377 91.2478 205.505C90.928 204.145 91.345 202.784 91.6521 201.467C92.4312 198.119 93.298 194.789 94.1558 191.461C94.482 190.191 95.0596 184.61 96.195 183.999C98.771 182.614 96.7835 190.341 96.5923 191.287C95.8694 194.856 95.011 198.4 94.6246 202.022C97.1545 201.794 99.6774 201.557 102.198 201.247Z" fill="#2D3D8B"/>
<path fill-rule="evenodd" clip-rule="evenodd" d="M170.296 229.662C171.249 232.049 169.666 232.583 167.746 233.41C165.255 234.482 162.805 235.614 160.269 236.58C154.934 238.611 149.56 240.497 144.351 242.847C134.418 247.328 124.35 251.631 114.571 256.428C112.141 257.621 109.709 258.809 107.257 259.957C104.721 261.145 101.813 263.144 99.1004 263.823C96.7343 264.415 96.4874 262.735 97.8895 261.187C99.6972 259.19 102.492 257.7 104.762 256.312C114.105 250.6 124.302 245.95 134.507 242.021C146.302 237.478 158.129 233.12 170.296 229.662Z" fill="#2D3D8B"/>
<path fill-rule="evenodd" clip-rule="evenodd" d="M196.231 94.2566C195.89 86.9998 196.863 79.7231 196.283 72.4854C186.306 81.3067 191.222 94.9393 196.961 104.511L196.231 94.2566ZM200.55 93.8419C200.613 97.3867 200.815 100.93 200.469 104.457C200.107 108.159 201.848 110.066 204.117 112.793C202.19 114.744 197.767 110.195 196.546 108.854C194.032 106.093 192.161 102.424 190.495 99.1081C186.949 92.0446 184.507 84.4821 187.345 76.727C188.397 73.8527 189.684 69.9448 192.47 68.2713C195.529 66.4338 197.869 69.0254 199.138 71.6911C202.237 78.1951 199.874 86.8607 200.55 93.8419Z" fill="#2D3D8B"/>
<path fill-rule="evenodd" clip-rule="evenodd" d="M306.237 454.566C310.837 454.93 315.368 455.288 319.969 455.578C319.175 449.289 318.38 442.999 317.587 436.708C314.925 437.323 312.263 437.938 309.602 438.552C308.343 438.842 306.413 438.918 305.3 439.545C304.883 439.641 304.466 439.737 304.05 439.833C304.039 440.649 304.03 441.466 304.022 442.283C303.991 444.698 303.921 447.111 303.821 449.525C303.779 450.536 303.425 452.017 303.667 453.019C303.237 454.032 303.511 454.463 304.491 454.311C305.073 454.396 305.655 454.481 306.237 454.566ZM303.07 459.113C299.464 457.322 300.45 451.85 300.455 448.368C300.46 446.152 300.617 443.951 300.675 441.738C300.715 440.217 300.367 438.335 300.891 436.865C301.824 434.251 306.391 434.322 308.739 434.505C310.48 434.64 311.938 434.553 313.722 434.439C314.602 434.383 315.583 434.55 316.447 434.291C316.634 434.235 318.393 433.012 318.315 433.008C321.469 433.129 321.511 440.672 321.716 442.586C322.222 447.305 322.68 452.031 323.092 456.759C323.201 458.01 323.667 459.424 322.476 460.138C321.401 460.783 318.552 460.146 317.364 460.11C312.573 459.965 307.809 459.22 303.07 459.113Z" fill="#2D3D8B"/>
<path fill-rule="evenodd" clip-rule="evenodd" d="M528.159 178.821C530.244 180.692 529.242 182.623 528.56 184.96C528.149 186.363 525.894 190.97 526.516 192.282C527.236 193.799 530.614 194.173 532.059 194.652C534.576 195.486 537.104 196.325 539.485 197.501C540.542 198.024 544.354 199.224 545.068 200.199C545.478 200.758 545.627 201.196 545.319 201.916C544.779 203.181 544.008 202.512 542.691 202.24C536.672 201 530.705 199.414 525.123 196.798C523.567 200.401 522.249 204.08 520.932 207.777C520.547 208.861 520.178 211.322 518.713 211.497C516.925 211.711 516.901 209.323 517.02 208.035C517.193 206.154 518.17 204.149 518.76 202.368C519.247 200.898 520.954 197.837 520.744 196.323C520.6 195.28 519.963 195.353 518.827 194.943C517.754 194.557 516.681 194.172 515.609 193.781C513.89 193.154 512.178 192.525 510.506 191.781C509.588 191.372 507.667 190.895 507.002 190.048C506.616 189.557 506.187 187.786 506.673 187.296C507.811 186.148 515.38 189.238 516.936 189.659C517.969 189.939 519.006 190.153 520.008 190.52C520.387 190.66 520.836 191.226 521.246 191.247C522.988 191.335 523.126 190 523.666 188.568C524.92 185.239 526.282 181.844 528.159 178.821Z" fill="#2D3D8B"/>
<path fill-rule="evenodd" clip-rule="evenodd" d="M94.2181 245.044C93.2899 242.775 103.142 240.033 104.97 239.269C109.434 237.405 114.216 236.278 118.838 234.854C123.383 233.455 127.908 231.948 132.378 230.328C133.76 229.826 143.715 224.992 144.235 225.699C145.96 228.038 125.071 235.385 123.036 236.116C113.584 239.511 103.825 242.117 94.2181 245.044Z" fill="#2D3D8B"/>
<path fill-rule="evenodd" clip-rule="evenodd" d="M517.935 67.5685C515.382 67.594 511.698 68.3163 509.355 67.2827C512.215 67.3777 515.075 67.4734 517.935 67.5685Z" fill="#2D3D8B"/>
<path fill-rule="evenodd" clip-rule="evenodd" d="M159.644 138.107L153.966 138.086C155.86 137.648 157.754 137.383 159.644 138.107Z" fill="#2D3D8B"/>
<path fill-rule="evenodd" clip-rule="evenodd" d="M455.347 136.594C456.686 136.587 458.026 136.58 459.355 136.572C458.013 136.58 456.68 136.587 455.347 136.594Z" fill="#2D3D8B"/>
<path fill-rule="evenodd" clip-rule="evenodd" d="M572.413 171.187C572.403 172.616 572.394 174.044 572.382 175.467C572.391 174.036 572.402 172.612 572.413 171.187Z" fill="#2D3D8B"/>
<path fill-rule="evenodd" clip-rule="evenodd" d="M308.739 434.505C307.317 434.608 305.895 434.71 304.475 434.812C305.897 434.71 307.318 434.607 308.739 434.505Z" fill="#2D3D8B"/>
<path fill-rule="evenodd" clip-rule="evenodd" d="M316.753 162.242C315.308 162.359 313.864 162.476 312.421 162.593C313.865 162.476 315.309 162.359 316.753 162.242Z" fill="#2D3D8B"/>
<path fill-rule="evenodd" clip-rule="evenodd" d="M466.197 136.123C467.219 136.121 468.241 136.12 469.254 136.118C468.23 136.12 467.213 136.122 466.197 136.123Z" fill="#2D3D8B"/>
<path fill-rule="evenodd" clip-rule="evenodd" d="M260.568 165.029C259.299 165.144 258.028 165.258 256.759 165.372C258.028 165.258 259.299 165.144 260.568 165.029Z" fill="#2D3D8B"/>
<path fill-rule="evenodd" clip-rule="evenodd" d="M316.665 74.6063C315.394 74.614 314.124 74.6217 312.854 74.6293C314.121 73.9594 315.392 74.1323 316.665 74.6063Z" fill="#2D3D8B"/>
<path fill-rule="evenodd" clip-rule="evenodd" d="M84.8029 293.734C83.7461 293.678 82.8851 294.19 82.289 293.184C83.2645 292.426 83.8274 293.3 84.8029 293.734Z" fill="#2D3D8B"/>
<path fill-rule="evenodd" clip-rule="evenodd" d="M280.789 209.123L277.491 208.753L280.789 209.123Z" fill="#2D3D8B"/>
<path fill-rule="evenodd" clip-rule="evenodd" d="M303.07 459.113C303.798 459.13 304.526 459.146 305.247 459.162C304.515 459.145 303.793 459.129 303.07 459.113Z" fill="#2D3D8B"/>
<path fill-rule="evenodd" clip-rule="evenodd" d="M472.313 69.6367C471.178 69.7382 470.042 69.8396 468.907 69.941C470.043 69.839 471.178 69.7382 472.313 69.6367Z" fill="#2D3D8B"/>
<path fill-rule="evenodd" clip-rule="evenodd" d="M112.499 413.173C111.408 413.178 110.318 413.183 109.228 413.187C110.319 413.182 111.409 413.178 112.499 413.173Z" fill="#2D3D8B"/>
<path fill-rule="evenodd" clip-rule="evenodd" d="M24.8381 393.892C23.7372 393.894 22.6369 393.895 21.5367 393.897C22.6376 393.895 23.7372 393.894 24.8381 393.892Z" fill="#2D3D8B"/>
<path fill-rule="evenodd" clip-rule="evenodd" d="M302.984 163.148C301.867 163.258 300.749 163.367 299.632 163.477C300.75 163.367 301.867 163.258 302.984 163.148Z" fill="#2D3D8B"/>
<path fill-rule="evenodd" clip-rule="evenodd" d="M271.804 164.956C270.704 164.83 269.605 164.704 268.506 164.577C269.596 164.79 270.806 163.951 271.804 164.956Z" fill="#2D3D8B"/>
<path fill-rule="evenodd" clip-rule="evenodd" d="M371.383 208.978C372.068 208.901 373.029 208.661 373.734 208.773C373.642 209.175 371.646 208.977 371.383 208.978Z" fill="#2D3D8B"/>
<path fill-rule="evenodd" clip-rule="evenodd" d="M301.637 295.007C302.375 295.021 303.113 295.035 303.843 295.047C303.103 295.034 302.37 295.02 301.637 295.007Z" fill="#2D3D8B"/>
<path fill-rule="evenodd" clip-rule="evenodd" d="M235.018 207.393C233.941 207.497 232.865 207.601 231.787 207.705C232.865 207.601 233.941 207.497 235.018 207.393Z" fill="#2D3D8B"/>
<path fill-rule="evenodd" clip-rule="evenodd" d="M114.418 203.732C115.005 203.748 115.592 203.764 116.172 203.78C115.582 203.764 115 203.748 114.418 203.732Z" fill="#2D3D8B"/>
<path fill-rule="evenodd" clip-rule="evenodd" d="M273.166 208.202C272.245 208.184 271.323 208.165 270.402 208.147C271.323 208.165 272.245 208.184 273.166 208.202Z" fill="#2D3D8B"/>
<path fill-rule="evenodd" clip-rule="evenodd" d="M102.198 201.247C101.266 201.362 100.335 201.476 99.4049 201.59C100.337 201.476 101.267 201.361 102.198 201.247Z" fill="#2D3D8B"/>
<path fill-rule="evenodd" clip-rule="evenodd" d="M229.957 193.355C230.532 193.378 231.107 193.401 231.675 193.426C231.097 193.405 230.527 193.38 229.957 193.355Z" fill="#2D3D8B"/>
<path fill-rule="evenodd" clip-rule="evenodd" d="M273.837 289.844C274.421 289.805 275.004 289.768 275.58 289.729C274.994 289.766 274.416 289.805 273.837 289.844Z" fill="#2D3D8B"/>
<path fill-rule="evenodd" clip-rule="evenodd" d="M318.512 214.288C317.573 214.171 316.634 214.055 315.696 213.938C316.634 214.055 317.573 214.171 318.512 214.288Z" fill="#2D3D8B"/>
<path fill-rule="evenodd" clip-rule="evenodd" d="M91.8636 358.938C92.4733 358.93 93.0829 358.922 93.6854 358.912C93.0739 358.92 92.4681 358.929 91.8636 358.938Z" fill="#2D3D8B"/>
<path fill-rule="evenodd" clip-rule="evenodd" d="M41.8118 283.384C40.8408 283.287 39.8698 283.188 38.8981 283.091C39.8691 283.188 40.8401 283.287 41.8118 283.384Z" fill="#2D3D8B"/>
<path fill-rule="evenodd" clip-rule="evenodd" d="M21.0925 394.024C20.1381 394.134 19.1837 394.244 18.2286 394.354C19.1843 394.244 20.1381 394.134 21.0925 394.024Z" fill="#2D3D8B"/>
<path fill-rule="evenodd" clip-rule="evenodd" d="M541.365 136.439C541.29 137.262 541.216 138.085 541.139 138.905C541.214 138.081 541.289 137.26 541.365 136.439Z" fill="#2D3D8B"/>
<path fill-rule="evenodd" clip-rule="evenodd" d="M118.203 412.351C117.243 412.461 116.282 412.571 115.323 412.681C116.283 412.57 117.243 412.461 118.203 412.351Z" fill="#2D3D8B"/>
<path fill-rule="evenodd" clip-rule="evenodd" d="M108.782 413.3C107.811 413.977 106.84 414.016 105.867 413.303C106.839 413.302 107.811 413.301 108.782 413.3Z" fill="#2D3D8B"/>
<path fill-rule="evenodd" clip-rule="evenodd" d="M90.36 414.11C89.4178 414.111 88.4762 414.111 87.5346 414.112C88.4768 414.111 89.4184 414.111 90.36 414.11Z" fill="#2D3D8B"/>
<path fill-rule="evenodd" clip-rule="evenodd" d="M200.55 93.842C200.469 93.0081 200.389 92.1748 200.308 91.3441C200.389 92.1793 200.469 93.0106 200.55 93.842Z" fill="#2D3D8B"/>
<path fill-rule="evenodd" clip-rule="evenodd" d="M303.446 75.2216C302.499 75.3384 301.552 75.4545 300.606 75.5706C301.553 75.4545 302.5 75.3384 303.446 75.2216Z" fill="#2D3D8B"/>
<path fill-rule="evenodd" clip-rule="evenodd" d="M306.801 74.7799C305.839 74.8871 304.876 74.9949 303.915 75.1027C304.877 74.9949 305.839 74.8871 306.801 74.7799Z" fill="#2D3D8B"/>
<path fill-rule="evenodd" clip-rule="evenodd" d="M157.374 185.894C157.966 185.885 158.559 185.876 159.143 185.867C158.548 185.876 157.961 185.885 157.374 185.894Z" fill="#2D3D8B"/>
<path fill-rule="evenodd" clip-rule="evenodd" d="M243.088 176.659C246.23 176.143 249.372 175.97 252.512 176.658L243.088 176.659Z" fill="#2D3D8B"/>
<path fill-rule="evenodd" clip-rule="evenodd" d="M326.877 141.411C327.531 139.707 327.693 139.068 329.29 138.186C328.625 139.842 328.521 140.727 326.877 141.411Z" fill="#2D3D8B"/>
<path fill-rule="evenodd" clip-rule="evenodd" d="M403.488 310.001C403.552 311.772 403.615 313.543 403.677 315.312C403.614 313.541 403.551 311.771 403.488 310.001Z" fill="#2D3D8B"/>
<path fill-rule="evenodd" clip-rule="evenodd" d="M517.421 71.6592C516 71.6911 514.579 71.7236 513.164 71.7555C514.587 71.7236 516.004 71.6911 517.421 71.6592Z" fill="#2D3D8B"/>
<path fill-rule="evenodd" clip-rule="evenodd" d="M328.093 341.48C328.143 342.956 328.192 344.433 328.242 345.909C328.192 344.431 328.142 342.956 328.093 341.48Z" fill="#2D3D8B"/>
<path fill-rule="evenodd" clip-rule="evenodd" d="M153.936 294.175C155.371 294.185 156.807 294.195 158.242 294.206C156.806 294.195 155.371 294.185 153.936 294.175Z" fill="#2D3D8B"/>
<path fill-rule="evenodd" clip-rule="evenodd" d="M275.965 218.331C275.099 218.34 274.235 218.347 273.379 218.358C274.246 218.351 275.105 218.341 275.965 218.331Z" fill="#2D3D8B"/>
<path fill-rule="evenodd" clip-rule="evenodd" d="M273.147 171.397C272.436 171.373 271.724 171.349 271.02 171.327C271.735 171.352 272.441 171.374 273.147 171.397Z" fill="#2D3D8B"/>
<path fill-rule="evenodd" clip-rule="evenodd" d="M171.417 293.728C172.54 293.619 173.662 293.509 174.784 293.4C173.662 293.509 172.54 293.619 171.417 293.728Z" fill="#2D3D8B"/>
<path fill-rule="evenodd" clip-rule="evenodd" d="M146.96 294.231C148.059 294.215 149.159 294.198 150.258 294.18C149.159 294.198 148.059 294.215 146.96 294.231Z" fill="#2D3D8B"/>
<path fill-rule="evenodd" clip-rule="evenodd" d="M158.699 294.203C159.837 294.104 160.976 294.005 162.115 293.906C160.977 294.005 159.837 294.104 158.699 294.203Z" fill="#2D3D8B"/>
<path fill-rule="evenodd" clip-rule="evenodd" d="M162.851 296.004C162.285 296 161.719 295.997 161.16 295.993C161.729 295.997 162.29 296 162.851 296.004Z" fill="#2D3D8B"/>
<path fill-rule="evenodd" clip-rule="evenodd" d="M402.992 270.628C403.076 269.795 403.161 268.963 403.245 268.134C403.161 268.967 403.076 269.797 402.992 270.628Z" fill="#2D3D8B"/>
<path fill-rule="evenodd" clip-rule="evenodd" d="M232.985 186.492C233.699 186.553 234.413 186.613 235.129 186.675C234.331 186.715 233.533 186.756 232.736 186.796C232.74 186.633 232.823 186.532 232.985 186.492Z" fill="#2D3D8B"/>
<path fill-rule="evenodd" clip-rule="evenodd" d="M416.459 326.485C416.413 325.727 416.367 324.968 416.323 324.215C416.368 324.975 416.414 325.73 416.459 326.485Z" fill="#2D3D8B"/>
<path fill-rule="evenodd" clip-rule="evenodd" d="M245.804 183.6C245.23 183.612 244.657 183.622 244.09 183.633C244.667 183.622 245.235 183.611 245.804 183.6Z" fill="#2D3D8B"/>
<path fill-rule="evenodd" clip-rule="evenodd" d="M455.673 279.282C456.629 279.394 457.584 279.505 458.539 279.616C457.583 279.505 456.629 279.394 455.673 279.282Z" fill="#2D3D8B"/>
<path fill-rule="evenodd" clip-rule="evenodd" d="M257.189 216.478C256.6 216.487 256.013 216.495 255.432 216.505C256.022 216.497 256.605 216.487 257.189 216.478Z" fill="#2D3D8B"/>
<path fill-rule="evenodd" clip-rule="evenodd" d="M223.177 101.747C223.796 102.076 223.475 103.52 222.872 103.382C222.974 102.837 223.076 102.292 223.177 101.747Z" fill="#2D3D8B"/>
<path fill-rule="evenodd" clip-rule="evenodd" d="M541.414 273.426C540.846 273.411 540.28 273.396 539.721 273.382C540.289 273.397 540.852 273.412 541.414 273.426Z" fill="#2D3D8B"/>
<path fill-rule="evenodd" clip-rule="evenodd" d="M196.232 94.2566C196.171 92.9837 196.112 91.7115 196.052 90.4425C196.112 91.7166 196.172 92.9863 196.232 94.2566Z" fill="#2D3D8B"/>
<path fill-rule="evenodd" clip-rule="evenodd" d="M303.618 454.183C304.491 454.311 305.365 454.438 306.238 454.566C305.363 454.438 304.491 454.311 303.618 454.183Z" fill="#2D3D8B"/>
<path fill-rule="evenodd" clip-rule="evenodd" d="M297.844 126.505C294.764 127.138 291.601 127.468 288.593 128.399C287.842 128.631 285.38 130.058 284.481 129.682C283.115 129.11 283.806 127.642 284.381 126.858C285.92 124.763 288.673 123.589 291.198 123.615C293.718 123.642 297.177 123.55 297.844 126.505Z" fill="#2D3D8B"/>
<path fill-rule="evenodd" clip-rule="evenodd" d="M289.286 132.126C292.678 134.494 295.268 135.66 295.556 130.339C299.231 130.838 297.584 136.742 294.803 137.188C291.776 137.672 289.756 134.656 289.286 132.126Z" fill="#2D3D8B"/>
</svg>
