<svg width="10" height="10" viewBox="0 0 10 10" fill="none" xmlns="http://www.w3.org/2000/svg">
<path d="M5.91617 5.00008L9.80995 1.10607C10.0633 0.852789 10.0633 0.443255 9.80995 0.189967C9.55668 -0.0633222 9.14715 -0.0633222 8.89388 0.189967L4.99995 4.08397L1.10615 0.189967C0.852741 -0.0633222 0.443336 -0.0633222 0.190052 0.189967C-0.0633506 0.443255 -0.0633506 0.852789 0.190052 1.10607L4.08386 5.00008L0.190052 8.89411C-0.0633506 9.14738 -0.0633506 9.55692 0.190052 9.8102C0.316279 9.93653 0.482248 10 0.648098 10C0.813948 10 0.979802 9.93653 1.10615 9.8102L4.99995 5.91619L8.89388 9.8102C9.02022 9.93653 9.18608 10 9.35195 10C9.51782 10 9.68362 9.93653 9.80995 9.8102C10.0633 9.55692 10.0633 9.14738 9.80995 8.89411L5.91617 5.00008Z" fill="white"/>
</svg>
