<svg width="20" height="10" viewBox="0 0 20 10" fill="none" xmlns="http://www.w3.org/2000/svg">
<path d="M19.375 1.24997H0.625037C0.280023 1.24997 5.32569e-05 0.969946 5.32569e-05 0.624984C5.32569e-05 0.27997 0.280075 0 0.625037 0H19.375C19.72 0 20 0.280022 20 0.624984C20 0.969946 19.72 1.24997 19.375 1.24997Z" fill="white"/>
<path d="M0.625037 4.375H19.375C19.72 4.375 20 4.65502 20 4.99998C20 5.34495 19.72 5.62497 19.375 5.62497H0.625037C0.280023 5.62497 5.32569e-05 5.34495 5.32569e-05 4.99998C5.32569e-05 4.65502 0.280023 4.375 0.625037 4.375Z" fill="white"/>
<path d="M0.625033 8.75H13.125C13.47 8.75 13.75 9.03002 13.75 9.37498C13.75 9.72 13.47 9.99997 13.125 9.99997H0.625033C0.28002 9.99997 4.98775e-05 9.71995 4.98775e-05 9.37498C-2.07464e-06 9.02997 0.28002 8.75 0.625033 8.75Z" fill="white"/>
</svg>
