<svg width="20" height="20" viewBox="0 0 20 20" fill="none" xmlns="http://www.w3.org/2000/svg">
<g filter="url(#filter0_d_488_450)">
<rect x="1" y="1" width="18" height="18" rx="6" fill="white"/>
<path d="M11.25 11.1071C11.25 11.2847 11.1102 11.4286 10.9375 11.4286H9.0625C8.88984 11.4286 8.75 11.2847 8.75 11.1071V10.1429H5V13.0357C5 13.55 5.4375 14 5.9375 14H14.0625C14.5625 14 15 13.55 15 13.0357V10.1429H11.25V11.1071ZM14.0625 6.92857H12.5V5.96429C12.5 5.45 12.0625 5 11.5625 5H8.4375C7.9375 5 7.5 5.45 7.5 5.96429V6.92857H5.9375C5.4375 6.92857 5 7.37857 5 7.89286V9.5H15V7.89286C15 7.37857 14.5625 6.92857 14.0625 6.92857ZM11.25 6.92857H8.75V6.28571H11.25V6.92857Z" fill="#2454D3"/>
</g>
<defs>
<filter id="filter0_d_488_450" x="0" y="0" width="20" height="20" filterUnits="userSpaceOnUse" color-interpolation-filters="sRGB">
<feFlood flood-opacity="0" result="BackgroundImageFix"/>
<feColorMatrix in="SourceAlpha" type="matrix" values="0 0 0 0 0 0 0 0 0 0 0 0 0 0 0 0 0 0 127 0" result="hardAlpha"/>
<feOffset/>
<feGaussianBlur stdDeviation="0.5"/>
<feComposite in2="hardAlpha" operator="out"/>
<feColorMatrix type="matrix" values="0 0 0 0 0 0 0 0 0 0 0 0 0 0 0 0 0 0 0.18 0"/>
<feBlend mode="normal" in2="BackgroundImageFix" result="effect1_dropShadow_488_450"/>
<feBlend mode="normal" in="SourceGraphic" in2="effect1_dropShadow_488_450" result="shape"/>
</filter>
</defs>
</svg>
