<svg width="20" height="20" viewBox="0 0 20 20" fill="none" xmlns="http://www.w3.org/2000/svg">
<g filter="url(#filter0_d_489_519)">
<rect x="1" y="1" width="18" height="18" rx="6" fill="white"/>
<path d="M11.7843 8.125C11.4919 6.38086 10.8024 5.15625 10 5.15625C9.19758 5.15625 8.50806 6.38086 8.21573 8.125H11.7843ZM8.06452 10C8.06452 10.4336 8.08871 10.8496 8.13105 11.25H11.8669C11.9093 10.8496 11.9335 10.4336 11.9335 10C11.9335 9.56641 11.9093 9.15039 11.8669 8.75H8.13105C8.08871 9.15039 8.06452 9.56641 8.06452 10ZM14.6109 8.125C14.0343 6.79883 12.8669 5.77344 11.4254 5.35937C11.9173 6.01953 12.256 7.01367 12.4335 8.125H14.6109ZM8.57258 5.35937C7.13306 5.77344 5.96371 6.79883 5.38911 8.125H7.56653C7.74194 7.01367 8.08064 6.01953 8.57258 5.35937V5.35937ZM14.8266 8.75H12.5141C12.5565 9.16016 12.5806 9.58008 12.5806 10C12.5806 10.4199 12.5565 10.8398 12.5141 11.25H14.8246C14.9355 10.8496 14.998 10.4336 14.998 10C14.998 9.56641 14.9355 9.15039 14.8266 8.75ZM7.41935 10C7.41935 9.58008 7.44355 9.16016 7.48589 8.75H5.17339C5.06452 9.15039 5 9.56641 5 10C5 10.4336 5.06452 10.8496 5.17339 11.25H7.48387C7.44355 10.8398 7.41935 10.4199 7.41935 10V10ZM8.21573 11.875C8.50806 13.6191 9.19758 14.8438 10 14.8438C10.8024 14.8438 11.4919 13.6191 11.7843 11.875H8.21573ZM11.4274 14.6406C12.8669 14.2266 14.0363 13.2012 14.6129 11.875H12.4355C12.2581 12.9863 11.9194 13.9805 11.4274 14.6406ZM5.38911 11.875C5.96573 13.2012 7.13306 14.2266 8.5746 14.6406C8.08266 13.9805 7.74395 12.9863 7.56653 11.875H5.38911V11.875Z" fill="#2454D3"/>
</g>
<defs>
<filter id="filter0_d_489_519" x="0" y="0" width="20" height="20" filterUnits="userSpaceOnUse" color-interpolation-filters="sRGB">
<feFlood flood-opacity="0" result="BackgroundImageFix"/>
<feColorMatrix in="SourceAlpha" type="matrix" values="0 0 0 0 0 0 0 0 0 0 0 0 0 0 0 0 0 0 127 0" result="hardAlpha"/>
<feOffset/>
<feGaussianBlur stdDeviation="0.5"/>
<feComposite in2="hardAlpha" operator="out"/>
<feColorMatrix type="matrix" values="0 0 0 0 0 0 0 0 0 0 0 0 0 0 0 0 0 0 0.18 0"/>
<feBlend mode="normal" in2="BackgroundImageFix" result="effect1_dropShadow_489_519"/>
<feBlend mode="normal" in="SourceGraphic" in2="effect1_dropShadow_489_519" result="shape"/>
</filter>
</defs>
</svg>
