<svg width="20" height="20" viewBox="0 0 20 20" fill="none" xmlns="http://www.w3.org/2000/svg">
<g filter="url(#filter0_d_489_507)">
<rect x="1" y="1" width="18" height="18" rx="6" fill="white"/>
<path d="M13.5 8.5H6.5C6.22386 8.5 6 8.27614 6 8V7C6 6.72386 6.22386 6.5 6.5 6.5H13.5C13.7761 6.5 14 6.72386 14 7V8C14 8.27614 13.7761 8.5 13.5 8.5ZM12.75 7.125C12.5429 7.125 12.375 7.29289 12.375 7.5C12.375 7.70711 12.5429 7.875 12.75 7.875C12.9571 7.875 13.125 7.70711 13.125 7.5C13.125 7.29289 12.9571 7.125 12.75 7.125ZM11.75 7.125C11.5429 7.125 11.375 7.29289 11.375 7.5C11.375 7.70711 11.5429 7.875 11.75 7.875C11.9571 7.875 12.125 7.70711 12.125 7.5C12.125 7.29289 11.9571 7.125 11.75 7.125ZM13.5 11H6.5C6.22386 11 6 10.7761 6 10.5V9.5C6 9.22386 6.22386 9 6.5 9H13.5C13.7761 9 14 9.22386 14 9.5V10.5C14 10.7761 13.7761 11 13.5 11ZM12.75 9.625C12.5429 9.625 12.375 9.79289 12.375 10C12.375 10.2071 12.5429 10.375 12.75 10.375C12.9571 10.375 13.125 10.2071 13.125 10C13.125 9.79289 12.9571 9.625 12.75 9.625ZM11.75 9.625C11.5429 9.625 11.375 9.79289 11.375 10C11.375 10.2071 11.5429 10.375 11.75 10.375C11.9571 10.375 12.125 10.2071 12.125 10C12.125 9.79289 11.9571 9.625 11.75 9.625ZM13.5 13.5H6.5C6.22386 13.5 6 13.2761 6 13V12C6 11.7239 6.22386 11.5 6.5 11.5H13.5C13.7761 11.5 14 11.7239 14 12V13C14 13.2761 13.7761 13.5 13.5 13.5ZM12.75 12.125C12.5429 12.125 12.375 12.2929 12.375 12.5C12.375 12.7071 12.5429 12.875 12.75 12.875C12.9571 12.875 13.125 12.7071 13.125 12.5C13.125 12.2929 12.9571 12.125 12.75 12.125ZM11.75 12.125C11.5429 12.125 11.375 12.2929 11.375 12.5C11.375 12.7071 11.5429 12.875 11.75 12.875C11.9571 12.875 12.125 12.7071 12.125 12.5C12.125 12.2929 11.9571 12.125 11.75 12.125Z" fill="#2454D3"/>
</g>
<defs>
<filter id="filter0_d_489_507" x="0" y="0" width="20" height="20" filterUnits="userSpaceOnUse" color-interpolation-filters="sRGB">
<feFlood flood-opacity="0" result="BackgroundImageFix"/>
<feColorMatrix in="SourceAlpha" type="matrix" values="0 0 0 0 0 0 0 0 0 0 0 0 0 0 0 0 0 0 127 0" result="hardAlpha"/>
<feOffset/>
<feGaussianBlur stdDeviation="0.5"/>
<feComposite in2="hardAlpha" operator="out"/>
<feColorMatrix type="matrix" values="0 0 0 0 0 0 0 0 0 0 0 0 0 0 0 0 0 0 0.18 0"/>
<feBlend mode="normal" in2="BackgroundImageFix" result="effect1_dropShadow_489_507"/>
<feBlend mode="normal" in="SourceGraphic" in2="effect1_dropShadow_489_507" result="shape"/>
</filter>
</defs>
</svg>
