<svg width="20" height="20" viewBox="0 0 20 20" fill="none" xmlns="http://www.w3.org/2000/svg">
<g filter="url(#filter0_d_489_563)">
<rect x="1" y="1" width="18" height="18" rx="6" fill="white"/>
<path d="M12.1 5H7.9C7.40313 5 7 5.41992 7 5.9375V14.0625C7 14.5801 7.40313 15 7.9 15H12.1C12.5969 15 13 14.5801 13 14.0625V5.9375C13 5.41992 12.5969 5 12.1 5ZM10 14.375C9.66813 14.375 9.4 14.0957 9.4 13.75C9.4 13.4043 9.66813 13.125 10 13.125C10.3319 13.125 10.6 13.4043 10.6 13.75C10.6 14.0957 10.3319 14.375 10 14.375Z" fill="#2454D3"/>
</g>
<defs>
<filter id="filter0_d_489_563" x="0" y="0" width="20" height="20" filterUnits="userSpaceOnUse" color-interpolation-filters="sRGB">
<feFlood flood-opacity="0" result="BackgroundImageFix"/>
<feColorMatrix in="SourceAlpha" type="matrix" values="0 0 0 0 0 0 0 0 0 0 0 0 0 0 0 0 0 0 127 0" result="hardAlpha"/>
<feOffset/>
<feGaussianBlur stdDeviation="0.5"/>
<feComposite in2="hardAlpha" operator="out"/>
<feColorMatrix type="matrix" values="0 0 0 0 0 0 0 0 0 0 0 0 0 0 0 0 0 0 0.18 0"/>
<feBlend mode="normal" in2="BackgroundImageFix" result="effect1_dropShadow_489_563"/>
<feBlend mode="normal" in="SourceGraphic" in2="effect1_dropShadow_489_563" result="shape"/>
</filter>
</defs>
</svg>
