<svg width="20" height="20" viewBox="0 0 20 20" fill="none" xmlns="http://www.w3.org/2000/svg">
<g filter="url(#filter0_d_489_502)">
<rect x="1" y="1" width="18" height="18" rx="6" fill="white"/>
<path d="M8.41667 13.2857H8.83333V10.4643H8.41667C8.18654 10.4643 8 10.2894 8 10.0737V9.14062C8 8.92488 8.18654 8.75 8.41667 8.75H10.75C10.9801 8.75 11.1667 8.92488 11.1667 9.14062V13.2857H11.5833C11.8135 13.2857 12 13.4606 12 13.6763V14.6094C12 14.8251 11.8135 15 11.5833 15H8.41667C8.18654 15 8 14.8251 8 14.6094V13.6763C8 13.4606 8.18654 13.2857 8.41667 13.2857ZM10 5C9.17156 5 8.5 5.62959 8.5 6.40625C8.5 7.18291 9.17156 7.8125 10 7.8125C10.8284 7.8125 11.5 7.18291 11.5 6.40625C11.5 5.62959 10.8284 5 10 5Z" fill="#2454D3"/>
</g>
<defs>
<filter id="filter0_d_489_502" x="0" y="0" width="20" height="20" filterUnits="userSpaceOnUse" color-interpolation-filters="sRGB">
<feFlood flood-opacity="0" result="BackgroundImageFix"/>
<feColorMatrix in="SourceAlpha" type="matrix" values="0 0 0 0 0 0 0 0 0 0 0 0 0 0 0 0 0 0 127 0" result="hardAlpha"/>
<feOffset/>
<feGaussianBlur stdDeviation="0.5"/>
<feComposite in2="hardAlpha" operator="out"/>
<feColorMatrix type="matrix" values="0 0 0 0 0 0 0 0 0 0 0 0 0 0 0 0 0 0 0.18 0"/>
<feBlend mode="normal" in2="BackgroundImageFix" result="effect1_dropShadow_489_502"/>
<feBlend mode="normal" in="SourceGraphic" in2="effect1_dropShadow_489_502" result="shape"/>
</filter>
</defs>
</svg>
