<svg width="20" height="20" viewBox="0 0 20 20" fill="none" xmlns="http://www.w3.org/2000/svg">
<g filter="url(#filter0_d_489_543)">
<rect x="1" y="1" width="18" height="18" rx="6" fill="white"/>
<path d="M5.625 13.75C5.625 14.0957 5.9043 14.375 6.25 14.375H13.75C14.0957 14.375 14.375 14.0957 14.375 13.75V8.125H5.625V13.75ZM8.75 9.60938C8.75 9.48047 8.85547 9.375 8.98438 9.375H11.0156C11.1445 9.375 11.25 9.48047 11.25 9.60938V9.76562C11.25 9.89453 11.1445 10 11.0156 10H8.98438C8.85547 10 8.75 9.89453 8.75 9.76562V9.60938ZM14.375 5.625H5.625C5.2793 5.625 5 5.9043 5 6.25V7.1875C5 7.35938 5.14062 7.5 5.3125 7.5H14.6875C14.8594 7.5 15 7.35938 15 7.1875V6.25C15 5.9043 14.7207 5.625 14.375 5.625Z" fill="#2454D3"/>
</g>
<defs>
<filter id="filter0_d_489_543" x="0" y="0" width="20" height="20" filterUnits="userSpaceOnUse" color-interpolation-filters="sRGB">
<feFlood flood-opacity="0" result="BackgroundImageFix"/>
<feColorMatrix in="SourceAlpha" type="matrix" values="0 0 0 0 0 0 0 0 0 0 0 0 0 0 0 0 0 0 127 0" result="hardAlpha"/>
<feOffset/>
<feGaussianBlur stdDeviation="0.5"/>
<feComposite in2="hardAlpha" operator="out"/>
<feColorMatrix type="matrix" values="0 0 0 0 0 0 0 0 0 0 0 0 0 0 0 0 0 0 0.18 0"/>
<feBlend mode="normal" in2="BackgroundImageFix" result="effect1_dropShadow_489_543"/>
<feBlend mode="normal" in="SourceGraphic" in2="effect1_dropShadow_489_543" result="shape"/>
</filter>
</defs>
</svg>
