<svg width="20" height="20" viewBox="0 0 20 20" fill="none" xmlns="http://www.w3.org/2000/svg">
<g filter="url(#filter0_d_489_515)">
<rect x="1" y="1" width="18" height="18" rx="6" fill="white"/>
<path d="M11.6668 13.4375C11.6668 14.2991 10.9192 15 10.0002 15C9.08116 15 8.3335 14.2991 8.3335 13.4375C8.3335 12.5759 9.08116 11.875 10.0002 11.875C10.9192 11.875 11.6668 12.5759 11.6668 13.4375ZM8.52641 5.49217L8.80975 10.8047C8.82306 11.0541 9.04268 11.25 9.30912 11.25H10.6912C10.9576 11.25 11.1773 11.0541 11.1906 10.8047L11.4739 5.49217C11.4882 5.22441 11.2605 5 10.9745 5H9.02579C8.73983 5 8.51214 5.22441 8.52641 5.49217Z" fill="#2454D3"/>
</g>
<defs>
<filter id="filter0_d_489_515" x="0" y="0" width="20" height="20" filterUnits="userSpaceOnUse" color-interpolation-filters="sRGB">
<feFlood flood-opacity="0" result="BackgroundImageFix"/>
<feColorMatrix in="SourceAlpha" type="matrix" values="0 0 0 0 0 0 0 0 0 0 0 0 0 0 0 0 0 0 127 0" result="hardAlpha"/>
<feOffset/>
<feGaussianBlur stdDeviation="0.5"/>
<feComposite in2="hardAlpha" operator="out"/>
<feColorMatrix type="matrix" values="0 0 0 0 0 0 0 0 0 0 0 0 0 0 0 0 0 0 0.18 0"/>
<feBlend mode="normal" in2="BackgroundImageFix" result="effect1_dropShadow_489_515"/>
<feBlend mode="normal" in="SourceGraphic" in2="effect1_dropShadow_489_515" result="shape"/>
</filter>
</defs>
</svg>
