<svg width="20" height="20" viewBox="0 0 20 20" fill="none" xmlns="http://www.w3.org/2000/svg">
<g filter="url(#filter0_d_489_527)">
<rect x="1" y="1" width="18" height="18" rx="6" fill="white"/>
<path d="M6.5 9.5C7.05156 9.5 7.5 9.05156 7.5 8.5C7.5 7.94844 7.05156 7.5 6.5 7.5C5.94844 7.5 5.5 7.94844 5.5 8.5C5.5 9.05156 5.94844 9.5 6.5 9.5ZM13.5 9.5C14.0516 9.5 14.5 9.05156 14.5 8.5C14.5 7.94844 14.0516 7.5 13.5 7.5C12.9484 7.5 12.5 7.94844 12.5 8.5C12.5 9.05156 12.9484 9.5 13.5 9.5ZM14 10H13C12.725 10 12.4766 10.1109 12.2953 10.2906C12.925 10.6359 13.3719 11.2594 13.4688 12H14.5C14.7766 12 15 11.7766 15 11.5V11C15 10.4484 14.5516 10 14 10ZM10 10C10.9672 10 11.75 9.21719 11.75 8.25C11.75 7.28281 10.9672 6.5 10 6.5C9.03281 6.5 8.25 7.28281 8.25 8.25C8.25 9.21719 9.03281 10 10 10ZM11.2 10.5H11.0703C10.7453 10.6562 10.3844 10.75 10 10.75C9.61562 10.75 9.25625 10.6562 8.92969 10.5H8.8C7.80625 10.5 7 11.3063 7 12.3V12.75C7 13.1641 7.33594 13.5 7.75 13.5H12.25C12.6641 13.5 13 13.1641 13 12.75V12.3C13 11.3063 12.1937 10.5 11.2 10.5ZM7.70469 10.2906C7.52344 10.1109 7.275 10 7 10H6C5.44844 10 5 10.4484 5 11V11.5C5 11.7766 5.22344 12 5.5 12H6.52969C6.62813 11.2594 7.075 10.6359 7.70469 10.2906Z" fill="#2454D3"/>
</g>
<defs>
<filter id="filter0_d_489_527" x="0" y="0" width="20" height="20" filterUnits="userSpaceOnUse" color-interpolation-filters="sRGB">
<feFlood flood-opacity="0" result="BackgroundImageFix"/>
<feColorMatrix in="SourceAlpha" type="matrix" values="0 0 0 0 0 0 0 0 0 0 0 0 0 0 0 0 0 0 127 0" result="hardAlpha"/>
<feOffset/>
<feGaussianBlur stdDeviation="0.5"/>
<feComposite in2="hardAlpha" operator="out"/>
<feColorMatrix type="matrix" values="0 0 0 0 0 0 0 0 0 0 0 0 0 0 0 0 0 0 0.18 0"/>
<feBlend mode="normal" in2="BackgroundImageFix" result="effect1_dropShadow_489_527"/>
<feBlend mode="normal" in="SourceGraphic" in2="effect1_dropShadow_489_527" result="shape"/>
</filter>
</defs>
</svg>
