<svg width="20" height="20" viewBox="0 0 20 20" fill="none" xmlns="http://www.w3.org/2000/svg">
<g filter="url(#filter0_d_489_523)">
<rect x="1" y="1" width="18" height="18" rx="6" fill="white"/>
<path d="M10 10C11.2625 10 12.2857 8.88086 12.2857 7.5C12.2857 6.11914 11.2625 5 10 5C8.7375 5 7.71429 6.11914 7.71429 7.5C7.71429 8.88086 8.7375 10 10 10ZM11.6 10.625H11.3018C10.9054 10.8242 10.4643 10.9375 10 10.9375C9.53571 10.9375 9.09643 10.8242 8.69821 10.625H8.4C7.075 10.625 6 11.8008 6 13.25V14.0625C6 14.5801 6.38393 15 6.85714 15H13.1429C13.6161 15 14 14.5801 14 14.0625V13.25C14 11.8008 12.925 10.625 11.6 10.625Z" fill="#2454D3"/>
</g>
<defs>
<filter id="filter0_d_489_523" x="0" y="0" width="20" height="20" filterUnits="userSpaceOnUse" color-interpolation-filters="sRGB">
<feFlood flood-opacity="0" result="BackgroundImageFix"/>
<feColorMatrix in="SourceAlpha" type="matrix" values="0 0 0 0 0 0 0 0 0 0 0 0 0 0 0 0 0 0 127 0" result="hardAlpha"/>
<feOffset/>
<feGaussianBlur stdDeviation="0.5"/>
<feComposite in2="hardAlpha" operator="out"/>
<feColorMatrix type="matrix" values="0 0 0 0 0 0 0 0 0 0 0 0 0 0 0 0 0 0 0.18 0"/>
<feBlend mode="normal" in2="BackgroundImageFix" result="effect1_dropShadow_489_523"/>
<feBlend mode="normal" in="SourceGraphic" in2="effect1_dropShadow_489_523" result="shape"/>
</filter>
</defs>
</svg>
