<svg width="20" height="20" viewBox="0 0 20 20" fill="none" xmlns="http://www.w3.org/2000/svg">
<g filter="url(#filter0_d_489_500)">
<rect x="1" y="1" width="18" height="18" rx="6" fill="white"/>
<path d="M13.0024 8.9927L12.8742 9.21689C12.8274 9.29999 12.7273 9.33448 12.6383 9.30155C12.4539 9.23257 12.2851 9.1338 12.1367 9.00995C12.0648 8.95037 12.046 8.84533 12.0929 8.7638L12.2211 8.53961C12.1132 8.41419 12.0289 8.26839 11.9726 8.11004H11.7148C11.621 8.11004 11.5397 8.04263 11.5241 7.94856C11.4929 7.76042 11.4913 7.56288 11.5241 7.36691C11.5397 7.27284 11.621 7.20386 11.7148 7.20386H11.9726C12.0289 7.04552 12.1132 6.89971 12.2211 6.77429L12.0929 6.5501C12.046 6.46857 12.0632 6.36353 12.1367 6.30396C12.2851 6.1801 12.4555 6.08133 12.6383 6.01235C12.7273 5.97942 12.8274 6.01392 12.8742 6.09701L13.0024 6.3212C13.1664 6.29141 13.3336 6.29141 13.4977 6.3212L13.6259 6.09701C13.6727 6.01392 13.7727 5.97942 13.8618 6.01235C14.0462 6.08133 14.215 6.1801 14.3634 6.30396C14.4353 6.36353 14.4541 6.46857 14.4072 6.5501L14.279 6.77429C14.3869 6.89971 14.4712 7.04552 14.5275 7.20386H14.7853C14.8791 7.20386 14.9603 7.27128 14.976 7.36534C15.0072 7.55348 15.0088 7.75102 14.976 7.94699C14.9603 8.04106 14.8791 8.11004 14.7853 8.11004H14.5275C14.4712 8.26839 14.3869 8.41419 14.279 8.53961L14.4072 8.7638C14.4541 8.84533 14.4369 8.95037 14.3634 9.00995C14.215 9.1338 14.0446 9.23257 13.8618 9.30155C13.7727 9.33448 13.6727 9.29999 13.6259 9.21689L13.4977 8.9927C13.3352 9.02249 13.1664 9.02249 13.0024 8.9927V8.9927ZM12.8383 8.07084C13.4399 8.53491 14.1259 7.84665 13.6634 7.24306C13.0618 6.77743 12.3758 7.46725 12.8383 8.07084V8.07084ZM11.0366 10.4837L11.5632 10.747C11.721 10.838 11.7898 11.0308 11.7273 11.2033C11.5882 11.5827 11.3147 11.9307 11.0616 12.2349C10.946 12.3744 10.7459 12.4089 10.5881 12.318L10.1334 12.0546C9.88336 12.2694 9.59271 12.4403 9.2755 12.5516V13.0783C9.2755 13.2602 9.1458 13.417 8.96766 13.4483C8.58325 13.5142 8.1801 13.5173 7.78163 13.4483C7.60192 13.417 7.4691 13.2618 7.4691 13.0783V12.5516C7.15189 12.4387 6.86124 12.2694 6.61122 12.0546L6.15649 12.3164C6.00023 12.4073 5.79865 12.3728 5.68302 12.2333C5.42987 11.9292 5.16266 11.5811 5.02359 11.2033C4.96108 11.0324 5.02984 10.8395 5.18766 10.747L5.70802 10.4837C5.64708 10.156 5.64708 9.81892 5.70802 9.48969L5.18766 9.22473C5.02984 9.1338 4.95952 8.94096 5.02359 8.77008C5.16266 8.39067 5.42987 8.04263 5.68302 7.73848C5.79865 7.59894 5.99867 7.56445 6.15649 7.65538L6.61122 7.91877C6.86124 7.70398 7.15189 7.5331 7.4691 7.42178V6.89344C7.4691 6.71315 7.59724 6.55637 7.77538 6.52501C8.15978 6.45917 8.5645 6.45603 8.96297 6.52344C9.14268 6.5548 9.2755 6.71001 9.2755 6.89344V7.42022C9.59271 7.5331 9.88336 7.70242 10.1334 7.9172L10.5881 7.65382C10.7444 7.56288 10.946 7.59738 11.0616 7.73691C11.3147 8.04106 11.5804 8.3891 11.7195 8.76851C11.782 8.9394 11.721 9.13223 11.5632 9.22473L11.0366 9.48812C11.0975 9.81735 11.0975 10.1544 11.0366 10.4837V10.4837ZM9.19893 10.8145C10.124 9.60727 8.75046 8.22919 7.54723 9.15732C6.62216 10.3645 7.99571 11.7426 9.19893 10.8145ZM13.0024 13.6788L12.8742 13.903C12.8274 13.9861 12.7273 14.0206 12.6383 13.9877C12.4539 13.9187 12.2851 13.8199 12.1367 13.696C12.0648 13.6365 12.046 13.5314 12.0929 13.4499L12.2211 13.2257C12.1132 13.1003 12.0289 12.9545 11.9726 12.7961H11.7148C11.621 12.7961 11.5397 12.7287 11.5241 12.6347C11.4929 12.4465 11.4913 12.249 11.5241 12.053C11.5397 11.9589 11.621 11.89 11.7148 11.89H11.9726C12.0289 11.7316 12.1132 11.5858 12.2211 11.4604L12.0929 11.2362C12.046 11.1547 12.0632 11.0496 12.1367 10.9901C12.2851 10.8662 12.4555 10.7674 12.6383 10.6984C12.7273 10.6655 12.8274 10.7 12.8742 10.7831L13.0024 11.0073C13.1664 10.9775 13.3336 10.9775 13.4977 11.0073L13.6259 10.7831C13.6727 10.7 13.7727 10.6655 13.8618 10.6984C14.0462 10.7674 14.215 10.8662 14.3634 10.9901C14.4353 11.0496 14.4541 11.1547 14.4072 11.2362L14.279 11.4604C14.3869 11.5858 14.4712 11.7316 14.5275 11.89H14.7853C14.8791 11.89 14.9603 11.9574 14.976 12.0514C15.0072 12.2396 15.0088 12.4371 14.976 12.6331C14.9603 12.7272 14.8791 12.7961 14.7853 12.7961H14.5275C14.4712 12.9545 14.3869 13.1003 14.279 13.2257L14.4072 13.4499C14.4541 13.5314 14.4369 13.6365 14.3634 13.696C14.215 13.8199 14.0446 13.9187 13.8618 13.9877C13.7727 14.0206 13.6727 13.9861 13.6259 13.903L13.4977 13.6788C13.3352 13.7086 13.1664 13.7086 13.0024 13.6788ZM12.8383 12.7554C13.4399 13.2194 14.1259 12.5312 13.6634 11.9276C13.0618 11.4635 12.3758 12.1518 12.8383 12.7554V12.7554Z" fill="#2454D3"/>
</g>
<defs>
<filter id="filter0_d_489_500" x="0" y="0" width="20" height="20" filterUnits="userSpaceOnUse" color-interpolation-filters="sRGB">
<feFlood flood-opacity="0" result="BackgroundImageFix"/>
<feColorMatrix in="SourceAlpha" type="matrix" values="0 0 0 0 0 0 0 0 0 0 0 0 0 0 0 0 0 0 127 0" result="hardAlpha"/>
<feOffset/>
<feGaussianBlur stdDeviation="0.5"/>
<feComposite in2="hardAlpha" operator="out"/>
<feColorMatrix type="matrix" values="0 0 0 0 0 0 0 0 0 0 0 0 0 0 0 0 0 0 0.18 0"/>
<feBlend mode="normal" in2="BackgroundImageFix" result="effect1_dropShadow_489_500"/>
<feBlend mode="normal" in="SourceGraphic" in2="effect1_dropShadow_489_500" result="shape"/>
</filter>
</defs>
</svg>
