<svg width="20" height="20" viewBox="0 0 20 20" fill="none" xmlns="http://www.w3.org/2000/svg">
<g filter="url(#filter0_d_489_539)">
<rect x="1" y="1" width="18" height="18" rx="6" fill="white"/>
<path d="M14.1649 6.5H5.83507C5.37326 6.5 5 6.83594 5 7.25V12.75C5 13.1641 5.37326 13.5 5.83507 13.5H14.1649C14.6267 13.5 15 13.1641 15 12.75V7.25C15 6.83594 14.6267 6.5 14.1649 6.5ZM5.93924 7.25H14.0608C14.1181 7.25 14.1649 7.29219 14.1649 7.34375V8H5.83507V7.34375C5.83507 7.29219 5.88194 7.25 5.93924 7.25ZM14.0608 12.75H5.93924C5.88194 12.75 5.83507 12.7078 5.83507 12.6562V10H14.1649V12.6562C14.1649 12.7078 14.1181 12.75 14.0608 12.75ZM8.33333 11.1875V11.8125C8.33333 11.9156 8.23958 12 8.125 12H6.875C6.76042 12 6.66667 11.9156 6.66667 11.8125V11.1875C6.66667 11.0844 6.76042 11 6.875 11H8.125C8.23958 11 8.33333 11.0844 8.33333 11.1875ZM11.6667 11.1875V11.8125C11.6667 11.9156 11.5729 12 11.4583 12H9.09722C8.98264 12 8.88889 11.9156 8.88889 11.8125V11.1875C8.88889 11.0844 8.98264 11 9.09722 11H11.4583C11.5729 11 11.6667 11.0844 11.6667 11.1875Z" fill="#2454D3"/>
</g>
<defs>
<filter id="filter0_d_489_539" x="0" y="0" width="20" height="20" filterUnits="userSpaceOnUse" color-interpolation-filters="sRGB">
<feFlood flood-opacity="0" result="BackgroundImageFix"/>
<feColorMatrix in="SourceAlpha" type="matrix" values="0 0 0 0 0 0 0 0 0 0 0 0 0 0 0 0 0 0 127 0" result="hardAlpha"/>
<feOffset/>
<feGaussianBlur stdDeviation="0.5"/>
<feComposite in2="hardAlpha" operator="out"/>
<feColorMatrix type="matrix" values="0 0 0 0 0 0 0 0 0 0 0 0 0 0 0 0 0 0 0.18 0"/>
<feBlend mode="normal" in2="BackgroundImageFix" result="effect1_dropShadow_489_539"/>
<feBlend mode="normal" in="SourceGraphic" in2="effect1_dropShadow_489_539" result="shape"/>
</filter>
</defs>
</svg>
