<svg width="20" height="20" viewBox="0 0 20 20" fill="none" xmlns="http://www.w3.org/2000/svg">
<g filter="url(#filter0_d_490_608)">
<rect x="1" y="1" width="18" height="18" rx="6" fill="white"/>
<path d="M12.625 5H7.375C7.16875 5 7 5.21094 7 5.46875V6.40625C7 6.66406 7.16875 6.875 7.375 6.875H12.625C12.8312 6.875 13 6.66406 13 6.40625V5.46875C13 5.21094 12.8312 5 12.625 5ZM7.5 14.375C7.5 14.7188 7.725 15 8 15H12C12.275 15 12.5 14.7188 12.5 14.375V7.5H7.5V14.375ZM8.5 10.7812C8.5 10.6953 8.55625 10.625 8.625 10.625H9.5V9.53125C9.5 9.44531 9.55625 9.375 9.625 9.375H10.375C10.4438 9.375 10.5 9.44531 10.5 9.53125V10.625H11.375C11.4438 10.625 11.5 10.6953 11.5 10.7812V11.7188C11.5 11.8047 11.4438 11.875 11.375 11.875H10.5V12.9688C10.5 13.0547 10.4438 13.125 10.375 13.125H9.625C9.55625 13.125 9.5 13.0547 9.5 12.9688V11.875H8.625C8.55625 11.875 8.5 11.8047 8.5 11.7188V10.7812Z" fill="#2454D3"/>
</g>
<defs>
<filter id="filter0_d_490_608" x="0" y="0" width="20" height="20" filterUnits="userSpaceOnUse" color-interpolation-filters="sRGB">
<feFlood flood-opacity="0" result="BackgroundImageFix"/>
<feColorMatrix in="SourceAlpha" type="matrix" values="0 0 0 0 0 0 0 0 0 0 0 0 0 0 0 0 0 0 127 0" result="hardAlpha"/>
<feOffset/>
<feGaussianBlur stdDeviation="0.5"/>
<feComposite in2="hardAlpha" operator="out"/>
<feColorMatrix type="matrix" values="0 0 0 0 0 0 0 0 0 0 0 0 0 0 0 0 0 0 0.18 0"/>
<feBlend mode="normal" in2="BackgroundImageFix" result="effect1_dropShadow_490_608"/>
<feBlend mode="normal" in="SourceGraphic" in2="effect1_dropShadow_490_608" result="shape"/>
</filter>
</defs>
</svg>
