<svg width="20" height="20" viewBox="0 0 20 20" fill="none" xmlns="http://www.w3.org/2000/svg">
<g filter="url(#filter0_d_490_600)">
<rect x="1" y="1" width="18" height="18" rx="6" fill="white"/>
<path d="M14 6.42857V7.32143C14 8.10826 12.2083 8.75 10 8.75C7.79166 8.75 6 8.10826 6 7.32143V6.42857C6 5.64174 7.79166 5 10 5C12.2083 5 14 5.64174 14 6.42857ZM14 8.4375V10.4464C14 11.2333 12.2083 11.875 10 11.875C7.79166 11.875 6 11.2333 6 10.4464V8.4375C6.85938 9.08482 8.43229 9.38617 10 9.38617C11.5677 9.38617 13.1406 9.08482 14 8.4375ZM14 11.5625V13.5714C14 14.3583 12.2083 15 10 15C7.79166 15 6 14.3583 6 13.5714V11.5625C6.85938 12.2098 8.43229 12.5112 10 12.5112C11.5677 12.5112 13.1406 12.2098 14 11.5625Z" fill="#2454D3"/>
</g>
<defs>
<filter id="filter0_d_490_600" x="0" y="0" width="20" height="20" filterUnits="userSpaceOnUse" color-interpolation-filters="sRGB">
<feFlood flood-opacity="0" result="BackgroundImageFix"/>
<feColorMatrix in="SourceAlpha" type="matrix" values="0 0 0 0 0 0 0 0 0 0 0 0 0 0 0 0 0 0 127 0" result="hardAlpha"/>
<feOffset/>
<feGaussianBlur stdDeviation="0.5"/>
<feComposite in2="hardAlpha" operator="out"/>
<feColorMatrix type="matrix" values="0 0 0 0 0 0 0 0 0 0 0 0 0 0 0 0 0 0 0.18 0"/>
<feBlend mode="normal" in2="BackgroundImageFix" result="effect1_dropShadow_490_600"/>
<feBlend mode="normal" in="SourceGraphic" in2="effect1_dropShadow_490_600" result="shape"/>
</filter>
</defs>
</svg>
