<svg width="20" height="20" viewBox="0 0 20 20" fill="none" xmlns="http://www.w3.org/2000/svg">
<g filter="url(#filter0_d_489_531)">
<rect x="1" y="1" width="18" height="18" rx="6" fill="white"/>
<path d="M14.5 6.5H5.5C5.22391 6.5 5 6.72391 5 7V13C5 13.2761 5.22391 13.5 5.5 13.5H14.5C14.7761 13.5 15 13.2761 15 13V7C15 6.72391 14.7761 6.5 14.5 6.5ZM7.75 11.1231V11.375C7.75 11.4441 7.69406 11.5 7.625 11.5H7.375C7.30594 11.5 7.25 11.4441 7.25 11.375V11.1205C7.07359 11.1114 6.90203 11.0498 6.75984 10.9431C6.69891 10.8973 6.69578 10.8061 6.75094 10.7534L6.93453 10.5783C6.97781 10.537 7.04219 10.5352 7.09281 10.5669C7.15328 10.6047 7.22187 10.625 7.29312 10.625H7.73234C7.83391 10.625 7.91672 10.5325 7.91672 10.4189C7.91672 10.3259 7.86031 10.2441 7.77969 10.22L7.07656 10.0091C6.78609 9.92187 6.58312 9.64313 6.58312 9.33109C6.58312 8.94797 6.88078 8.63672 7.24984 8.62687V8.375C7.24984 8.30594 7.30578 8.25 7.37484 8.25H7.62484C7.69391 8.25 7.74984 8.30594 7.74984 8.375V8.62953C7.92625 8.63859 8.09781 8.7 8.24 8.80687C8.30094 8.85266 8.30406 8.94391 8.24891 8.99656L8.06531 9.17172C8.02203 9.21297 7.95766 9.21484 7.90703 9.18313C7.84656 9.14516 7.77797 9.125 7.70672 9.125H7.2675C7.16594 9.125 7.08313 9.2175 7.08313 9.33109C7.08313 9.42406 7.13953 9.50594 7.22016 9.53L7.92328 9.74094C8.21375 9.82812 8.41672 10.1069 8.41672 10.4189C8.41672 10.8022 8.11906 11.1133 7.75 11.1231V11.1231ZM11.5 10.875C11.5 10.9441 11.4441 11 11.375 11H9.625C9.55594 11 9.5 10.9441 9.5 10.875V10.625C9.5 10.5559 9.55594 10.5 9.625 10.5H11.375C11.4441 10.5 11.5 10.5559 11.5 10.625V10.875ZM14 10.875C14 10.9441 13.9441 11 13.875 11H12.625C12.5559 11 12.5 10.9441 12.5 10.875V10.625C12.5 10.5559 12.5559 10.5 12.625 10.5H13.875C13.9441 10.5 14 10.5559 14 10.625V10.875ZM14 9.375C14 9.44406 13.9441 9.5 13.875 9.5H9.625C9.55594 9.5 9.5 9.44406 9.5 9.375V9.125C9.5 9.05594 9.55594 9 9.625 9H13.875C13.9441 9 14 9.05594 14 9.125V9.375Z" fill="#2454D3"/>
</g>
<defs>
<filter id="filter0_d_489_531" x="0" y="0" width="20" height="20" filterUnits="userSpaceOnUse" color-interpolation-filters="sRGB">
<feFlood flood-opacity="0" result="BackgroundImageFix"/>
<feColorMatrix in="SourceAlpha" type="matrix" values="0 0 0 0 0 0 0 0 0 0 0 0 0 0 0 0 0 0 127 0" result="hardAlpha"/>
<feOffset/>
<feGaussianBlur stdDeviation="0.5"/>
<feComposite in2="hardAlpha" operator="out"/>
<feColorMatrix type="matrix" values="0 0 0 0 0 0 0 0 0 0 0 0 0 0 0 0 0 0 0.18 0"/>
<feBlend mode="normal" in2="BackgroundImageFix" result="effect1_dropShadow_489_531"/>
<feBlend mode="normal" in="SourceGraphic" in2="effect1_dropShadow_489_531" result="shape"/>
</filter>
</defs>
</svg>
