<svg width="20" height="20" viewBox="0 0 20 20" fill="none" xmlns="http://www.w3.org/2000/svg">
<g filter="url(#filter0_d_490_604)">
<rect x="1" y="1" width="18" height="18" rx="6" fill="white"/>
<path d="M9.5193 9.75545C9.50432 9.04535 9.35383 8.34464 9.07594 7.691C7.30251 8.51913 5.99977 10.0816 5.55446 11.9254C5.81507 12.5225 6.19299 13.0611 6.66579 13.5094C7.11541 11.9459 8.13318 10.607 9.5193 9.75545V9.75545ZM8.7986 7.13045C8.50155 6.6129 8.12299 6.14663 7.67751 5.74959C5.90016 6.72225 4.84938 8.73592 5.2361 10.8707C5.88844 9.24764 7.15798 7.90194 8.7986 7.13045ZM12.4627 10.3551C12.6306 8.40584 11.9295 6.49764 10.5584 5.191C10.2713 5.1578 9.55055 5.08358 8.62673 5.35702C9.75703 6.52828 10.4084 8.07992 10.4529 9.70702C11.0753 10.0493 11.7575 10.2693 12.4627 10.3551V10.3551ZM10.0271 10.5406C9.41963 10.9094 8.888 11.3907 8.46071 11.9586C10.0623 13.0777 12.0642 13.4254 13.8806 12.8922C14.2713 12.3687 14.5517 11.7713 14.7049 11.1363C14.1884 11.2679 13.6578 11.3361 13.1248 11.3394C12.0584 11.3375 10.9978 11.064 10.0271 10.5406ZM8.10719 12.4879C7.81032 12.9957 7.60524 13.5504 7.48024 14.1324C8.34664 14.6642 9.35884 14.9088 10.3725 14.8312C11.3861 14.7537 12.3493 14.3581 13.1248 13.7008C10.9197 14.0152 9.15407 13.2164 8.10719 12.4879V12.4879ZM11.6287 5.44491C12.7088 6.81991 13.24 8.59334 13.0857 10.398C13.6807 10.3993 14.2721 10.3057 14.8377 10.1207C14.8377 10.0816 14.8435 10.0426 14.8435 10.0035C14.8435 7.89803 13.5017 6.11483 11.6287 5.44491V5.44491Z" fill="#2454D3"/>
</g>
<defs>
<filter id="filter0_d_490_604" x="0" y="0" width="20" height="20" filterUnits="userSpaceOnUse" color-interpolation-filters="sRGB">
<feFlood flood-opacity="0" result="BackgroundImageFix"/>
<feColorMatrix in="SourceAlpha" type="matrix" values="0 0 0 0 0 0 0 0 0 0 0 0 0 0 0 0 0 0 127 0" result="hardAlpha"/>
<feOffset/>
<feGaussianBlur stdDeviation="0.5"/>
<feComposite in2="hardAlpha" operator="out"/>
<feColorMatrix type="matrix" values="0 0 0 0 0 0 0 0 0 0 0 0 0 0 0 0 0 0 0.18 0"/>
<feBlend mode="normal" in2="BackgroundImageFix" result="effect1_dropShadow_490_604"/>
<feBlend mode="normal" in="SourceGraphic" in2="effect1_dropShadow_490_604" result="shape"/>
</filter>
</defs>
</svg>
