<svg width="20" height="20" viewBox="0 0 20 20" fill="none" xmlns="http://www.w3.org/2000/svg">
<g filter="url(#filter0_d_490_588)">
<rect x="1" y="1" width="18" height="18" rx="6" fill="white"/>
<g clip-path="url(#clip0_490_588)">
<path d="M14.2857 5.625H5.71429C5.52485 5.625 5.34316 5.69085 5.20921 5.80806C5.07525 5.92527 5 6.08424 5 6.25V13.75C5 13.9158 5.07525 14.0747 5.20921 14.1919C5.34316 14.3092 5.52485 14.375 5.71429 14.375H14.2857C14.4752 14.375 14.6568 14.3092 14.7908 14.1919C14.9247 14.0747 15 13.9158 15 13.75V6.25C15 6.08424 14.9247 5.92527 14.7908 5.80806C14.6568 5.69085 14.4752 5.625 14.2857 5.625ZM13.5714 6.875V9.375H10.7143V6.875H13.5714ZM9.28571 6.875V9.375H6.42857V6.875H9.28571ZM6.42857 13.125V10.625H9.28571V13.125H6.42857ZM10.7143 13.125V10.625H13.5714V13.125H10.7143Z" fill="#2454D3"/>
</g>
</g>
<defs>
<filter id="filter0_d_490_588" x="0" y="0" width="20" height="20" filterUnits="userSpaceOnUse" color-interpolation-filters="sRGB">
<feFlood flood-opacity="0" result="BackgroundImageFix"/>
<feColorMatrix in="SourceAlpha" type="matrix" values="0 0 0 0 0 0 0 0 0 0 0 0 0 0 0 0 0 0 127 0" result="hardAlpha"/>
<feOffset/>
<feGaussianBlur stdDeviation="0.5"/>
<feComposite in2="hardAlpha" operator="out"/>
<feColorMatrix type="matrix" values="0 0 0 0 0 0 0 0 0 0 0 0 0 0 0 0 0 0 0.18 0"/>
<feBlend mode="normal" in2="BackgroundImageFix" result="effect1_dropShadow_490_588"/>
<feBlend mode="normal" in="SourceGraphic" in2="effect1_dropShadow_490_588" result="shape"/>
</filter>
<clipPath id="clip0_490_588">
<rect width="10" height="10" fill="white" transform="translate(5 5)"/>
</clipPath>
</defs>
</svg>
