<svg width="400" height="400" viewBox="0 0 400 400" fill="none" xmlns="http://www.w3.org/2000/svg">
<rect width="400" height="400" fill="#10214F"/>
<path d="M199.5 199.5C230.589 199.5 255.786 171.857 255.786 137.75C255.786 103.643 230.589 76 199.5 76C168.411 76 143.214 103.643 143.214 137.75C143.214 171.857 168.411 199.5 199.5 199.5ZM238.9 214.938H231.556C221.794 219.858 210.933 222.656 199.5 222.656C188.067 222.656 177.25 219.858 167.444 214.938H160.1C127.472 214.938 101 243.979 101 279.775V299.844C101 312.628 110.454 323 122.107 323H276.893C288.546 323 298 312.628 298 299.844V279.775C298 243.979 271.528 214.938 238.9 214.938Z" fill="white"/>
</svg>
