<svg width="200" height="125" viewBox="0 0 200 125" fill="none" xmlns="http://www.w3.org/2000/svg">
<rect width="200" height="125" fill="#1988E0"/>
<path d="M53.1036 56.242C53.1036 57.282 52.835 58.1573 52.2976 58.868C51.7603 59.5613 51.0323 60.09 50.1136 60.454C49.2123 60.818 48.2243 61 47.1496 61H38.2316V42.54H48.1116C48.9783 42.54 49.7236 42.774 50.3476 43.242C50.989 43.6927 51.4743 44.282 51.8036 45.01C52.1503 45.7207 52.3236 46.466 52.3236 47.246C52.3236 48.13 52.0983 48.9707 51.6476 49.768C51.197 50.5653 50.5383 51.1547 49.6716 51.536C50.729 51.848 51.561 52.4113 52.1676 53.226C52.7916 54.0407 53.1036 55.046 53.1036 56.242ZM49.4896 55.566C49.4896 55.098 49.3943 54.682 49.2036 54.318C49.013 53.9367 48.753 53.642 48.4236 53.434C48.1116 53.2087 47.7476 53.096 47.3316 53.096H41.8196V57.958H47.1496C47.583 57.958 47.973 57.854 48.3196 57.646C48.6836 57.4207 48.9696 57.126 49.1776 56.762C49.3856 56.398 49.4896 55.9993 49.4896 55.566ZM41.8196 45.608V50.262H46.6036C47.0023 50.262 47.3663 50.1667 47.6956 49.976C48.025 49.7853 48.285 49.5167 48.4756 49.17C48.6836 48.8233 48.7876 48.4073 48.7876 47.922C48.7876 47.454 48.6923 47.0467 48.5016 46.7C48.3283 46.3533 48.0856 46.0847 47.7736 45.894C47.479 45.7033 47.141 45.608 46.7596 45.608H41.8196ZM61.8575 61.26C60.7482 61.26 59.7515 61.078 58.8675 60.714C57.9835 60.3327 57.2295 59.8127 56.6055 59.154C55.9988 58.4953 55.5308 57.7413 55.2015 56.892C54.8722 56.0427 54.7075 55.15 54.7075 54.214C54.7075 53.2607 54.8722 52.3593 55.2015 51.51C55.5308 50.6607 55.9988 49.9067 56.6055 49.248C57.2295 48.5893 57.9835 48.078 58.8675 47.714C59.7515 47.3327 60.7482 47.142 61.8575 47.142C62.9668 47.142 63.9548 47.3327 64.8215 47.714C65.7055 48.078 66.4595 48.5893 67.0835 49.248C67.7075 49.9067 68.1755 50.6607 68.4875 51.51C68.8168 52.3593 68.9815 53.2607 68.9815 54.214C68.9815 55.15 68.8168 56.0427 68.4875 56.892C68.1755 57.7413 67.7075 58.4953 67.0835 59.154C66.4768 59.8127 65.7315 60.3327 64.8475 60.714C63.9635 61.078 62.9668 61.26 61.8575 61.26ZM58.2955 54.214C58.2955 55.0113 58.4515 55.722 58.7635 56.346C59.0755 56.9527 59.5002 57.4293 60.0375 57.776C60.5748 58.1227 61.1815 58.296 61.8575 58.296C62.5162 58.296 63.1142 58.1227 63.6515 57.776C64.1888 57.412 64.6135 56.9267 64.9255 56.32C65.2548 55.696 65.4195 54.9853 65.4195 54.188C65.4195 53.408 65.2548 52.706 64.9255 52.082C64.6135 51.458 64.1888 50.9727 63.6515 50.626C63.1142 50.2793 62.5162 50.106 61.8575 50.106C61.1815 50.106 60.5748 50.288 60.0375 50.652C59.5002 50.9987 59.0755 51.484 58.7635 52.108C58.4515 52.7147 58.2955 53.4167 58.2955 54.214ZM77.6251 61.26C76.5157 61.26 75.5191 61.078 74.6351 60.714C73.7511 60.3327 72.9971 59.8127 72.3731 59.154C71.7664 58.4953 71.2984 57.7413 70.9691 56.892C70.6397 56.0427 70.4751 55.15 70.4751 54.214C70.4751 53.2607 70.6397 52.3593 70.9691 51.51C71.2984 50.6607 71.7664 49.9067 72.3731 49.248C72.9971 48.5893 73.7511 48.078 74.6351 47.714C75.5191 47.3327 76.5157 47.142 77.6251 47.142C78.7344 47.142 79.7224 47.3327 80.5891 47.714C81.4731 48.078 82.2271 48.5893 82.8511 49.248C83.4751 49.9067 83.9431 50.6607 84.2551 51.51C84.5844 52.3593 84.7491 53.2607 84.7491 54.214C84.7491 55.15 84.5844 56.0427 84.2551 56.892C83.9431 57.7413 83.4751 58.4953 82.8511 59.154C82.2444 59.8127 81.4991 60.3327 80.6151 60.714C79.7311 61.078 78.7344 61.26 77.6251 61.26ZM74.0631 54.214C74.0631 55.0113 74.2191 55.722 74.5311 56.346C74.8431 56.9527 75.2677 57.4293 75.8051 57.776C76.3424 58.1227 76.9491 58.296 77.6251 58.296C78.2837 58.296 78.8817 58.1227 79.4191 57.776C79.9564 57.412 80.3811 56.9267 80.6931 56.32C81.0224 55.696 81.1871 54.9853 81.1871 54.188C81.1871 53.408 81.0224 52.706 80.6931 52.082C80.3811 51.458 79.9564 50.9727 79.4191 50.626C78.8817 50.2793 78.2837 50.106 77.6251 50.106C76.9491 50.106 76.3424 50.288 75.8051 50.652C75.2677 50.9987 74.8431 51.484 74.5311 52.108C74.2191 52.7147 74.0631 53.4167 74.0631 54.214ZM96.4086 61L92.4306 55.124L90.5846 56.944V61H87.1006V42.02H90.5846V53.512L96.0706 47.402H99.7626L94.6926 53.174L100.127 61H96.4086ZM122.763 61H119.279V53.356C119.279 52.2813 119.088 51.4927 118.707 50.99C118.343 50.47 117.831 50.21 117.173 50.21C116.497 50.21 115.847 50.4787 115.223 51.016C114.616 51.536 114.183 52.2207 113.923 53.07V61H110.439V53.356C110.439 52.264 110.248 51.4667 109.867 50.964C109.503 50.4613 108.991 50.21 108.333 50.21C107.657 50.21 107.007 50.47 106.383 50.99C105.776 51.51 105.343 52.1947 105.083 53.044V61H101.599V47.376H104.745V49.898C105.265 49.014 105.958 48.338 106.825 47.87C107.691 47.3847 108.688 47.142 109.815 47.142C110.941 47.142 111.817 47.4193 112.441 47.974C113.082 48.5287 113.489 49.2133 113.663 50.028C114.217 49.092 114.919 48.3813 115.769 47.896C116.635 47.3933 117.606 47.142 118.681 47.142C119.53 47.142 120.215 47.298 120.735 47.61C121.272 47.9047 121.688 48.312 121.983 48.832C122.277 49.3347 122.477 49.9067 122.581 50.548C122.702 51.1893 122.763 51.8393 122.763 52.498V61ZM124.86 56.97C124.86 56.086 125.103 55.3147 125.588 54.656C126.091 53.98 126.784 53.46 127.668 53.096C128.552 52.732 129.566 52.55 130.71 52.55C131.282 52.55 131.863 52.5933 132.452 52.68C133.041 52.7667 133.553 52.9053 133.986 53.096V52.368C133.986 51.5013 133.726 50.834 133.206 50.366C132.703 49.898 131.949 49.664 130.944 49.664C130.199 49.664 129.488 49.794 128.812 50.054C128.136 50.314 127.425 50.6953 126.68 51.198L125.562 48.91C126.463 48.3207 127.382 47.8787 128.318 47.584C129.271 47.2893 130.268 47.142 131.308 47.142C133.249 47.142 134.757 47.6273 135.832 48.598C136.924 49.5687 137.47 50.9553 137.47 52.758V57.1C137.47 57.464 137.531 57.724 137.652 57.88C137.791 58.036 138.007 58.1313 138.302 58.166V61C137.99 61.052 137.704 61.0953 137.444 61.13C137.201 61.1647 136.993 61.182 136.82 61.182C136.127 61.182 135.598 61.026 135.234 60.714C134.887 60.402 134.671 60.0207 134.584 59.57L134.506 58.868C133.917 59.6307 133.18 60.22 132.296 60.636C131.412 61.052 130.511 61.26 129.592 61.26C128.691 61.26 127.876 61.078 127.148 60.714C126.437 60.3327 125.874 59.8213 125.458 59.18C125.059 58.5213 124.86 57.7847 124.86 56.97ZM133.336 57.672C133.527 57.464 133.683 57.256 133.804 57.048C133.925 56.84 133.986 56.6493 133.986 56.476V55.098C133.57 54.9247 133.119 54.7947 132.634 54.708C132.149 54.604 131.689 54.552 131.256 54.552C130.355 54.552 129.609 54.7513 129.02 55.15C128.448 55.5313 128.162 56.0427 128.162 56.684C128.162 57.0307 128.257 57.36 128.448 57.672C128.639 57.984 128.916 58.2353 129.28 58.426C129.644 58.6167 130.077 58.712 130.58 58.712C131.1 58.712 131.611 58.6167 132.114 58.426C132.617 58.218 133.024 57.9667 133.336 57.672ZM148.838 50.392C147.78 50.392 146.836 50.6 146.004 51.016C145.172 51.4147 144.574 51.9953 144.21 52.758V61H140.726V47.376H143.924V50.288C144.409 49.352 145.024 48.6153 145.77 48.078C146.515 47.5407 147.304 47.246 148.136 47.194C148.326 47.194 148.474 47.194 148.578 47.194C148.682 47.194 148.768 47.2027 148.838 47.22V50.392ZM160.088 61L156.11 55.124L154.264 56.944V61H150.78V42.02H154.264V53.512L159.75 47.402H163.442L158.372 53.174L163.806 61H160.088Z" fill="white"/>
<path d="M77.7331 89.2H73.8331L73.0891 91H71.0971L74.8411 82.6H76.7611L80.5171 91H78.4771L77.7331 89.2ZM77.1211 87.724L75.7891 84.508L74.4571 87.724H77.1211ZM83.0446 85.396C83.2686 85.084 83.5686 84.848 83.9446 84.688C84.3286 84.528 84.7686 84.448 85.2646 84.448V86.176C85.0566 86.16 84.9166 86.152 84.8446 86.152C84.3086 86.152 83.8886 86.304 83.5846 86.608C83.2806 86.904 83.1286 87.352 83.1286 87.952V91H81.2566V84.544H83.0446V85.396ZM90.7643 90.688C90.5803 90.824 90.3523 90.928 90.0803 91C89.8163 91.064 89.5363 91.096 89.2403 91.096C88.4723 91.096 87.8763 90.9 87.4523 90.508C87.0363 90.116 86.8283 89.54 86.8283 88.78V86.128H85.8323V84.688H86.8283V83.116H88.7003V84.688H90.3083V86.128H88.7003V88.756C88.7003 89.028 88.7683 89.24 88.9043 89.392C89.0483 89.536 89.2483 89.608 89.5043 89.608C89.8003 89.608 90.0523 89.528 90.2603 89.368L90.7643 90.688ZM91.8152 84.544H93.6872V91H91.8152V84.544ZM92.7512 83.644C92.4072 83.644 92.1272 83.544 91.9112 83.344C91.6952 83.144 91.5872 82.896 91.5872 82.6C91.5872 82.304 91.6952 82.056 91.9112 81.856C92.1272 81.656 92.4072 81.556 92.7512 81.556C93.0952 81.556 93.3752 81.652 93.5912 81.844C93.8072 82.036 93.9152 82.276 93.9152 82.564C93.9152 82.876 93.8072 83.136 93.5912 83.344C93.3752 83.544 93.0952 83.644 92.7512 83.644ZM95.5565 82.6H97.5005V89.416H101.713V91H95.5565V82.6ZM102.667 84.544H104.539V91H102.667V84.544ZM103.603 83.644C103.259 83.644 102.979 83.544 102.763 83.344C102.547 83.144 102.439 82.896 102.439 82.6C102.439 82.304 102.547 82.056 102.763 81.856C102.979 81.656 103.259 81.556 103.603 81.556C103.947 81.556 104.227 81.652 104.443 81.844C104.659 82.036 104.767 82.276 104.767 82.564C104.767 82.876 104.659 83.136 104.443 83.344C104.227 83.544 103.947 83.644 103.603 83.644ZM110.2 84.448C111 84.448 111.644 84.688 112.132 85.168C112.628 85.648 112.876 86.36 112.876 87.304V91H111.004V87.592C111.004 87.08 110.892 86.7 110.668 86.452C110.444 86.196 110.12 86.068 109.696 86.068C109.224 86.068 108.848 86.216 108.568 86.512C108.288 86.8 108.148 87.232 108.148 87.808V91H106.276V84.544H108.064V85.3C108.312 85.028 108.62 84.82 108.988 84.676C109.356 84.524 109.76 84.448 110.2 84.448ZM117.345 88.468L116.445 89.356V91H114.573V82.096H116.445V87.136L119.181 84.544H121.413L118.725 87.28L121.653 91H119.385L117.345 88.468ZM124.456 91.096C123.92 91.096 123.396 91.032 122.884 90.904C122.372 90.768 121.964 90.6 121.66 90.4L122.284 89.056C122.572 89.24 122.92 89.392 123.328 89.512C123.736 89.624 124.136 89.68 124.528 89.68C125.32 89.68 125.716 89.484 125.716 89.092C125.716 88.908 125.608 88.776 125.392 88.696C125.176 88.616 124.844 88.548 124.396 88.492C123.868 88.412 123.432 88.32 123.088 88.216C122.744 88.112 122.444 87.928 122.188 87.664C121.94 87.4 121.816 87.024 121.816 86.536C121.816 86.128 121.932 85.768 122.164 85.456C122.404 85.136 122.748 84.888 123.196 84.712C123.652 84.536 124.188 84.448 124.804 84.448C125.26 84.448 125.712 84.5 126.16 84.604C126.616 84.7 126.992 84.836 127.288 85.012L126.664 86.344C126.096 86.024 125.476 85.864 124.804 85.864C124.404 85.864 124.104 85.92 123.904 86.032C123.704 86.144 123.604 86.288 123.604 86.464C123.604 86.664 123.712 86.804 123.928 86.884C124.144 86.964 124.488 87.04 124.96 87.112C125.488 87.2 125.92 87.296 126.256 87.4C126.592 87.496 126.884 87.676 127.132 87.94C127.38 88.204 127.504 88.572 127.504 89.044C127.504 89.444 127.384 89.8 127.144 90.112C126.904 90.424 126.552 90.668 126.088 90.844C125.632 91.012 125.088 91.096 124.456 91.096Z" fill="white" fill-opacity="0.6"/>
</svg>
