<svg width="15" height="3" viewBox="0 0 15 3" fill="none" xmlns="http://www.w3.org/2000/svg">
<path d="M1.5 3C2.32843 3 3 2.32843 3 1.5C3 0.671573 2.32843 0 1.5 0C0.671573 0 0 0.671573 0 1.5C0 2.32843 0.671573 3 1.5 3Z" fill="white"/>
<path d="M7.5 3C8.32843 3 9 2.32843 9 1.5C9 0.671573 8.32843 0 7.5 0C6.67157 0 6 0.671573 6 1.5C6 2.32843 6.67157 3 7.5 3Z" fill="white"/>
<path d="M13.4998 3C14.3282 3 14.9998 2.32843 14.9998 1.5C14.9998 0.671573 14.3282 0 13.4998 0C12.6713 0 11.9998 0.671573 11.9998 1.5C11.9998 2.32843 12.6713 3 13.4998 3Z" fill="white"/>
</svg>
