<svg width="30" height="30" viewBox="0 0 30 30" fill="none" xmlns="http://www.w3.org/2000/svg">
<g clip-path="url(#clip0_65_167)">
<path d="M9.85714 19.7811C9.85714 20.1043 9.9926 20.4143 10.2337 20.6429C10.4748 20.8714 10.8019 20.9998 11.1429 20.9998H18.8571C19.1981 20.9998 19.5252 20.8714 19.7663 20.6429C20.0074 20.4143 20.1429 20.1043 20.1429 19.7811V11.2498H9.85714V19.7811ZM17.1429 13.2811C17.1429 13.1733 17.188 13.07 17.2684 12.9938C17.3488 12.9176 17.4578 12.8748 17.5714 12.8748C17.6851 12.8748 17.7941 12.9176 17.8745 12.9938C17.9548 13.07 18 13.1733 18 13.2811V18.9686C18 19.0763 17.9548 19.1797 17.8745 19.2558C17.7941 19.332 17.6851 19.3748 17.5714 19.3748C17.4578 19.3748 17.3488 19.332 17.2684 19.2558C17.188 19.1797 17.1429 19.0763 17.1429 18.9686V13.2811ZM14.5714 13.2811C14.5714 13.1733 14.6166 13.07 14.697 12.9938C14.7773 12.9176 14.8863 12.8748 15 12.8748C15.1137 12.8748 15.2227 12.9176 15.303 12.9938C15.3834 13.07 15.4286 13.1733 15.4286 13.2811V18.9686C15.4286 19.0763 15.3834 19.1797 15.303 19.2558C15.2227 19.332 15.1137 19.3748 15 19.3748C14.8863 19.3748 14.7773 19.332 14.697 19.2558C14.6166 19.1797 14.5714 19.0763 14.5714 18.9686V13.2811ZM12 13.2811C12 13.1733 12.0452 13.07 12.1255 12.9938C12.2059 12.9176 12.3149 12.8748 12.4286 12.8748C12.5422 12.8748 12.6512 12.9176 12.7316 12.9938C12.812 13.07 12.8571 13.1733 12.8571 13.2811V18.9686C12.8571 19.0763 12.812 19.1797 12.7316 19.2558C12.6512 19.332 12.5422 19.3748 12.4286 19.3748C12.3149 19.3748 12.2059 19.332 12.1255 19.2558C12.0452 19.1797 12 19.0763 12 18.9686V13.2811ZM20.5714 8.81234H17.3571L17.1054 8.33753C17.052 8.23602 16.9699 8.15064 16.8681 8.09098C16.7664 8.03132 16.6491 7.99976 16.5295 7.99984H13.4679C13.3485 7.9994 13.2314 8.03085 13.13 8.09057C13.0287 8.1503 12.9471 8.23589 12.8946 8.33753L12.6429 8.81234H9.42857C9.31491 8.81234 9.2059 8.85514 9.12553 8.93132C9.04515 9.00751 9 9.11084 9 9.21859V10.0311C9 10.1388 9.04515 10.2422 9.12553 10.3183C9.2059 10.3945 9.31491 10.4373 9.42857 10.4373H20.5714C20.6851 10.4373 20.7941 10.3945 20.8745 10.3183C20.9548 10.2422 21 10.1388 21 10.0311V9.21859C21 9.11084 20.9548 9.00751 20.8745 8.93132C20.7941 8.85514 20.6851 8.81234 20.5714 8.81234Z" fill="#6A6A6A"/>
</g>
<rect x="0.5" y="0.5" width="29" height="29" rx="7.5" stroke="#6A6A6A"/>
<defs>
<clipPath id="clip0_65_167">
<rect width="12" height="13" fill="white" transform="translate(9 8)"/>
</clipPath>
</defs>
</svg>
