<svg width="30" height="30" viewBox="0 0 30 30" fill="none" xmlns="http://www.w3.org/2000/svg">
<g clip-path="url(#clip0_65_163)">
<path d="M19.4844 10.1138L21.8333 12.4041C21.9323 12.5006 21.9323 12.658 21.8333 12.7545L16.1458 18.2998L13.7292 18.5613C13.4062 18.5968 13.1328 18.3302 13.1693 18.0154L13.4375 15.6592L19.125 10.1138C19.224 10.0174 19.3854 10.0174 19.4844 10.1138ZM23.7031 9.53239L22.4323 8.29333C22.0365 7.90739 21.3932 7.90739 20.9948 8.29333L20.0729 9.19216C19.974 9.28864 19.974 9.44606 20.0729 9.54255L22.4219 11.8328C22.5208 11.9293 22.6823 11.9293 22.7812 11.8328L23.7031 10.934C24.099 10.5455 24.099 9.91833 23.7031 9.53239ZM19 16.7916V19.3763H10.6667V11.2513H16.651C16.7344 11.2513 16.8125 11.2183 16.8724 11.1625L17.9141 10.1468C18.112 9.95388 17.9714 9.62634 17.6927 9.62634H10.25C9.5599 9.62634 9 10.1722 9 10.8451V19.7826C9 20.4554 9.5599 21.0013 10.25 21.0013H19.4167C20.1068 21.0013 20.6667 20.4554 20.6667 19.7826V15.7759C20.6667 15.5043 20.3307 15.3697 20.1328 15.5601L19.0911 16.5758C19.0339 16.6342 19 16.7103 19 16.7916Z" fill="#6A6A6A"/>
</g>
<rect x="0.5" y="0.5" width="29" height="29" rx="7.5" stroke="#6A6A6A"/>
<defs>
<clipPath id="clip0_65_163">
<rect width="15" height="13" fill="white" transform="translate(9 8)"/>
</clipPath>
</defs>
</svg>
