<svg width="30" height="30" viewBox="0 0 30 30" fill="none" xmlns="http://www.w3.org/2000/svg">
<g clip-path="url(#clip0_65_155)">
<path d="M19.8125 16.75H18.9375C18.8215 16.75 18.7102 16.7961 18.6281 16.8781C18.5461 16.9602 18.5 17.0715 18.5 17.1875V20.25H9.75V11.5H13.6875C13.8035 11.5 13.9148 11.4539 13.9969 11.3719C14.0789 11.2898 14.125 11.1785 14.125 11.0625V10.1875C14.125 10.0715 14.0789 9.96019 13.9969 9.87814C13.9148 9.79609 13.8035 9.75 13.6875 9.75H9.3125C8.9644 9.75 8.63056 9.88828 8.38442 10.1344C8.13828 10.3806 8 10.7144 8 11.0625V20.6875C8 21.0356 8.13828 21.3694 8.38442 21.6156C8.63056 21.8617 8.9644 22 9.3125 22H18.9375C19.2856 22 19.6194 21.8617 19.8656 21.6156C20.1117 21.3694 20.25 21.0356 20.25 20.6875V17.1875C20.25 17.0715 20.2039 16.9602 20.1219 16.8781C20.0398 16.7961 19.9285 16.75 19.8125 16.75ZM21.3438 8H17.8438C17.2594 8 16.9674 8.70848 17.3789 9.12109L18.3559 10.0981L11.6914 16.7601C11.6302 16.8211 11.5817 16.8935 11.5486 16.9733C11.5154 17.0531 11.4984 17.1386 11.4984 17.225C11.4984 17.3113 11.5154 17.3969 11.5486 17.4766C11.5817 17.5564 11.6302 17.6288 11.6914 17.6898L12.3113 18.3086C12.3723 18.3698 12.4447 18.4183 12.5245 18.4514C12.6042 18.4846 12.6898 18.5016 12.7761 18.5016C12.8625 18.5016 12.948 18.4846 13.0278 18.4514C13.1076 18.4183 13.18 18.3698 13.241 18.3086L19.9022 11.6455L20.8789 12.6211C21.2891 13.0312 22 12.7441 22 12.1562V8.65625C22 8.4822 21.9309 8.31528 21.8078 8.19221C21.6847 8.06914 21.5178 8 21.3438 8V8Z" fill="#6A6A6A"/>
</g>
<rect x="0.5" y="0.5" width="29" height="29" rx="7.5" stroke="#6A6A6A"/>
<defs>
<clipPath id="clip0_65_155">
<rect width="14" height="14" fill="white" transform="translate(8 8)"/>
</clipPath>
</defs>
</svg>
