<svg width="30" height="30" viewBox="0 0 30 30" fill="none" xmlns="http://www.w3.org/2000/svg">
<path d="M22.9033 14.6008C21.3969 11.7075 18.4147 9.75 15 9.75C11.5853 9.75 8.60221 11.7089 7.09665 14.6011C7.03311 14.7248 7 14.8615 7 15.0001C7 15.1388 7.03311 15.2755 7.09665 15.3992C8.60304 18.2925 11.5853 20.25 15 20.25C18.4147 20.25 21.3978 18.2911 22.9033 15.3989C22.9669 15.2752 23 15.1385 23 14.9999C23 14.8612 22.9669 14.7245 22.9033 14.6008ZM15 18.9375C14.2089 18.9375 13.4355 18.7066 12.7777 18.2739C12.1199 17.8413 11.6072 17.2263 11.3045 16.5068C11.0017 15.7873 10.9225 14.9956 11.0768 14.2318C11.2312 13.468 11.6121 12.7664 12.1716 12.2158C12.731 11.6651 13.4437 11.2901 14.2196 11.1382C14.9955 10.9862 15.7998 11.0642 16.5307 11.3622C17.2616 11.6602 17.8863 12.1649 18.3259 12.8124C18.7654 13.46 19 14.2212 19 15C19.0002 15.5172 18.897 16.0293 18.696 16.5071C18.4951 16.9849 18.2005 17.4191 17.829 17.7848C17.4575 18.1505 17.0164 18.4405 16.531 18.6383C16.0456 18.8361 15.5253 18.9378 15 18.9375ZM15 12.375C14.762 12.3783 14.5255 12.4131 14.2969 12.4786C14.4853 12.7307 14.5757 13.0408 14.5518 13.3528C14.5278 13.6648 14.391 13.958 14.1662 14.1793C13.9415 14.4005 13.6436 14.5352 13.3266 14.5588C13.0097 14.5824 12.6946 14.4934 12.4386 14.3079C12.2928 14.8366 12.3191 15.3971 12.5138 15.9103C12.7086 16.4235 13.0619 16.8637 13.524 17.1689C13.9862 17.4741 14.534 17.629 15.0903 17.6117C15.6465 17.5944 16.1833 17.4058 16.625 17.0725C17.0666 16.7392 17.391 16.2779 17.5524 15.7536C17.7139 15.2293 17.7042 14.6684 17.5248 14.1498C17.3454 13.6312 17.0053 13.181 16.5524 12.8626C16.0995 12.5443 15.5565 12.3737 15 12.375Z" fill="#6A6A6A"/>
<rect x="0.5" y="0.5" width="29" height="29" rx="7.5" stroke="#6A6A6A"/>
</svg>
