<svg width="16" height="16" viewBox="0 0 16 16" fill="none" xmlns="http://www.w3.org/2000/svg">
<g clip-path="url(#clip0_96_495)">
<path d="M7.99951 10.9651C7.5522 10.9651 7.17725 11.34 7.17725 11.7874C7.17725 12.2347 7.5522 12.6096 7.99951 12.6096C8.43037 12.6096 8.82177 12.2347 8.80203 11.8071C8.82177 11.3368 8.4501 10.9651 7.99951 10.9651Z" fill="#F21616"/>
<path d="M15.6107 13.8792C16.127 12.9879 16.1303 11.9255 15.6172 11.0374L10.4666 2.11755C9.95679 1.21964 9.03585 0.686813 8.00309 0.686813C6.97033 0.686813 6.0494 1.22293 5.53959 2.11426L0.382368 11.044C-0.130724 11.9419 -0.127435 13.0109 0.392235 13.9022C0.905326 14.7837 1.82297 15.3132 2.84915 15.3132H13.1373C14.1668 15.3132 15.091 14.7771 15.6107 13.8792ZM14.4924 13.2345C14.2062 13.7279 13.6997 14.0206 13.134 14.0206H2.84586C2.28673 14.0206 1.7835 13.7345 1.50393 13.251C1.22107 12.7609 1.21779 12.1755 1.50064 11.6821L6.65787 2.75562C6.93744 2.26556 7.43738 1.97612 8.00309 1.97612C8.56552 1.97612 9.06874 2.26885 9.34831 2.75891L14.5023 11.6854C14.7785 12.1656 14.7752 12.7445 14.4924 13.2345Z" fill="#F21616"/>
<path d="M7.79592 5.19282C7.40452 5.30464 7.16113 5.65986 7.16113 6.09073C7.18087 6.35056 7.19731 6.61368 7.21705 6.87352C7.27296 7.86352 7.32887 8.83379 7.38479 9.8238C7.40452 10.1593 7.66436 10.4027 7.99984 10.4027C8.33532 10.4027 8.59845 10.1428 8.61489 9.80406C8.61489 9.60014 8.61489 9.41266 8.63463 9.20545C8.67081 8.57067 8.71027 7.93588 8.74645 7.30109C8.76619 6.88996 8.80237 6.47883 8.8221 6.0677C8.8221 5.91969 8.80237 5.78813 8.74645 5.65657C8.57871 5.2882 8.18732 5.10072 7.79592 5.19282Z" fill="#F21616"/>
</g>
<defs>
<clipPath id="clip0_96_495">
<rect width="16" height="16" fill="white"/>
</clipPath>
</defs>
</svg>
