<svg width="278" height="582" viewBox="0 0 278 582" fill="none" xmlns="http://www.w3.org/2000/svg">
<path d="M178.058 357.492H51.3655C41.8229 357.492 34.087 365.253 34.087 374.826C34.087 384.4 41.8229 392.16 51.3655 392.16H178.058C187.601 392.16 195.337 384.4 195.337 374.826C195.337 365.253 187.601 357.492 178.058 357.492Z" fill="white" stroke="#3E3A36" stroke-width="6" stroke-miterlimit="10"/>
<path d="M44.5142 578.709C44.3632 578.712 44.2133 578.683 44.0747 578.623C43.936 578.563 43.8119 578.473 43.7106 578.361C43.6093 578.249 43.5333 578.116 43.4876 577.971C43.4419 577.827 43.4276 577.674 43.4457 577.524L69.4463 392.16H154.173L45.4562 578.18C45.3588 578.343 45.2207 578.478 45.0554 578.571C44.8902 578.663 44.7036 578.711 44.5142 578.709V578.709Z" stroke="#3E3A36" stroke-width="6" stroke-miterlimit="10"/>
<path d="M183.88 578.709C184.032 578.713 184.183 578.683 184.322 578.622C184.462 578.561 184.586 578.47 184.687 578.356C184.788 578.242 184.863 578.108 184.906 577.962C184.95 577.815 184.962 577.662 184.94 577.511L154.609 392.16H69.8826L182.956 578.198C183.054 578.355 183.19 578.484 183.352 578.574C183.514 578.663 183.696 578.71 183.88 578.709V578.709Z" stroke="#3E3A36" stroke-width="6" stroke-miterlimit="10"/>
<path d="M211.978 508.953C217.857 509.539 227.373 510.703 238.724 509.623C235.811 520.902 234.472 531.686 232.353 541.268C230.983 547.436 239.331 555.788 241.86 561.83C241.796 561.796 241.731 561.766 241.664 561.739C230.089 559.888 214.59 570.869 216.186 553.728C217.717 536.569 213.866 523.982 211.978 508.953Z" fill="#B65A18"/>
<path d="M216.535 541.11C212.554 541.11 205.223 548.325 205.864 559.875C206.221 566.688 207.345 573.44 209.213 580H255.658C257.839 563.493 241.664 561.712 241.664 561.712C230.085 559.862 215.17 570.843 216.766 553.706L216.535 541.11Z" fill="#642648"/>
<path d="M179.707 509.391C185.586 509.977 198.154 510.703 209.506 509.622C206.593 520.901 204.879 541.267 204.879 541.267C203.51 547.436 211.857 555.788 214.386 561.83C214.322 561.796 214.257 561.766 214.19 561.738C202.615 559.888 187.116 570.869 188.712 553.728C190.243 536.569 179.707 509.391 179.707 509.391Z" fill="#C36F0B"/>
<path d="M188.189 541.11C184.207 541.11 177.748 548.325 178.389 559.875C178.747 566.688 179.87 573.44 181.739 580H228.184C230.364 563.493 214.189 561.712 214.189 561.712C202.611 559.862 187.696 570.843 189.292 553.706L188.189 541.11Z" fill="#722D54"/>
<path d="M86.3802 260.724C86.3802 260.724 46.4723 309.178 49.3113 341.493C52.1504 373.807 85.2333 383.362 146.127 382.649C146.127 382.649 147.91 431.121 179.532 509.526C179.532 509.526 194.207 512.37 212.24 509.526C212.24 509.526 227.504 511.071 238.842 509.452C238.842 509.452 263.02 350.921 260.081 334.843C256.186 313.536 179.227 294.316 159.306 289.7L142.651 260.724C142.651 260.724 109.21 264.986 86.3802 260.724Z" fill="#3F4D90"/>
<path d="M131.112 308.443C131.112 308.443 194.94 325.244 202.733 345.837C210.526 366.431 210.923 511.276 210.923 511.276" stroke="white" stroke-width="4" stroke-miterlimit="10"/>
<path d="M163.379 200.09C163.379 200.09 160.902 234.71 142.489 260.807C142.489 260.807 112.398 265.957 86.2319 260.807C86.2319 260.807 60.3055 233.454 52.8742 203.809C52.8742 203.809 28.1863 153.574 39.355 145.052C50.5236 136.529 78.3122 121.864 78.3122 121.864L134.836 124.646C141.813 128.899 156.689 135.851 171.556 143.66L163.379 200.09Z" fill="#053B65"/>
<path d="M117.575 188.597C119.827 188.597 121.652 186.765 121.652 184.506C121.652 182.247 119.827 180.415 117.575 180.415C115.323 180.415 113.497 182.247 113.497 184.506C113.497 186.765 115.323 188.597 117.575 188.597Z" fill="#053B65" stroke="#001432" stroke-width="5" stroke-linejoin="round"/>
<path d="M117.575 205.152C119.827 205.152 121.652 203.321 121.652 201.061C121.652 198.802 119.827 196.971 117.575 196.971C115.323 196.971 113.497 198.802 113.497 201.061C113.497 203.321 115.323 205.152 117.575 205.152Z" fill="#053B65" stroke="#001432" stroke-width="5" stroke-linejoin="round"/>
<path d="M117.575 221.703C119.827 221.703 121.652 219.872 121.652 217.612C121.652 215.353 119.827 213.522 117.575 213.522C115.323 213.522 113.497 215.353 113.497 217.612C113.497 219.872 115.323 221.703 117.575 221.703Z" fill="#053B65" stroke="#001432" stroke-width="5" stroke-linejoin="round"/>
<path d="M171.521 143.656C186.383 151.47 230.116 252.027 211.917 262.658C174.125 284.765 163.379 200.094 163.379 200.094L171.521 143.656Z" fill="#053B65"/>
<path d="M196.017 265.795C201.12 267.983 214.285 263.953 228.917 254.337C243.548 244.72 226.95 238.372 226.95 238.372C226.95 238.372 207.5 230.541 195.633 236.185C183.767 241.828 186.244 261.573 196.017 265.795Z" fill="#B65A18"/>
<path d="M275 216.737H195.114L107.457 274.3H187.339L275 216.737Z" fill="white" stroke="#3F4D79" stroke-width="5" stroke-linejoin="round"/>
<path d="M245.463 240.485C245.463 238.394 232.214 226.091 227.146 230.738C225.023 232.68 224.9 249.362 225.097 252.372C225.716 261.954 245.354 251.213 245.463 240.485Z" fill="#C36F0B"/>
<path d="M39.3203 145.052C34.7804 148.665 -13.4178 222.281 3.63821 256.179C22.8792 294.443 101.047 262.671 101.047 262.671C101.047 262.671 91.1295 259.609 97.501 246.825C97.501 246.825 65.1595 229.561 39.1459 234.71C39.1459 234.71 59.3201 201.153 61.4439 188.015C63.5677 174.877 55.6045 132.093 39.3203 145.052Z" fill="#053B65"/>
<path d="M117.941 224.424L132.185 256.34" stroke="#722D54" stroke-width="6" stroke-miterlimit="10"/>
<path d="M97.523 245.801C97.523 245.801 111.858 237.602 117.584 240.673C123.859 244.033 131.386 254.674 132.076 256.463C132.765 258.252 132.568 260.112 132.459 262.028C132.35 263.944 119.376 263.835 116.882 263.691C114.387 263.546 100.999 265.139 98.6612 262.842C90.083 254.415 97.523 245.801 97.523 245.801Z" fill="#C36F0B"/>
<path d="M116.877 263.691C119.389 263.835 130.858 263.979 132.319 262.614C135.22 259.915 133.558 255.881 132.106 254.302C130.776 252.849 123.698 244.033 117.579 240.686C117.579 240.686 124.675 253.072 116.877 263.704" fill="#B65A18"/>
<path d="M93.2969 29.6502C93.2969 29.6502 86.9254 19.3512 93.2969 14.0268C99.6684 8.70229 102.289 0.0571353 113.824 0.000259319C125.739 -0.0566167 130.492 9.2623 135.948 8.34353C143.362 7.09664 148.56 4.69909 157.976 9.68231C165.511 13.6724 165.825 28.6308 173.466 27.8739C179.545 27.2745 186.296 27.6595 189.746 34.4365C192.362 39.5685 189.571 53.4331 193.461 57.1607C197.351 60.8882 206.545 62.1045 207.268 71.7166C208.228 84.7062 194.709 86.6181 198.241 96.9301C202.89 110.493 196.331 119.007 184.792 120.556C176.676 121.636 162.415 109.53 157.186 117.891C152.725 125.018 143.379 128.19 131.892 123.579C120.405 118.967 113.31 120.381 106.232 123.399C99.1538 126.418 90.4797 130.675 84.6402 125.526C78.8008 120.376 71.7533 120.232 63.9776 123.456C53.1884 127.932 41.6098 120.573 43.0446 110.795C44.2351 102.714 33.1799 101.695 31.8977 92.5069C30.2231 80.5061 47.8243 77.4173 42.6913 72.2678C37.5584 67.1183 37.7415 52.0637 52.9485 50.0687C67.3749 48.1874 64.2872 39.1703 68.3561 33.0059C71.7882 27.852 82.5033 21.3069 93.2969 29.6502Z" fill="#12151F"/>
<path d="M36.5118 69.4415C31.7147 63.9902 33.2454 47.2161 48.5439 46.1705C63.0575 45.1817 60.5194 35.9896 64.9633 30.1052C68.7051 25.1569 81.2474 19.2506 93.1182 29.5845" stroke="#12151F" stroke-width="3" stroke-miterlimit="10"/>
<path d="M95.3554 73.9085C95.2464 83.0961 95.8177 108.432 78.2776 121.859C78.2776 121.859 109.773 137.728 116.882 172.882C116.882 172.882 121.884 135.829 134.801 124.642C134.801 124.642 119.494 115.935 122.856 73.891L95.3554 73.9085Z" fill="#C36F0B"/>
<path d="M125.739 110.318C123.558 112.295 121.099 113.424 118.43 113.424C107.379 113.424 96.3759 96.5363 95.3162 78.4804C95.3511 76.7041 95.351 75.1553 95.3685 73.9084H122.869C121.487 91.0018 123.209 102.591 125.739 110.318Z" fill="#B65A18"/>
<path d="M94.361 65.5958C94.4831 60.9757 96.1054 36.8341 115.595 37.7222C135.084 38.6103 138.246 58.3157 136.502 74.1185C134.757 89.9213 125.163 100.57 118.451 99.8614C111.74 99.1527 93.8289 85.1262 94.361 65.5958Z" fill="#C36F0B"/>
</svg>
